<svg width="31" height="23" viewBox="0 0 31 23" fill="none" xmlns="http://www.w3.org/2000/svg">
<mask id="mask0_4876_14231" style="mask-type:luminance" maskUnits="userSpaceOnUse" x="0" y="1" width="31" height="22">
<path d="M0.182251 1H30.1666V22.2656H0.182251V1Z" fill="white"/>
</mask>
<g mask="url(#mask0_4876_14231)">
<path d="M15.8073 15.9531C15.6093 16.151 15.3333 16.2656 15.052 16.2656C14.7656 16.2656 14.4895 16.151 14.2916 15.9531L0.286418 1.94792C0.244751 2.11979 0.182251 2.28646 0.182251 2.47396V19.6771C0.182251 20.8646 1.14058 21.8281 2.33329 21.8281H28.1406C29.3229 21.8281 30.2916 20.8646 30.2916 19.6771V2.47396C30.2916 2.17708 30.2291 1.89583 30.1198 1.64062L15.8073 15.9531Z" fill="black"/>
</g>
<mask id="mask1_4876_14231" style="mask-type:luminance" maskUnits="userSpaceOnUse" x="1" y="0" width="29" height="15">
<path d="M1.66663 0.276062H29.6666V14.3334H1.66663V0.276062Z" fill="white"/>
</mask>
<g mask="url(#mask1_4876_14231)">
<path d="M15.052 13.6719L28.3541 0.364604C28.2812 0.354186 28.2187 0.322937 28.1406 0.322937H2.33329C2.14579 0.322937 1.97913 0.380229 1.80725 0.427104L15.052 13.6719Z" fill="black"/>
</g>
</svg>
