<svg width="31" height="31" viewBox="0 0 31 31" fill="none" xmlns="http://www.w3.org/2000/svg">
<mask id="mask0_4876_14228" style="mask-type:luminance" maskUnits="userSpaceOnUse" x="0" y="0" width="31" height="31">
<path d="M0.1875 0.838562H30.1719V30.8281H0.1875V0.838562Z" fill="white"/>
</mask>
<g mask="url(#mask0_4876_14228)">
<path d="M15.4167 3.58854C19.4792 3.58854 19.9583 3.59896 21.5677 3.67708C23.0521 3.73958 23.8594 3.98958 24.401 4.20313C25.1094 4.47396 25.6146 4.80729 26.151 5.34375C26.6823 5.88021 27.0104 6.38542 27.2917 7.09375C27.5 7.625 27.7448 8.4375 27.8177 9.92188C27.8906 11.5313 27.9063 12.0156 27.9063 16.0781C27.9063 20.1458 27.8906 20.625 27.8177 22.2344C27.75 23.7188 27.5052 24.526 27.2917 25.0625C27.0156 25.7708 26.6823 26.2813 26.151 26.8125C25.6146 27.349 25.1094 27.6771 24.401 27.9583C23.8646 28.1615 23.0573 28.4115 21.5677 28.4844C19.9583 28.5573 19.4792 28.5677 15.4167 28.5677C11.349 28.5677 10.8698 28.5573 9.26042 28.4844C7.77604 28.4167 6.96875 28.1719 6.42708 27.9583C5.71875 27.6823 5.21354 27.349 4.67708 26.8125C4.14583 26.2813 3.81771 25.7708 3.53646 25.0625C3.33333 24.5313 3.08333 23.724 3.01042 22.2344C2.9375 20.625 2.92188 20.1458 2.92188 16.0781C2.92188 12.0156 2.9375 11.5313 3.01042 9.92188C3.07813 8.44271 3.32292 7.63542 3.53646 7.09375C3.8125 6.38542 4.14583 5.88021 4.67708 5.34375C5.21354 4.80729 5.71875 4.48437 6.42708 4.20313C6.96354 3.99479 7.77083 3.75 9.26042 3.67708C10.8698 3.59896 11.349 3.58854 15.4167 3.58854ZM15.4167 0.84375C11.276 0.84375 10.7604 0.864584 9.13021 0.9375C7.51042 1.01042 6.40104 1.27083 5.43229 1.64583C4.43229 2.03125 3.58333 2.55208 2.73438 3.40104C1.89583 4.25 1.375 5.09896 0.989583 6.09896C0.614583 7.06771 0.354166 8.17708 0.28125 9.79688C0.208333 11.4167 0.1875 11.9375 0.1875 16.0729C0.1875 20.2135 0.208333 20.724 0.28125 22.3542C0.354166 23.9792 0.614583 25.0833 0.989583 26.0521C1.375 27.0521 1.89583 27.901 2.74479 28.75C3.58854 29.599 4.4375 30.1198 5.44271 30.5052C6.40625 30.8802 7.51563 31.1406 9.14063 31.2135C10.7604 31.2865 11.2813 31.3073 15.4219 31.3073C19.5625 31.3073 20.0729 31.2865 21.7031 31.2135C23.3281 31.1406 24.4323 30.8802 25.401 30.5052C26.401 30.1198 27.25 29.599 28.099 28.75C28.9479 27.901 29.4688 27.0521 29.8542 26.0521C30.2292 25.0833 30.4896 23.9792 30.5625 22.3542C30.6354 20.7344 30.6563 20.2135 30.6563 16.0729C30.6563 11.9323 30.6354 11.4167 30.5625 9.79167C30.4896 8.16667 30.2292 7.05729 29.8542 6.09375C29.4688 5.08854 28.9479 4.24479 28.099 3.39583C27.25 2.54687 26.401 2.02604 25.401 1.64063C24.4323 1.26563 23.3281 1.00521 21.7031 0.932292C20.0729 0.864584 19.5521 0.84375 15.4167 0.84375Z" fill="black"/>
</g>
<path d="M15.4166 8.25519C11.0937 8.25519 7.59894 11.7552 7.59894 16.0729C7.59894 20.3906 11.1041 23.8958 15.4219 23.8958C19.7396 23.8958 23.2448 20.401 23.2448 16.0729C23.2396 11.7552 19.7344 8.25519 15.4166 8.25519ZM15.4166 21.151C12.6094 21.151 10.3385 18.8854 10.3385 16.0781C10.3385 13.276 12.6094 11.0052 15.4166 11.0052C18.2187 11.0052 20.4896 13.276 20.4896 16.0781C20.4948 18.875 18.2187 21.151 15.4166 21.151Z" fill="black"/>
<path d="M25.375 7.94794C25.375 8.95315 24.5521 9.77606 23.5469 9.77606C22.5365 9.77606 21.7188 8.95315 21.7188 7.94794C21.7188 6.93752 22.5365 6.11981 23.5469 6.11981C24.5521 6.11981 25.375 6.93231 25.375 7.94794Z" fill="black"/>
</svg>
