<svg width="37" height="31" viewBox="0 0 37 31" fill="none" xmlns="http://www.w3.org/2000/svg">
<mask id="mask0_4876_14230" style="mask-type:luminance" maskUnits="userSpaceOnUse" x="0" y="0" width="37" height="31">
<path d="M0.848999 0.942688H36.8334V30.9271H0.848999V0.942688Z" fill="white"/>
</mask>
<g mask="url(#mask0_4876_14230)">
<path d="M33.1198 8.99998C33.1406 9.31769 33.1406 9.6354 33.1406 9.9531C33.1406 19.6927 25.7291 30.9271 12.177 30.9271V30.9166C8.17704 30.9271 4.25517 29.7812 0.885376 27.6146C1.46871 27.6823 2.05725 27.7187 2.64058 27.7239C5.95829 27.7239 9.18225 26.6094 11.7916 24.5573C8.63538 24.5 5.87496 22.4427 4.90621 19.4427C6.01037 19.6562 7.151 19.6094 8.23433 19.3125C4.79683 18.6198 2.32288 15.5989 2.32288 12.0885C2.32288 12.0573 2.32288 12.026 2.32288 11.9948C3.34892 12.5677 4.49475 12.8802 5.66663 12.9166C2.43225 10.7552 1.43225 6.4479 3.39058 3.0781C7.13017 7.68227 12.6458 10.4791 18.5677 10.776C17.9739 8.21873 18.7864 5.53644 20.7031 3.73435C23.6666 0.942688 28.3333 1.08852 31.125 4.05206C32.776 3.72915 34.3541 3.12498 35.802 2.2656C35.25 3.97394 34.1041 5.42185 32.5625 6.34373C34.026 6.16665 35.4531 5.77602 36.7968 5.18227C35.8073 6.66665 34.5573 7.95831 33.1198 8.99998Z" fill="black"/>
</g>
</svg>
