<svg width="297" height="96" viewBox="0 0 297 96" fill="none" xmlns="http://www.w3.org/2000/svg">
<path d="M0 93.7826V0H19.3043V43.7127H19.5376C24.5532 38.697 29.8969 36.1891 35.5759 36.1891C38.3316 36.1891 41.0727 36.5609 43.7992 37.2972C46.5184 38.019 49.1356 39.149 51.6434 40.6799C54.1512 42.1963 56.1778 44.3543 57.7379 47.1537C59.3126 49.9532 60.0999 53.212 60.0999 56.9227V93.7826H40.7956V62.1426C40.7956 59.2484 39.8625 56.7113 37.9962 54.5315C36.1445 52.3371 33.7388 51.2363 30.7644 51.2363C27.8483 51.2363 25.202 52.3663 22.8327 54.619C20.478 56.879 19.3043 59.3869 19.3043 62.1426V93.7826H0Z" fill="#006D77"/>
<path d="M119.404 68.4705H78.8418C78.8418 72.3999 80.1103 75.3161 82.6618 77.2188C85.2061 79.107 87.969 80.0475 90.9434 80.0475C94.0709 80.0475 96.5422 79.6319 98.3502 78.7935C100.173 77.9624 102.258 76.3075 104.591 73.8361L118.558 80.8057C112.726 90.5455 103.052 95.4154 89.5437 95.4154C81.1017 95.4154 73.8626 92.5285 67.8191 86.7546C61.7901 80.9661 58.7793 74.0038 58.7793 65.8751C58.7793 57.7318 61.7901 50.755 67.8191 44.9373C73.8626 39.1051 81.1017 36.189 89.5437 36.189C98.4085 36.189 105.618 38.7552 111.181 43.8875C116.736 49.0199 119.521 56.354 119.521 65.8751C119.521 67.1801 119.477 68.0476 119.404 68.4705ZM79.3958 57.7974H100.654C100.224 54.8813 99.0792 52.6505 97.2129 51.0904C95.3612 49.5157 92.9846 48.7283 90.0686 48.7283C86.8755 48.7283 84.3312 49.5667 82.4285 51.2362C80.5404 52.9129 79.527 55.1 79.3958 57.7974Z" fill="#006D77"/>
<path d="M123.102 86.8712C117.868 81.1556 115.258 74.1569 115.258 65.8751C115.258 57.5787 117.868 50.5582 123.102 44.8207C128.351 39.0686 135.007 36.189 143.077 36.189C150.484 36.189 156.586 38.5219 161.39 43.1877V37.822H180.694V93.7824H161.623V87.4544H161.39C156.586 92.7618 150.484 95.4154 143.077 95.4154C135.007 95.4154 128.351 92.5722 123.102 86.8712ZM139.519 56.3685C137.012 58.84 135.758 62.0112 135.758 65.8751C135.758 69.7244 136.953 72.8665 139.344 75.2942C141.75 77.7292 144.921 78.9393 148.851 78.9393C152.62 78.9393 155.718 77.7073 158.153 75.2359C160.602 72.7717 161.827 69.6515 161.827 65.8751C161.827 62.0112 160.573 58.84 158.066 56.3685C155.558 53.9044 152.481 52.6651 148.851 52.6651C145.133 52.6651 142.027 53.9044 139.519 56.3685Z" fill="#006D77"/>
<path d="M184.484 93.7826V0H203.789V93.7826H184.484Z" fill="#006D77"/>
<path d="M209.465 6.64882C211.717 4.39611 214.407 3.26611 217.542 3.26611C220.67 3.26611 223.352 4.39611 225.59 6.64882C227.843 8.90882 228.973 11.5989 228.973 14.7265C228.973 17.8394 227.843 20.5223 225.59 22.775C223.352 25.035 220.67 26.1577 217.542 26.1577C214.407 26.1577 211.717 25.035 209.465 22.775C207.205 20.5223 206.082 17.8394 206.082 14.7265C206.082 11.5989 207.205 8.90882 209.465 6.64882ZM207.598 37.8222V93.7826H226.903V37.8222H207.598Z" fill="#006D77"/>
<path d="M296.051 93.7827H272.723L260.388 77.9773L248.053 93.7827H224.725L248.607 64.5631L228.107 37.8223H250.678L260.388 50.799L270.098 37.8223H292.669L272.169 64.5631L296.051 93.7827Z" fill="#006D77"/>
<mask id="mask0_4863_7223" style="mask-type:luminance" maskUnits="userSpaceOnUse" x="25" y="8" width="37" height="31">
<path d="M25.3516 8.99414H61.6711V38.8553H25.3516V8.99414Z" fill="white"/>
</mask>
<g mask="url(#mask0_4863_7223)">
<path fill-rule="evenodd" clip-rule="evenodd" d="M33.4589 13.2592C50.5834 13.179 59.7763 21.1765 60.5636 37.7255C60.5709 37.9369 60.8771 37.9442 60.9063 37.7401C61.6717 32.3306 61.5259 27.4024 60.1481 23.123C55.6209 8.97978 38.3433 7.12804 26.0813 11.6043C25.4689 11.823 25.345 12.6104 25.8553 13.0186C35.4199 20.6661 34.115 41.5383 57.3924 32.491C53.7546 21.191 46.3041 14.1924 33.4589 13.2592Z" fill="#44AA00"/>
</g>
<mask id="mask1_4863_7223" style="mask-type:luminance" maskUnits="userSpaceOnUse" x="61" y="22" width="24" height="19">
<path d="M61.6797 22.0586H84.0677V40.7218H61.6797V22.0586Z" fill="white"/>
</mask>
<g mask="url(#mask1_4863_7223)">
<path fill-rule="evenodd" clip-rule="evenodd" d="M78.6735 24.5081C68.358 24.4644 62.8248 29.276 62.3509 39.2491C62.3436 39.3731 62.1614 39.3804 62.1395 39.2564C61.6802 35.9977 61.7677 33.0305 62.5988 30.4497C65.3253 21.9347 75.7356 20.8119 83.1205 23.5094C83.485 23.6406 83.5652 24.1217 83.259 24.3623C77.4925 28.9698 78.2799 41.5456 64.2609 36.0924C66.448 29.2906 70.9387 25.0695 78.6735 24.5081Z" fill="#44AA00"/>
</g>
</svg>
