<svg width="49" height="49" viewBox="0 0 49 49" fill="none" xmlns="http://www.w3.org/2000/svg">
<path d="M48.4479 24.224C48.4479 23.4271 48.4062 22.6354 48.3281 21.849C48.25 21.0573 48.1354 20.276 47.9792 19.4948C47.8281 18.7188 47.6354 17.9479 47.401 17.1927C47.1719 16.4323 46.9063 15.6875 46.6042 14.9531C46.2969 14.2188 45.9583 13.5052 45.5885 12.8021C45.2135 12.1042 44.8021 11.4271 44.3646 10.7656C43.9219 10.1042 43.4531 9.46875 42.9479 8.85417C42.4427 8.24479 41.9115 7.65625 41.349 7.09375C40.7917 6.53125 40.2031 6 39.5885 5.5C38.9792 4.99479 38.3385 4.52083 37.6823 4.08333C37.0208 3.64063 36.3438 3.23438 35.6406 2.85938C34.9427 2.48438 34.224 2.14583 33.4948 1.84375C32.7604 1.54167 32.0156 1.27083 31.2552 1.04167C30.4948 0.8125 29.7292 0.619791 28.9479 0.463542C28.1719 0.3125 27.3854 0.192709 26.599 0.114583C25.8073 0.036458 25.0156 0 24.224 0C23.4323 0 22.6406 0.036458 21.849 0.114583C21.0573 0.192709 20.276 0.3125 19.5 0.463542C18.7188 0.619791 17.9531 0.8125 17.1927 1.04167C16.4323 1.27083 15.6875 1.54167 14.9531 1.84375C14.2187 2.14583 13.5052 2.48438 12.8073 2.85938C12.1042 3.23438 11.4271 3.64063 10.7656 4.08333C10.1042 4.52083 9.46875 4.99479 8.85938 5.5C8.24479 6 7.65625 6.53125 7.09375 7.09375C6.53646 7.65625 6 8.24479 5.5 8.85417C4.99479 9.46875 4.52604 10.1042 4.08333 10.7656C3.64063 11.4271 3.23438 12.1042 2.85938 12.8021C2.48958 13.5052 2.15104 14.2188 1.84375 14.9531C1.54167 15.6875 1.27604 16.4323 1.04167 17.1927C0.8125 17.9479 0.619793 18.7188 0.46875 19.4948C0.312501 20.276 0.197917 21.0573 0.119792 21.849C0.0416663 22.6354 0 23.4271 0 24.224C0 25.0156 0.0416663 25.8073 0.119792 26.599C0.197917 27.3854 0.312501 28.1719 0.46875 28.9479C0.619793 29.724 0.8125 30.4948 1.04167 31.2552C1.27604 32.0156 1.54167 32.7604 1.84375 33.4896C2.15104 34.224 2.48958 34.9427 2.85938 35.6406C3.23438 36.3385 3.64063 37.0208 4.08333 37.6823C4.52604 38.3385 4.99479 38.974 5.5 39.5885C6 40.2031 6.53646 40.7917 7.09375 41.349C7.65625 41.9115 8.24479 42.4427 8.85938 42.9479C9.46875 43.4479 10.1042 43.9219 10.7656 44.3646C11.4271 44.8021 12.1042 45.2083 12.8073 45.5833C13.5052 45.9583 14.2187 46.2969 14.9531 46.599C15.6875 46.9062 16.4323 47.1719 17.1927 47.401C17.9531 47.6302 18.7188 47.8229 19.5 47.9792C20.276 48.1354 21.0573 48.25 21.849 48.3281C22.6406 48.4062 23.4323 48.4427 24.224 48.4427C25.0156 48.4427 25.8073 48.4062 26.599 48.3281C27.3854 48.25 28.1719 48.1354 28.9479 47.9792C29.7292 47.8229 30.4948 47.6302 31.2552 47.401C32.0156 47.1719 32.7604 46.9062 33.4948 46.599C34.224 46.2969 34.9427 45.9583 35.6406 45.5833C36.3438 45.2083 37.0208 44.8021 37.6823 44.3646C38.3385 43.9219 38.9792 43.4479 39.5885 42.9479C40.2031 42.4427 40.7917 41.9115 41.349 41.349C41.9115 40.7917 42.4427 40.2031 42.9479 39.5885C43.4531 38.974 43.9219 38.3385 44.3646 37.6823C44.8021 37.0208 45.2135 36.3385 45.5885 35.6406C45.9583 34.9427 46.2969 34.224 46.6042 33.4896C46.9063 32.7604 47.1719 32.0156 47.401 31.2552C47.6354 30.4948 47.8281 29.724 47.9792 28.9479C48.1354 28.1719 48.25 27.3854 48.3281 26.599C48.4062 25.8073 48.4479 25.0156 48.4479 24.224ZM22.5052 38.0521L12.8125 28.3646C12.5833 28.1354 12.4063 27.875 12.2865 27.5781C12.1615 27.276 12.099 26.9688 12.099 26.6458C12.099 26.3229 12.1615 26.0104 12.2865 25.7135C12.4063 25.4167 12.5833 25.151 12.8125 24.9271C13.0417 24.6979 13.3073 24.5208 13.6042 24.3958C13.901 24.2708 14.2135 24.2083 14.5365 24.2083C14.8594 24.2083 15.1667 24.2708 15.4635 24.3958C15.7656 24.5208 16.026 24.6979 16.2552 24.9271L21.8021 30.4948V12.1094C21.8021 11.7917 21.8646 11.4792 21.9844 11.1823C22.1094 10.8854 22.2813 10.625 22.5104 10.3958C22.7396 10.1719 23 9.99479 23.2969 9.875C23.5938 9.75 23.901 9.6875 24.224 9.6875C24.5469 9.6875 24.8542 9.75 25.151 9.875C25.4479 9.99479 25.7083 10.1719 25.9375 10.3958C26.1615 10.625 26.3385 10.8854 26.4635 11.1823C26.5833 11.4792 26.6458 11.7917 26.6458 12.1094V30.4948L32.1927 24.9271C32.4219 24.6979 32.6823 24.5208 32.9844 24.3958C33.2813 24.276 33.5885 24.2135 33.9115 24.2135C34.2344 24.2135 34.5469 24.276 34.8438 24.3958C35.1406 24.5208 35.4063 24.6979 35.6302 24.9271C35.8594 25.151 36.0365 25.4167 36.1615 25.7135C36.2812 26.0104 36.3438 26.3229 36.3438 26.6458C36.3438 26.9688 36.2812 27.276 36.1615 27.5729C36.0365 27.875 35.8594 28.1354 35.6302 28.3646L25.9427 38.0521C25.7083 38.276 25.4427 38.4479 25.1458 38.5625C24.5313 38.8125 23.9167 38.8125 23.3021 38.5625C23.0052 38.4479 22.7344 38.276 22.5052 38.0521Z" fill="#FF8C42"/>
</svg>
