<svg width="44" height="47" viewBox="0 0 44 47" fill="none" xmlns="http://www.w3.org/2000/svg">
<mask id="mask0_4887_8852" style="mask-type:luminance" maskUnits="userSpaceOnUse" x="0" y="0" width="44" height="47">
<path d="M0.927002 0.140625H43.9062V46.1198H0.927002V0.140625Z" fill="white"/>
</mask>
<g mask="url(#mask0_4887_8852)">
<path d="M43.3907 0.885477C43.1928 0.770894 42.948 0.765686 42.7501 0.880268L34.3803 5.64589C34.1824 5.76048 34.0574 5.97923 34.0574 6.20839V24.474C32.6407 22.698 30.7709 21.3021 28.6251 20.448V8.98964C28.6251 8.76048 28.5053 8.54693 28.3074 8.43235C28.1095 8.31777 27.8595 8.31777 27.6616 8.43235L19.297 13.198C19.0938 13.3126 18.9688 13.5261 18.9688 13.7605V20.448C16.8282 21.3021 14.9584 22.7032 13.5418 24.474V16.5417C13.5418 16.3126 13.4168 16.099 13.2188 15.9844C13.0209 15.8646 12.7761 15.8646 12.573 15.9792L4.20843 20.7449C4.01051 20.8594 3.88551 21.0782 3.88551 21.3074V42.3699C3.88551 42.724 4.17197 43.0157 4.53134 43.0157H12.8959C13.2501 43.0157 13.5418 42.724 13.5418 42.3699V40.8334C15.948 43.849 19.6511 45.7813 23.797 45.7813C27.948 45.7813 31.6511 43.849 34.0574 40.8334V42.3699C34.0574 42.724 34.3438 43.0157 34.7032 43.0157H43.0678C43.422 43.0157 43.7136 42.724 43.7136 42.3699V1.44277C43.7136 1.2136 43.5938 1.00006 43.3907 0.885477ZM20.2605 14.1355L27.3334 10.1042V20.0157C26.2084 19.698 25.0261 19.5313 23.797 19.5313C22.573 19.5313 21.3855 19.698 20.2605 20.0157V14.1355ZM12.2501 41.724H5.17718V21.6824L12.2501 17.6511V26.4219C11.2449 28.2761 10.672 30.4011 10.672 32.6563C10.672 34.9115 11.2449 37.0313 12.2501 38.8907V41.724ZM23.797 44.4896C17.2709 44.4896 11.9636 39.1824 11.9636 32.6563C11.9636 26.1303 17.2709 20.8178 23.797 20.8178C30.323 20.8178 35.6355 26.1303 35.6355 32.6563C35.6355 39.1824 30.323 44.4896 23.797 44.4896ZM42.422 41.724H35.3491V38.8907C36.3543 37.0313 36.9272 34.9115 36.9272 32.6563C36.9272 30.4011 36.3543 28.2761 35.3491 26.4219V6.58339L42.422 2.55214V41.724ZM23.797 22.6042C18.2553 22.6042 13.7449 27.1094 13.7449 32.6563C13.7449 38.198 18.2553 42.7084 23.797 42.7084C29.3438 42.7084 33.8543 38.198 33.8543 32.6563C33.8543 27.1094 29.3438 22.6042 23.797 22.6042ZM23.797 41.4167C18.9688 41.4167 15.0366 37.4844 15.0366 32.6563C15.0366 27.823 18.9688 23.8959 23.797 23.8959C28.6303 23.8959 32.5626 27.823 32.5626 32.6563C32.5626 37.4844 28.6303 41.4167 23.797 41.4167ZM26.9741 34.9532C26.9741 36.349 25.8907 37.5209 24.4584 37.7969L24.4741 38.5053C24.4845 38.8646 24.2032 39.1615 23.8438 39.1667C23.8386 39.1667 23.8334 39.1667 23.8282 39.1667C23.4793 39.1667 23.1928 38.8907 23.1824 38.5365L23.1668 37.8074C22.3074 37.6563 21.7605 37.2032 21.2397 36.7136C20.9793 36.4688 20.9688 36.0574 21.2136 35.8021C21.4584 35.5417 21.8647 35.5261 22.1251 35.7709C22.7188 36.3334 23.0834 36.5678 23.797 36.5678C24.8386 36.5678 25.6824 35.8438 25.6824 34.9532C25.6824 34.0678 24.8386 33.3438 23.797 33.3438C22.047 33.3438 20.6251 32.0417 20.6251 30.4376C20.6251 29.0417 21.7032 27.8751 23.1407 27.5938L23.1251 26.8021C23.1147 26.448 23.3959 26.1511 23.7553 26.1407C24.1095 26.1355 24.4063 26.4167 24.4168 26.7709L24.4324 27.6146C25.2136 27.7865 26.1616 28.2344 26.5834 28.8699C26.7761 29.1667 26.6928 29.5678 26.3959 29.7605C26.0991 29.9584 25.698 29.8751 25.5053 29.5782C25.2866 29.2449 24.3282 28.823 23.797 28.823C22.7605 28.823 21.9168 29.5469 21.9168 30.4376C21.9168 31.3282 22.7605 32.0521 23.797 32.0521C25.547 32.0521 26.9741 33.3542 26.9741 34.9532ZM31.2709 3.10423L1.96884 18.9324C1.86988 18.9844 1.76572 19.0105 1.66155 19.0105C1.43238 19.0105 1.20843 18.8855 1.09384 18.6667C0.921967 18.3542 1.04176 17.9636 1.35426 17.7917L30.4063 2.09902L27.7449 1.48964C27.3959 1.40631 27.1772 1.06256 27.2605 0.713602C27.3386 0.364644 27.6876 0.151101 28.0313 0.229227L32.3647 1.22402C32.5313 1.26569 32.6772 1.36985 32.7657 1.51048C32.8595 1.65631 32.8855 1.83339 32.8491 2.00006L31.8491 6.32818C31.7709 6.67714 31.4272 6.89589 31.0782 6.81777C30.7293 6.73443 30.5105 6.39069 30.5938 6.04173L31.2709 3.10423Z" fill="#EE8454"/>
</g>
</svg>
