<svg width="62" height="48" viewBox="0 0 62 48" fill="none" xmlns="http://www.w3.org/2000/svg">
<mask id="mask0_4887_8850" style="mask-type:luminance" maskUnits="userSpaceOnUse" x="0" y="0" width="62" height="48">
<path d="M0.166748 0.53125H61.1355V47.5052H0.166748V0.53125Z" fill="white"/>
</mask>
<g mask="url(#mask0_4887_8850)">
<path d="M39.573 23.8073C38.7084 22.9479 37.8438 22.0833 37.0105 21.2448C36.1667 22.0937 35.3022 22.9583 34.4636 23.7917C35.3074 24.6354 36.172 25.5 37.0261 26.3542C37.8699 25.5156 38.7292 24.651 39.573 23.8073ZM30.422 19.776C31.2813 18.9167 32.1459 18.0521 32.9949 17.2031C32.1459 16.3542 31.2813 15.4896 30.422 14.6302C29.573 15.4844 28.7032 16.349 27.849 17.2031C28.7032 18.0573 29.573 18.9271 30.422 19.776ZM33.0157 30.3542C32.8595 30.1406 30.5522 27.8542 30.4532 27.7969C29.5782 28.6719 28.7136 29.5365 27.8699 30.3802C28.7188 31.224 29.5834 32.0938 30.4324 32.9427C31.2813 32.0885 32.1511 31.224 33.0157 30.3542ZM23.8647 8.05208C22.9949 8.92188 22.1303 9.78646 21.2761 10.6406C22.1303 11.4948 22.9949 12.3594 23.8334 13.1979C24.6928 12.3385 25.5626 11.4688 26.422 10.6094C25.5782 9.76563 24.7188 8.90625 23.8647 8.05208ZM23.8751 34.3802C23.0157 35.2448 22.1459 36.1146 21.3022 36.9583C22.1459 37.8021 23.0105 38.6667 23.8595 39.5156C24.7084 38.6667 25.5782 37.7969 26.4324 36.9427C25.5782 36.0885 24.7136 35.2188 23.8751 34.3802ZM39.5782 10.6406C38.7188 9.78125 37.8542 8.91667 37.0105 8.07292C36.1563 8.92187 35.2917 9.78646 34.448 10.6354C35.297 11.4844 36.1615 12.349 37.0157 13.2031C37.8595 12.3594 38.724 11.4948 39.5782 10.6406ZM52.7657 23.7604C51.9115 22.9063 51.0417 22.0365 50.2084 21.1979C49.3178 22.0885 48.4532 22.9531 47.6147 23.7917C48.4584 24.6406 49.323 25.5052 50.172 26.3542C51.0209 25.5052 51.8855 24.6354 52.7657 23.7604ZM34.4063 36.974C35.2657 37.8333 36.1355 38.6979 36.9636 39.5313C37.8542 38.6458 38.7188 37.7813 39.5574 36.9427C38.7136 36.099 37.849 35.2344 37.0001 34.3854C36.1511 35.2344 35.2865 36.099 34.4063 36.974ZM26.4115 23.8021C25.5574 22.9479 24.6876 22.0781 23.849 21.2396C23.0001 22.0833 22.1303 22.9427 21.2761 23.7865C22.1355 24.6458 23.0053 25.5104 23.8542 26.3594C24.7032 25.5104 25.5678 24.6458 26.4115 23.8021ZM10.698 21.2188C9.83862 22.0677 8.96883 22.9271 8.10946 23.776C8.97404 24.6406 9.84383 25.5052 10.6824 26.3438C11.5313 25.4896 12.4011 24.625 13.2501 23.776C12.4063 22.9271 11.5365 22.0625 10.698 21.2188ZM29.7084 33.6719C26.6511 30.6146 23.5886 27.5573 20.5574 24.5208C19.7084 25.3698 18.8438 26.2344 18.0053 27.0677C21.0522 30.1146 24.1095 33.1771 27.1563 36.224C28.0001 35.3802 28.8647 34.5208 29.7084 33.6719ZM24.5782 27.0573C25.448 27.9271 26.3126 28.7917 27.1667 29.6458C30.2032 26.6146 33.2605 23.5573 36.2865 20.526C35.4272 19.6667 34.5574 18.7969 33.698 17.9375C30.6667 20.974 27.6095 24.0313 24.5782 27.0573ZM42.8699 20.5156C39.8178 17.4583 36.7553 14.3958 33.7188 11.3646C32.8699 12.2135 32.0053 13.0781 31.1615 13.9219C34.2032 16.9635 37.2605 20.026 40.3126 23.0781C41.1615 22.2292 42.0209 21.3646 42.8699 20.5156ZM40.2761 16.5104C42.2501 14.5313 44.2136 12.5729 46.1407 10.6458C43.0938 7.59896 40.0365 4.54167 36.9897 1.49479C32.8647 5.63542 28.7188 9.79167 24.6042 13.9219C25.4376 14.7708 26.297 15.6406 27.1667 16.5208C30.4428 13.2448 33.724 9.96354 36.9688 6.71875C38.297 8.04688 39.6095 9.35417 40.922 10.6719C39.8595 11.7396 38.7709 12.8229 37.6876 13.9115C38.5678 14.7969 39.4272 15.6563 40.2761 16.5104ZM20.5678 31.0781C18.6095 33.0365 16.6511 35 14.7136 36.9375C17.7605 39.9844 20.8178 43.0469 23.8542 46.0781C27.9897 41.9427 32.1459 37.7865 36.2709 33.6563C35.4272 32.8073 34.5626 31.9427 33.6876 31.0677C30.422 34.3333 27.1407 37.6146 23.8803 40.875C22.5522 39.5469 21.2449 38.2344 19.9272 36.9167C21.0001 35.8438 22.0886 34.7552 23.1615 33.6823C22.2865 32.8021 21.4272 31.9375 20.5678 31.0781ZM46.1667 36.9583C42.0105 32.8021 37.8542 28.6458 33.7188 24.5104C32.8647 25.3646 32.0001 26.2292 31.1251 27.1094C34.3907 30.375 37.672 33.6563 40.9324 36.9167C39.6095 38.2396 38.3022 39.5469 36.9792 40.8698C35.9063 39.7969 34.823 38.7083 33.7501 37.6354C32.8699 38.5156 32.0001 39.3854 31.1667 40.2188C33.1147 42.1719 35.0782 44.1354 37.0365 46.0885C40.0678 43.0573 43.1251 40 46.1667 36.9583ZM19.9115 10.6719C21.2553 9.33333 22.5626 8.02083 23.8907 6.69271C24.9636 7.76563 26.0522 8.85417 27.1251 9.93229C27.9949 9.0625 28.8595 8.19792 29.7084 7.34896C27.7605 5.39583 25.7917 3.43229 23.8647 1.5C20.8178 4.54687 17.7605 7.60417 14.724 10.6354C18.8595 14.7708 23.0157 18.9271 27.1407 23.0521C27.9845 22.2031 28.849 21.3385 29.7188 20.474C26.4584 17.2135 23.1824 13.9375 19.9115 10.6719ZM10.672 32.9427C14.823 28.7917 18.9792 24.6302 23.1147 20.4896C22.2709 19.6458 21.4063 18.7813 20.5313 17.9063C17.2657 21.1719 13.9845 24.4531 10.7397 27.6927C9.41154 26.3646 8.10425 25.0573 6.81258 23.7656C8.09383 22.4896 9.40112 21.1823 10.7188 19.8646C11.7917 20.9427 12.8803 22.0313 13.9428 23.0938C14.823 22.2083 15.6928 21.3438 16.5261 20.5104C14.5782 18.5625 12.6147 16.599 10.6511 14.6354C9.93758 15.2813 1.60946 23.6406 1.52612 23.7917C4.58342 26.8542 7.64071 29.9115 10.672 32.9427ZM54.0574 23.7656C52.7449 25.0781 51.4376 26.3854 50.1251 27.6979C49.0574 26.6302 47.9688 25.5417 46.9167 24.4896C46.0261 25.375 45.1615 26.2396 44.3074 27.099C46.2501 29.0417 48.2136 31.0052 50.1772 32.9688C50.4376 32.7656 59.2657 23.9115 59.3282 23.7917C56.2709 20.7292 53.2136 17.6719 50.1824 14.6458C46.0365 18.7917 41.8751 22.9531 37.7449 27.0833C38.5886 27.9323 39.4532 28.7969 40.3334 29.6719C43.599 26.4115 46.8751 23.1302 50.1459 19.8594C51.4688 21.1823 52.7761 22.4844 54.0574 23.7656ZM37.0522 0.125C37.1147 0.1875 37.1667 0.255208 37.2292 0.317708C40.6095 3.69792 43.9845 7.07813 47.3647 10.4583C47.4167 10.5104 47.4636 10.5625 47.5365 10.6406C45.349 12.8281 43.1667 15.0104 41.0053 17.1719C41.8751 18.0417 42.7449 18.9115 43.6303 19.7969C45.7813 17.6406 47.9688 15.4583 50.1407 13.2813C53.6563 16.7969 57.1563 20.2917 60.6303 23.7708C57.1459 27.2552 53.6459 30.7552 50.1251 34.276C47.9792 32.125 45.797 29.9427 43.6355 27.7865C42.7605 28.6615 41.8907 29.5313 41.0053 30.4167C43.1563 32.5677 45.3386 34.75 47.5365 36.9427C47.4636 37.0208 47.4063 37.0833 47.3438 37.1458C43.9636 40.526 40.5834 43.901 37.2084 47.2813C37.1459 47.3438 37.0365 47.3854 37.0522 47.5052C37.0261 47.5052 36.9949 47.5052 36.9636 47.5052C36.9897 47.401 36.8959 47.3698 36.8386 47.3125C34.7553 45.224 32.6667 43.1406 30.5782 41.0521C30.5313 41.0052 30.4845 40.9635 30.4324 40.9115C30.4011 40.9375 30.3751 40.9531 30.3542 40.974C28.2292 43.1042 26.099 45.2344 23.9688 47.3646C23.9324 47.401 23.9115 47.4583 23.8803 47.5052C23.8647 47.5052 23.849 47.5052 23.8334 47.5052C23.7761 47.4323 23.724 47.3542 23.6563 47.2865C20.2761 43.9063 16.9011 40.526 13.5209 37.151C13.4584 37.0885 13.3959 37.0208 13.323 36.9479C15.5157 34.75 17.7032 32.5677 19.8542 30.4115C18.9688 29.526 18.1042 28.6615 17.2292 27.7865C15.0678 29.9479 12.8855 32.1302 10.698 34.3177C10.6251 34.25 10.573 34.2031 10.5209 34.151C10.2657 33.8906 10.0053 33.6302 9.75008 33.375C6.6355 30.2552 3.52091 27.1406 0.406331 24.026C0.322998 23.9479 0.244873 23.8698 0.166748 23.7917C0.166748 23.776 0.166748 23.7656 0.166748 23.75C0.234456 23.6927 0.307373 23.6458 0.364665 23.5833C3.75008 20.2031 7.1355 16.8177 10.5157 13.4375C10.573 13.3802 10.6303 13.3281 10.698 13.2656C12.8959 15.4583 15.0782 17.6406 17.2449 19.8125C18.1251 18.9323 18.9897 18.0625 19.8699 17.1823C17.7032 15.0156 15.5157 12.8281 13.2917 10.6042C13.3803 10.5313 13.4636 10.4896 13.5261 10.4271C16.8699 7.08333 20.2188 3.73437 23.5626 0.390625C23.6511 0.296874 23.7449 0.213541 23.8334 0.125C23.849 0.125 23.8647 0.125 23.8803 0.125C23.9584 0.203125 24.0313 0.286458 24.1095 0.364583C26.1563 2.40625 28.2032 4.45313 30.2501 6.49479C30.3074 6.55208 30.3699 6.60417 30.4324 6.66667C30.5053 6.60417 30.5626 6.54687 30.6199 6.48958C32.7136 4.39583 34.8074 2.30208 36.9011 0.208333C36.9272 0.182292 36.9428 0.151041 36.9636 0.125C36.9949 0.125 37.0261 0.125 37.0522 0.125Z" fill="#EE8454"/>
</g>
</svg>
