<svg width="60" height="52" viewBox="0 0 60 52" fill="none" xmlns="http://www.w3.org/2000/svg">
<path d="M28.1614 20.9271C28.6718 20.9271 29.0885 20.5104 29.0885 20V11.0521L29.7239 11.9375C29.901 12.1875 30.1875 12.3229 30.4739 12.3229C30.6614 12.3229 30.8489 12.2656 31.0156 12.151C31.4271 11.8542 31.526 11.276 31.2291 10.8594L28.9166 7.625C28.7396 7.38021 28.4583 7.23438 28.1614 7.23438C27.8646 7.23438 27.5833 7.38021 27.4062 7.625L25.0937 10.8594C24.7968 11.276 24.8958 11.8542 25.3125 12.151C25.7239 12.4479 26.3073 12.3542 26.6041 11.9375L27.2343 11.0521V20C27.2343 20.5104 27.651 20.9271 28.1614 20.9271Z" fill="#EE8454"/>
<path d="M24.6353 32.8489C24.177 32.6197 23.6197 32.8072 23.3905 33.2604L20.677 38.677L20.5103 37.5781C20.427 37.0729 19.9582 36.7291 19.453 36.8072C18.9478 36.8854 18.5988 37.3593 18.677 37.8645L19.2915 41.8229C19.3384 42.1197 19.5259 42.3697 19.7863 42.5052C19.9217 42.5729 20.0624 42.6093 20.2082 42.6093C20.354 42.6093 20.4999 42.5729 20.6301 42.5052L24.1301 40.7083C24.5884 40.4739 24.7655 39.9166 24.5311 39.4583C24.2967 39.0052 23.7395 38.8281 23.2863 39.0572L22.3072 39.5625L25.0467 34.0937C25.2759 33.6354 25.0884 33.0781 24.6353 32.8489Z" fill="#EE8454"/>
<path d="M29.8593 41.4375C29.5624 41.8542 29.6613 42.4323 30.078 42.7292L33.2915 45.0209C33.4478 45.1355 33.6353 45.1928 33.828 45.1928C33.927 45.1928 34.0259 45.1771 34.1249 45.1459C34.4061 45.0469 34.6249 44.823 34.7134 44.5365L35.8749 40.7084C36.0207 40.2188 35.7447 39.7032 35.2551 39.5521C34.7655 39.4063 34.2499 39.6823 34.104 40.1719L33.7186 41.4428L30.1822 32.4844C29.9947 32.0105 29.453 31.7761 28.979 31.9636C28.5051 32.1511 28.2707 32.6875 28.4582 33.1615L31.828 41.7084L31.1509 41.224C30.7343 40.9271 30.1561 41.0209 29.8593 41.4375Z" fill="#EE8454"/>
<path d="M32.0363 21.5365C32.1978 21.8542 32.5259 22.0417 32.8593 22.0417C33.0051 22.0417 33.1457 22.0104 33.2811 21.9427L41.1145 17.9635L40.5884 18.9948C40.3593 19.4531 40.5415 20.0104 40.9999 20.2396C41.1301 20.3073 41.2759 20.3385 41.4165 20.3385C41.7551 20.3385 42.078 20.1563 42.2395 19.8333L44.0468 16.276C44.1822 16.0156 44.1822 15.7031 44.052 15.4427C43.9165 15.1823 43.6718 14.9948 43.3801 14.9427L39.5207 14.2604C39.0207 14.1719 38.5415 14.5104 38.4478 15.0104C38.3593 15.5156 38.6978 15.9948 39.1978 16.0833L40.3332 16.2865L32.4426 20.2917C31.9843 20.5208 31.802 21.0781 32.0363 21.5365Z" fill="#EE8454"/>
<path d="M22.5676 26.9374C22.4218 26.4426 21.9061 26.1665 21.4166 26.3124L11.1561 29.3488L11.8541 28.4269C12.1666 28.0207 12.0832 27.4374 11.677 27.1301C11.2707 26.8228 10.6874 26.9009 10.3801 27.3072L7.97906 30.479C7.80198 30.7082 7.7499 31.0103 7.82802 31.2915C7.91136 31.5728 8.11969 31.8019 8.39052 31.9009L12.0676 33.2863C12.177 33.3228 12.2864 33.3436 12.3957 33.3436C12.7707 33.3436 13.1197 33.1145 13.2603 32.7447C13.4426 32.2655 13.1978 31.729 12.7186 31.5519L11.6301 31.1405L21.9426 28.0884C22.4322 27.9426 22.7134 27.4269 22.5676 26.9374Z" fill="#EE8454"/>
<path d="M45.323 41.1563C45.3594 41.6459 45.7657 42.0157 46.25 42.0157C46.2709 42.0157 46.2917 42.0157 46.3125 42.0157L51.8334 41.6302C52.1302 41.6094 52.4011 41.4479 52.5573 41.1979C52.7136 40.9427 52.7396 40.6302 52.625 40.3542L50.573 35.4323C50.375 34.9584 49.8334 34.7344 49.3594 34.9323C48.8907 35.1302 48.6667 35.6719 48.8646 36.1407L49.8073 38.4063L34.0469 28.6407C33.6094 28.375 33.0417 28.5052 32.7709 28.9427C32.5 29.375 32.6355 29.9479 33.0677 30.2188L48.8334 39.9844L46.1875 40.1667C45.6771 40.2032 45.2917 40.6459 45.323 41.1563Z" fill="#EE8454"/>
<path d="M20.2292 16.5574C20.7344 16.4688 21.0677 15.9897 20.9792 15.4845C20.8906 14.9792 20.4115 14.6459 19.9063 14.7345L16.0469 15.4167C15.7604 15.4688 15.5104 15.6563 15.3802 15.9167C15.25 16.1772 15.25 16.4897 15.3854 16.7501L17.1875 20.3074C17.3542 20.6303 17.6771 20.8126 18.0156 20.8126C18.1563 20.8126 18.2969 20.7813 18.4323 20.7136C18.8906 20.4845 19.0729 19.9272 18.8386 19.4688L18.3177 18.4376L23.3125 20.974C23.4479 21.0417 23.5938 21.073 23.7344 21.073C24.0729 21.073 24.3958 20.8907 24.5573 20.5678C24.7917 20.1095 24.6094 19.5574 24.1511 19.323L19.099 16.7605L20.2292 16.5574Z" fill="#EE8454"/>
<path d="M28.1614 30.0886C30.203 30.0886 31.8645 28.4324 31.8645 26.3855C31.8645 24.3438 30.203 22.6824 28.1614 22.6824C26.1197 22.6824 24.4583 24.3438 24.4583 26.3855C24.4583 28.4324 26.1197 30.0886 28.1614 30.0886ZM28.1614 24.5365C29.1822 24.5365 30.0103 25.3647 30.0103 26.3855C30.0103 27.4115 29.1822 28.2397 28.1614 28.2397C27.1405 28.2397 26.3072 27.4115 26.3072 26.3855C26.3072 25.3647 27.1405 24.5365 28.1614 24.5365Z" fill="#EE8454"/>
<path d="M30.9376 2.78125C30.9376 1.24479 29.698 0 28.1615 0C26.6303 0 25.3855 1.24479 25.3855 2.78125C25.3855 4.3125 26.6303 5.55729 28.1615 5.55729C29.698 5.55729 30.9376 4.3125 30.9376 2.78125ZM27.2345 2.78125C27.2345 2.27083 27.6511 1.85417 28.1615 1.85417C28.672 1.85417 29.0886 2.27083 29.0886 2.78125C29.0886 3.29167 28.672 3.70313 28.1615 3.70313C27.6511 3.70313 27.2345 3.29167 27.2345 2.78125Z" fill="#EE8454"/>
<path d="M17.974 49.5313C19.5105 49.5313 20.7553 48.2917 20.7553 46.7553C20.7553 45.224 19.5105 43.9792 17.974 43.9792C16.4428 43.9792 15.198 45.224 15.198 46.7553C15.198 48.2917 16.4428 49.5313 17.974 49.5313ZM17.974 45.8282C18.4845 45.8282 18.9011 46.2449 18.9011 46.7553C18.9011 47.2657 18.4845 47.6824 17.974 47.6824C17.4636 47.6824 17.0522 47.2657 17.0522 46.7553C17.0522 46.2449 17.4636 45.8282 17.974 45.8282Z" fill="#EE8454"/>
<mask id="mask0_4887_8854" style="mask-type:luminance" maskUnits="userSpaceOnUse" x="32" y="45" width="8" height="7">
<path d="M32.6667 45.3333H39.3334V51.9739H32.6667V45.3333Z" fill="white"/>
</mask>
<g mask="url(#mask0_4887_8854)">
<path d="M36.4949 51.8488C38.0261 51.8488 39.2709 50.604 39.2709 49.0675C39.2709 47.5363 38.0261 46.2915 36.4949 46.2915C34.9584 46.2915 33.7136 47.5363 33.7136 49.0675C33.7136 50.604 34.9584 51.8488 36.4949 51.8488ZM36.4949 48.1457C37.0053 48.1457 37.4167 48.5623 37.4167 49.0675C37.4167 49.578 37.0053 49.9946 36.4949 49.9946C35.9845 49.9946 35.5678 49.578 35.5678 49.0675C35.5678 48.5623 35.9845 48.1457 36.4949 48.1457Z" fill="#EE8454"/>
</g>
<mask id="mask1_4887_8854" style="mask-type:luminance" maskUnits="userSpaceOnUse" x="0" y="29" width="6" height="7">
<path d="M0.385498 29.3333H6.00008V35.9999H0.385498V29.3333Z" fill="white"/>
</mask>
<g mask="url(#mask1_4887_8854)">
<path d="M3.16154 35.8019C4.698 35.8019 5.94279 34.5571 5.94279 33.0207C5.94279 31.4894 4.698 30.2446 3.16154 30.2446C1.63029 30.2446 0.385498 31.4894 0.385498 33.0207C0.385498 34.5571 1.63029 35.8019 3.16154 35.8019ZM3.16154 32.0988C3.67196 32.0988 4.08862 32.5103 4.08862 33.0207C4.08862 33.5311 3.67196 33.9478 3.16154 33.9478C2.65112 33.9478 2.23966 33.5311 2.23966 33.0207C2.23966 32.5103 2.65112 32.0988 3.16154 32.0988Z" fill="#EE8454"/>
</g>
<path d="M8.71875 13.4272C8.71875 14.9584 9.96354 16.2032 11.4948 16.2032C13.0313 16.2032 14.2708 14.9584 14.2708 13.4272C14.2708 11.8907 13.0313 10.6511 11.4948 10.6511C9.96354 10.6511 8.71875 11.8907 8.71875 13.4272ZM12.4219 13.4272C12.4219 13.9376 12.0052 14.3542 11.4948 14.3542C10.9844 14.3542 10.5677 13.9376 10.5677 13.4272C10.5677 12.9167 10.9844 12.5001 11.4948 12.5001C12.0052 12.5001 12.4219 12.9167 12.4219 13.4272Z" fill="#EE8454"/>
<path d="M51.3073 13.4272C51.3073 11.8907 50.0625 10.6511 48.526 10.6511C46.9948 10.6511 45.75 11.8907 45.75 13.4272C45.75 14.9584 46.9948 16.2032 48.526 16.2032C50.0625 16.2032 51.3073 14.9584 51.3073 13.4272ZM47.6042 13.4272C47.6042 12.9167 48.0156 12.5001 48.526 12.5001C49.0365 12.5001 49.4531 12.9167 49.4531 13.4272C49.4531 13.9376 49.0365 14.3542 48.526 14.3542C48.0156 14.3542 47.6042 13.9376 47.6042 13.4272Z" fill="#EE8454"/>
<mask id="mask2_4887_8854" style="mask-type:luminance" maskUnits="userSpaceOnUse" x="54" y="40" width="6" height="7">
<path d="M54 40H59.3594V46.6667H54V40Z" fill="white"/>
</mask>
<g mask="url(#mask2_4887_8854)">
<path d="M56.8593 40.2761C55.328 40.2761 54.0833 41.5209 54.0833 43.0522C54.0833 44.5886 55.328 45.8282 56.8593 45.8282C58.3958 45.8282 59.6405 44.5886 59.6405 43.0522C59.6405 41.5209 58.3958 40.2761 56.8593 40.2761ZM56.8593 43.9792C56.3489 43.9792 55.9322 43.5626 55.9322 43.0522C55.9322 42.5417 56.3489 42.1251 56.8593 42.1251C57.3697 42.1251 57.7864 42.5417 57.7864 43.0522C57.7864 43.5626 57.3697 43.9792 56.8593 43.9792Z" fill="#EE8454"/>
</g>
</svg>
