<svg width="48" height="51" viewBox="0 0 48 51" fill="none" xmlns="http://www.w3.org/2000/svg">
<path d="M21.6406 41.5939L18.2708 42.9272L17.2968 40.4741L20.6666 39.1355C20.8281 39.073 20.9895 39.0418 21.1562 39.0418C21.3333 39.0418 21.5104 39.0782 21.677 39.1512C22.0052 39.2918 22.2552 39.5522 22.3854 39.8803C22.651 40.5574 22.3177 41.323 21.6406 41.5939ZM13.4583 44.8334C13.1302 44.9637 12.7708 44.9637 12.4479 44.8178C12.1249 44.6772 11.8749 44.422 11.7447 44.0939C11.6145 43.7657 11.6197 43.4064 11.7604 43.0834C11.901 42.7605 12.1562 42.5105 12.4843 42.3803L15.8593 41.0418L16.8281 43.5001L13.4583 44.8334ZM23.8229 39.3074C23.5416 38.5939 22.9947 38.0366 22.2916 37.7345C21.5937 37.4324 20.8124 37.4168 20.0989 37.698L11.9166 40.9428C11.2031 41.2241 10.6406 41.7657 10.3385 42.4689C10.0364 43.172 10.0208 43.9532 10.3072 44.6616C10.5885 45.3751 11.1302 45.9376 11.8333 46.2397C12.1979 46.3959 12.5833 46.4793 12.9687 46.4793C13.3281 46.4793 13.6874 46.4116 14.026 46.2762L22.2135 43.0314C23.6822 42.448 24.4062 40.7814 23.8229 39.3074Z" fill="#EE8454"/>
<path d="M34.6198 41.7708C34.1719 42.3489 33.3437 42.4531 32.7656 42.0052L29.8958 39.7864L31.5104 37.6979L34.3802 39.9166C34.9583 40.3645 35.0625 41.1979 34.6198 41.7708ZM25.8021 36.6197C25.2291 36.177 25.125 35.3437 25.5677 34.7708C25.7812 34.4895 26.0937 34.3124 26.4427 34.2656C26.5 34.2604 26.5573 34.2552 26.6146 34.2552C26.9062 34.2552 27.1875 34.3541 27.4219 34.5312L30.2864 36.7499L28.6719 38.8437L25.8021 36.6197ZM35.3281 38.6927L31.8489 35.9999L28.3646 33.3072C27.7604 32.8385 27.0104 32.6354 26.25 32.7291C25.4896 32.8281 24.8125 33.2135 24.3437 33.8229C23.375 35.0729 23.6041 36.8802 24.8541 37.8437L31.8177 43.2343C32.3385 43.6354 32.9583 43.8333 33.5729 43.8333C34.4271 43.8333 35.2812 43.4479 35.8437 42.7187C36.8125 41.4687 36.5781 39.6614 35.3281 38.6927Z" fill="#EE8454"/>
<mask id="mask0_4887_8851" style="mask-type:luminance" maskUnits="userSpaceOnUse" x="20" y="43" width="17" height="8">
<path d="M20.3333 43H36.3333V50.1563H20.3333V43Z" fill="white"/>
</mask>
<g mask="url(#mask0_4887_8851)">
<path d="M32.4165 48.1719H28.7915V45.5313H32.4165C33.1457 45.5313 33.7342 46.125 33.7342 46.849C33.7342 47.5781 33.1457 48.1719 32.4165 48.1719ZM27.2394 48.1719H23.6144C22.8853 48.1719 22.2915 47.5781 22.2915 46.849C22.2915 46.125 22.8853 45.5313 23.6144 45.5313H27.2394V48.1719ZM32.4165 43.9844H23.6144C22.0311 43.9844 20.7446 45.2708 20.7446 46.849C20.7446 48.4323 22.0311 49.7188 23.6144 49.7188H32.4165C33.9998 49.7188 35.2863 48.4323 35.2863 46.849C35.2863 45.2708 33.9998 43.9844 32.4165 43.9844Z" fill="#EE8454"/>
</g>
<mask id="mask1_4887_8851" style="mask-type:luminance" maskUnits="userSpaceOnUse" x="37" y="40" width="11" height="11">
<path d="M37.6667 40.3333H47.3542V50.1562H37.6667V40.3333Z" fill="white"/>
</mask>
<g mask="url(#mask1_4887_8851)">
<path d="M44.5937 47.4113C43.9844 47.9478 43.1927 48.2238 42.3854 48.1665C41.8333 48.1301 41.3281 47.9426 40.8802 47.6405L45.3021 43.7603C45.9062 44.9686 45.6562 46.479 44.5937 47.4113ZM39.5312 44.9217C39.5833 44.1092 39.9531 43.3645 40.5625 42.828C41.1406 42.3176 41.8594 42.0676 42.5781 42.0676C43.1771 42.0676 43.7708 42.2499 44.2812 42.5936L39.8594 46.479C39.6198 45.9999 39.5 45.4686 39.5312 44.9217ZM46.0364 42.0832C44.3594 40.177 41.4479 39.9895 39.5417 41.6613C38.6198 42.4738 38.0677 43.5988 37.9896 44.8228C37.9114 46.052 38.3125 47.2342 39.125 48.1561C39.9375 49.078 41.0573 49.6301 42.2864 49.7082C42.3854 49.7186 42.4844 49.7186 42.5833 49.7186C43.7031 49.7186 44.7708 49.3176 45.6198 48.5728C47.5208 46.9009 47.7083 43.9895 46.0364 42.0832Z" fill="#EE8454"/>
</g>
<path d="M36.8646 35.8957L42.7135 35.2655C42.6354 35.7967 42.4271 36.3019 42.0833 36.729C41.5729 37.3592 40.8437 37.7603 40.0312 37.8488C39.2187 37.9322 38.4218 37.6978 37.7916 37.1874C37.3646 36.8436 37.0521 36.3957 36.8646 35.8957ZM36.6979 34.354C36.776 33.828 36.9843 33.3228 37.3281 32.8957C37.8437 32.2603 38.5729 31.8644 39.3802 31.7759C39.4896 31.7655 39.5989 31.7603 39.7083 31.7603C40.9843 31.7603 42.1041 32.5624 42.5468 33.729L36.6979 34.354ZM40.1979 39.3853C41.4166 39.2551 42.5156 38.6561 43.2864 37.6978C44.0573 36.7394 44.4114 35.5415 44.2812 34.3176C44.0104 31.7967 41.7291 29.9738 39.2135 30.2342C37.9948 30.3697 36.8958 30.9686 36.125 31.9217C35.3541 32.8801 35 34.078 35.1302 35.3019C35.2656 36.5259 35.8593 37.6197 36.8177 38.3905C37.6458 39.0572 38.651 39.4113 39.6979 39.4113C39.8646 39.4113 40.0312 39.4061 40.1979 39.3853Z" fill="#EE8454"/>
<path d="M24.5885 43.2865C25.6354 43.2865 26.6458 42.9636 27.4948 42.349C27.8437 42.099 27.9219 41.6146 27.6719 41.2657C27.4219 40.9219 26.9375 40.8438 26.5885 41.0938C26.0052 41.5157 25.3125 41.7396 24.5885 41.7396C24.1563 41.7396 23.8125 42.0834 23.8125 42.5104C23.8125 42.9375 24.1563 43.2865 24.5885 43.2865Z" fill="#EE8454"/>
<mask id="mask2_4887_8851" style="mask-type:luminance" maskUnits="userSpaceOnUse" x="0" y="0" width="30" height="45">
<path d="M0.375 0.182373H29.6667V44.3334H0.375V0.182373Z" fill="white"/>
</mask>
<g mask="url(#mask2_4887_8851)">
<path d="M5.13542 5.14071V1.72925H24.8385V5.14071H19.7344C19.3073 5.14071 18.9583 5.48967 18.9583 5.91675C18.9583 6.34383 19.3073 6.68758 19.7344 6.68758H20.25V9.16675H9.72396V6.68758H17.1354C17.5625 6.68758 17.9115 6.34383 17.9115 5.91675C17.9115 5.48967 17.5625 5.14071 17.1354 5.14071H5.13542ZM8.50521 41.7397H5.39063C3.49479 41.7397 1.95833 40.198 1.95833 38.3022V36.4011H22.2448C22.6719 36.4011 23.0156 36.0574 23.0156 35.6303C23.0156 35.198 22.6719 34.8542 22.2448 34.8542H1.95833V19.1563H5.42188C5.84896 19.1563 6.19271 18.8126 6.19271 18.3855C6.19271 17.9584 5.84896 17.6095 5.42188 17.6095H1.95833V14.1459C1.95833 12.2553 3.49479 10.7136 5.39063 10.7136H24.5885C26.4792 10.7136 28.0208 12.2553 28.0208 14.1459V17.6095H8.07813C7.64583 17.6095 7.30208 17.9584 7.30208 18.3855C7.30208 18.8126 7.64583 19.1563 8.07813 19.1563H28.0208V31.474C28.0208 31.9011 28.3646 32.2501 28.7917 32.2501C29.2188 32.2501 29.5677 31.9011 29.5677 31.474V14.1459C29.5677 11.4011 27.3333 9.16675 24.5885 9.16675H21.7969V6.68758H25.6094C26.0365 6.68758 26.3854 6.34383 26.3854 5.91675V0.953206C26.3854 0.526122 26.0365 0.182373 25.6094 0.182373H4.36458C3.9375 0.182373 3.58854 0.526122 3.58854 0.953206V5.91675C3.58854 6.34383 3.9375 6.68758 4.36458 6.68758H8.17708V9.16675H5.39063C2.64063 9.16675 0.40625 11.4011 0.40625 14.1459V38.3022C0.40625 41.0522 2.64063 43.2865 5.39063 43.2865H8.50521C8.93229 43.2865 9.27604 42.9376 9.27604 42.5105C9.27604 42.0834 8.93229 41.7397 8.50521 41.7397Z" fill="#EE8454"/>
</g>
<path d="M11.0626 28.1147V25.8595H13.0886C13.5157 25.8595 13.8595 25.5105 13.8595 25.0834V23.0574H16.1147V25.0834C16.1147 25.5105 16.4636 25.8595 16.8907 25.8595H18.9167V28.1147H16.8907C16.4636 28.1147 16.1147 28.4584 16.1147 28.8855V30.9115H13.8595V28.8855C13.8595 28.4584 13.5157 28.1147 13.0886 28.1147H11.0626ZM13.0886 32.4584H16.8907C17.3178 32.4584 17.6615 32.1147 17.6615 31.6876V29.6615H19.6876C20.1147 29.6615 20.4636 29.3126 20.4636 28.8855V25.0834C20.4636 24.6563 20.1147 24.3126 19.6876 24.3126H17.6615V22.2865C17.6615 21.8542 17.3178 21.5105 16.8907 21.5105H13.0886C12.6615 21.5105 12.3126 21.8542 12.3126 22.2865V24.3126H10.2865C9.85946 24.3126 9.5105 24.6563 9.5105 25.0834V28.8855C9.5105 29.3126 9.85946 29.6615 10.2865 29.6615H12.3126V31.6876C12.3126 32.1147 12.6615 32.4584 13.0886 32.4584Z" fill="#EE8454"/>
</svg>
