<svg width="45" height="51" viewBox="0 0 45 51" fill="none" xmlns="http://www.w3.org/2000/svg">
<mask id="mask0_4887_7303" style="mask-type:luminance" maskUnits="userSpaceOnUse" x="0" y="0" width="45" height="51">
<path d="M0.104248 0.5H44.0834V50.4792H0.104248V0.5Z" fill="white"/>
</mask>
<g mask="url(#mask0_4887_7303)">
<path fill-rule="evenodd" clip-rule="evenodd" d="M1.03646 6.45841C6.77083 5.79175 11.7708 3.23967 15.5938 0.510498H28.4271C32.2552 3.23967 37.2552 5.79175 42.9896 6.45841C43.5208 6.52091 43.9167 6.96883 43.9167 7.50008V25.6876C43.9167 38.0365 31.3802 48.4115 22.0104 50.922C12.6458 48.4115 0.109375 38.0365 0.109375 25.6876V7.50008C0.109375 6.96883 0.505208 6.52091 1.03646 6.45841ZM20.1563 16.099C19.5781 16.099 19.1042 16.573 19.1042 17.1511V20.7084H15.5469C14.9688 20.7084 14.4948 21.1772 14.4948 21.7553V25.474C14.4948 26.0522 14.9688 26.5261 15.5469 26.5261H19.1042V30.0782C19.1042 30.6563 19.5781 31.1303 20.1563 31.1303H23.8698C24.4479 31.1303 24.9219 30.6563 24.9219 30.0782V26.5261H28.474C29.0573 26.5261 29.526 26.0522 29.526 25.474V21.7553C29.526 21.1772 29.0573 20.7084 28.474 20.7084H24.9219V17.1511C24.9219 16.573 24.4479 16.099 23.8698 16.099H20.1563ZM22.0104 10.4897C14.7656 10.4897 8.88542 16.3647 8.88542 23.6147C8.88542 30.8647 14.7656 36.7397 22.0104 36.7397C29.2604 36.7397 35.1354 30.8647 35.1354 23.6147C35.1354 16.3647 29.2604 10.4897 22.0104 10.4897ZM22.0104 47.3751C26.3958 45.9532 30.8021 42.922 33.9896 39.6251C37.599 35.8959 40.4844 31.0105 40.4844 25.6876V9.53133C35.7708 8.60425 31.3229 6.573 27.3542 3.90112H16.6719C12.6979 6.573 8.25 8.60425 3.54167 9.53133V25.6876C3.54167 31.0105 6.42187 35.8959 10.0313 39.6251C13.2187 42.922 17.625 45.9532 22.0104 47.3751ZM22.2396 48.8438C26.9375 47.3751 31.6406 44.1615 35.0469 40.6407C38.9271 36.6303 41.9531 31.4011 41.9531 25.6876V8.92196C41.9531 8.55216 41.6771 8.24487 41.3177 8.198C36.5104 7.34383 32.0104 5.29696 27.9896 2.56258C27.8646 2.47404 27.7187 2.43237 27.5781 2.43237H16.4479C16.276 2.43237 16.1198 2.48967 15.9948 2.58862C11.974 5.31779 7.48437 7.35425 2.68229 8.198C2.32292 8.2605 2.07292 8.573 2.07292 8.92196V25.6876C2.07292 31.4011 5.09896 36.6303 8.97396 40.6407C12.3802 44.1667 17.0885 47.3803 21.7917 48.8438C21.9427 48.8907 22.099 48.8855 22.2396 48.8438Z" fill="#EE8454"/>
</g>
</svg>
