<svg width="31" height="44" viewBox="0 0 31 44" fill="none" xmlns="http://www.w3.org/2000/svg">
<path d="M15.9635 24.151C15.9635 24.328 15.901 24.4791 15.776 24.6041C15.651 24.7291 15.4999 24.7916 15.3228 24.7916C15.1458 24.7916 14.9947 24.7291 14.8645 24.6041C14.7395 24.4791 14.677 24.328 14.677 24.151C14.677 23.9739 14.7395 23.8176 14.8645 23.6926C14.9947 23.5676 15.1458 23.5051 15.3228 23.5051C15.4999 23.5051 15.651 23.5676 15.776 23.6926C15.901 23.8176 15.9635 23.9739 15.9635 24.151Z" fill="#EE8454"/>
<path d="M15.9635 26.6927C15.9635 26.8698 15.901 27.0208 15.776 27.1458C15.651 27.2708 15.4999 27.3333 15.3228 27.3333C15.1458 27.3333 14.9947 27.2708 14.8645 27.1458C14.7395 27.0208 14.677 26.8698 14.677 26.6927C14.677 26.5156 14.7395 26.3594 14.8645 26.2344C14.9947 26.1094 15.1458 26.0469 15.3228 26.0469C15.4999 26.0469 15.651 26.1094 15.776 26.2344C15.901 26.3594 15.9635 26.5156 15.9635 26.6927Z" fill="#EE8454"/>
<mask id="mask0_4887_8853" style="mask-type:luminance" maskUnits="userSpaceOnUse" x="0" y="0" width="31" height="44">
<path d="M0.375 0.119873H30.3594V43.099H0.375V0.119873Z" fill="white"/>
</mask>
<g mask="url(#mask0_4887_8853)">
<path d="M19.8332 20.2449L22.6145 17.7084L23.9426 16.5001C26.3541 14.3282 27.5468 11.3855 27.5936 7.48966V4.21883H29.6093C29.7916 4.22404 29.9426 4.16154 30.0728 4.03654C30.203 3.91154 30.2655 3.75529 30.2655 3.573V0.791748C30.2655 0.614665 30.203 0.463623 30.078 0.338623C29.953 0.213623 29.802 0.151123 29.6249 0.151123H1.03114C0.85406 0.151123 0.697811 0.213623 0.572811 0.338623C0.447811 0.463623 0.385311 0.614665 0.385311 0.791748V3.573C0.385311 3.75529 0.447811 3.90633 0.572811 4.03133C0.697811 4.15633 0.85406 4.21883 1.03114 4.21883H3.04677V7.47925C3.09364 11.3647 4.29156 14.3074 6.69781 16.474L8.24469 17.8855L10.8124 20.2292C11.3801 20.6563 11.6926 21.224 11.7447 21.9324C11.677 22.6615 11.3436 23.2449 10.7551 23.6772L6.68739 27.3907C4.28114 29.5574 3.08843 32.5001 3.03635 36.3959V39.2345H1.03114C0.848852 39.2345 0.697812 39.297 0.567602 39.4272C0.442602 39.5574 0.380103 39.7136 0.385311 39.8907V42.6772C0.385311 42.8542 0.447811 43.0053 0.572811 43.1303C0.697811 43.2553 0.85406 43.3178 1.03114 43.3178H29.6093C29.7916 43.323 29.9478 43.2605 30.078 43.1303C30.2082 43.0001 30.2707 42.8438 30.2655 42.6615V39.8907C30.2655 39.7136 30.203 39.5626 30.078 39.4376C29.953 39.3126 29.802 39.2501 29.6249 39.2501H27.5936V36.3855C27.5468 32.5001 26.3541 29.5574 23.9426 27.3907L19.8749 23.672C19.2864 23.2397 18.9582 22.6667 18.8905 21.9428C18.953 21.2345 19.2655 20.672 19.8332 20.2449ZM17.6041 21.948C17.6666 23.0574 18.1353 23.948 19.0103 24.6303L23.0624 28.3438C25.2239 30.2865 26.2499 32.849 26.2916 36.3959V39.2345H4.33323V36.4011C4.3801 32.849 5.40094 30.2865 7.56239 28.3438L11.6301 24.6355C12.5103 23.948 12.9843 23.047 13.0416 21.9324C12.9895 20.849 12.5311 19.9792 11.6718 19.3126L9.10406 16.9688L7.55719 15.5574C5.40094 13.6147 4.3801 11.0522 4.33323 7.50529V4.21883H26.3072V7.47925C26.2655 11.0313 25.2395 13.5938 23.078 15.5365C22.6301 15.9376 22.1926 16.3438 21.7447 16.7553L18.9478 19.3126C18.1041 19.9897 17.6561 20.8699 17.6041 21.948Z" fill="#EE8454"/>
</g>
<path d="M23.7917 12.6251C23.9479 12.3491 23.9219 12.0938 23.6979 11.8647C23.4792 11.6251 23.2292 11.5834 22.9427 11.7345C20.4062 13.0261 19.4531 13.5105 15.5156 12.2501C14.2552 11.8386 12.9635 11.6772 11.6406 11.7657C10.3177 11.8543 9.05728 12.1876 7.85937 12.7657C7.67708 12.8543 7.55728 12.9949 7.51041 13.198C7.46353 13.3959 7.5052 13.5782 7.6302 13.7397C7.87499 14.0366 13.474 19.4011 13.526 19.4011C13.9531 19.8907 14.1927 20.4584 14.2448 21.1043C14.2812 21.3751 14.4062 21.5991 14.6198 21.7709C14.8333 21.9428 15.0729 22.0209 15.349 22.0001C15.6094 22.0261 15.8385 21.9532 16.0417 21.7866C16.2396 21.6199 16.3542 21.4063 16.375 21.1459C16.4792 20.2918 16.8542 19.5886 17.5104 19.0313C17.5937 18.9532 17.9583 18.6095 18.4427 18.1407C19.651 16.9897 21.6562 15.0522 22.2031 14.5678C22.8385 14.0053 23.3646 13.3595 23.7917 12.6251Z" fill="#EE8454"/>
<path d="M6.46344 37.1771C6.45823 37.3594 6.52073 37.5156 6.65094 37.6458C6.77594 37.776 6.93218 37.8385 7.11448 37.8333H23.5311C23.7082 37.8333 23.8645 37.7708 23.9895 37.6458C24.1145 37.5208 24.177 37.3698 24.177 37.1927C24.1614 36.6198 24.0936 36.0521 23.9686 35.4948C23.8489 34.9323 23.6718 34.3906 23.4426 33.8698C23.2134 33.3437 22.9374 32.8437 22.6093 32.375C22.2864 31.901 21.9166 31.4635 21.5103 31.0677C21.0989 30.6667 20.6509 30.3073 20.177 29.9948C19.6978 29.6823 19.1926 29.4167 18.6614 29.1979C18.1301 28.9844 17.5832 28.8229 17.0207 28.7083C16.4582 28.599 15.8905 28.5469 15.3176 28.5469C14.7447 28.5469 14.177 28.599 13.6145 28.7083C13.0572 28.8229 12.5103 28.9844 11.9791 29.1979C11.4478 29.4167 10.9426 29.6823 10.4634 29.9948C9.98427 30.3073 9.54156 30.6667 9.1301 31.0677C8.71864 31.4635 8.35406 31.901 8.02594 32.375C7.70302 32.8437 7.42698 33.3437 7.19781 33.8698C6.96864 34.3906 6.79156 34.9323 6.66656 35.4948C6.54677 36.0521 6.47385 36.6198 6.46344 37.1927V37.1771Z" fill="#EE8454"/>
</svg>
