<svg width="148" height="131" viewBox="0 0 148 131" fill="none" xmlns="http://www.w3.org/2000/svg">
<mask id="mask0_4865_12586" style="mask-type:luminance" maskUnits="userSpaceOnUse" x="0" y="12" width="148" height="119">
<path d="M0.010498 12.6666H147.943V130.255H0.010498V12.6666Z" fill="white"/>
</mask>
<g mask="url(#mask0_4865_12586)">
<path d="M147.896 130.255H0.057373V13.0573H147.896V130.255Z" fill="#EAEAE8"/>
</g>
<mask id="mask1_4865_12586" style="mask-type:luminance" maskUnits="userSpaceOnUse" x="0" y="12" width="58" height="119">
<path d="M0.010498 12.6666H57.3334V130.255H0.010498V12.6666Z" fill="white"/>
</mask>
<g mask="url(#mask1_4865_12586)">
<path d="M56.1355 130.255H0.057373V13.0573H56.1355V130.255Z" fill="#FBB540"/>
</g>
<path d="M45.9374 104.776H10.2551V74.2031H45.9374V104.776Z" fill="#D18D28"/>
<path d="M33.1927 84.3958L28.0938 81.849L23 84.3958V74.2031H33.1927V84.3958Z" fill="#FF3444"/>
<path d="M33.1928 97.1355H23.0001C21.5886 97.1355 20.448 95.9948 20.448 94.5886C20.448 93.1771 21.5886 92.0365 23.0001 92.0365H33.1928C34.599 92.0365 35.7449 93.1771 35.7449 94.5886C35.7449 95.9948 34.599 97.1355 33.1928 97.1355Z" fill="#97661D"/>
<path d="M68.8801 53.823C68.8801 49.599 72.302 46.1771 76.526 46.1771C80.7499 46.1771 84.1718 49.599 84.1718 53.823C84.1718 58.0417 80.7499 61.4636 76.526 61.4636C72.302 61.4636 68.8801 58.0417 68.8801 53.823Z" fill="#CBCBCB"/>
<path d="M94.3699 53.823C94.3699 49.599 97.7917 46.1771 102.016 46.1771C106.24 46.1771 109.662 49.599 109.662 53.823C109.662 58.0417 106.24 61.4636 102.016 61.4636C97.7917 61.4636 94.3699 58.0417 94.3699 53.823Z" fill="#CBCBCB"/>
<path d="M119.859 53.823C119.859 49.599 123.281 46.1771 127.505 46.1771C131.729 46.1771 135.151 49.599 135.151 53.823C135.151 58.0417 131.729 61.4636 127.505 61.4636C123.281 61.4636 119.859 58.0417 119.859 53.823Z" fill="#CBCBCB"/>
<path d="M68.8801 79.3021C68.8801 75.0781 72.302 71.6562 76.526 71.6562C80.7499 71.6562 84.1718 75.0781 84.1718 79.3021C84.1718 83.5208 80.7499 86.9427 76.526 86.9427C72.302 86.9427 68.8801 83.5208 68.8801 79.3021Z" fill="#CBCBCB"/>
<path d="M94.3699 79.3021C94.3699 75.0781 97.7917 71.6562 102.016 71.6562C106.24 71.6562 109.662 75.0781 109.662 79.3021C109.662 83.5208 106.24 86.9427 102.016 86.9427C97.7917 86.9427 94.3699 83.5208 94.3699 79.3021Z" fill="#EA9D2D"/>
<path d="M119.859 79.3021C119.859 75.0781 123.281 71.6562 127.505 71.6562C131.729 71.6562 135.151 75.0781 135.151 79.3021C135.151 83.5208 131.729 86.9427 127.505 86.9427C123.281 86.9427 119.859 83.5208 119.859 79.3021Z" fill="#FBB540"/>
<path d="M68.8801 104.776C68.8801 100.557 72.302 97.1354 76.526 97.1354C80.7499 97.1354 84.1718 100.557 84.1718 104.776C84.1718 109 80.7499 112.422 76.526 112.422C72.302 112.422 68.8801 109 68.8801 104.776Z" fill="#FBB540"/>
<path d="M94.3699 104.776C94.3699 100.557 97.7917 97.1354 102.016 97.1354C106.24 97.1354 109.662 100.557 109.662 104.776C109.662 109 106.24 112.422 102.016 112.422C97.7917 112.422 94.3699 109 94.3699 104.776Z" fill="#CBCBCB"/>
<path d="M119.859 104.776C119.859 100.557 123.281 97.1354 127.505 97.1354C131.729 97.1354 135.151 100.557 135.151 104.776C135.151 109 131.729 112.422 127.505 112.422C123.281 112.422 119.859 109 119.859 104.776Z" fill="#FBB540"/>
<path d="M102.016 81.849C101.359 81.849 100.708 81.599 100.213 81.099L95.1145 76.0053C94.1197 75.0105 94.1197 73.3959 95.1145 72.4011C96.1093 71.4063 97.7239 71.4063 98.7187 72.4011L102.172 75.8542L115.677 64.6042C116.76 63.7032 118.365 63.849 119.266 64.9323C120.167 66.0105 120.021 67.6198 118.943 68.5157L103.646 81.2553C103.172 81.6511 102.594 81.849 102.016 81.849Z" fill="#02A437"/>
<path d="M15.3489 51.2761C15.3489 44.2396 21.0572 38.5365 28.0937 38.5365C35.1353 38.5365 40.8385 44.2396 40.8385 51.2761C40.8385 58.3073 35.1353 64.0157 28.0937 64.0157C21.0572 64.0157 15.3489 58.3073 15.3489 51.2761Z" fill="#EAEAE8"/>
<path d="M33.1927 56.3698C32.8073 56.3698 32.4219 56.2865 32.0521 56.099L26.9531 53.5521C26.0937 53.1198 25.5469 52.2396 25.5469 51.2761V46.1771C25.5469 44.7709 26.6875 43.6302 28.0938 43.6302C29.5052 43.6302 30.6458 44.7709 30.6458 46.1771V49.698L34.3333 51.5417C35.5937 52.1719 36.1042 53.7032 35.474 54.9636C35.026 55.8542 34.125 56.3698 33.1927 56.3698Z" fill="#CBCBCB"/>
<mask id="mask2_4865_12586" style="mask-type:luminance" maskUnits="userSpaceOnUse" x="14" y="0" width="13" height="22">
<path d="M14.6667 0.317749H26.6667V22H14.6667V0.317749Z" fill="white"/>
</mask>
<g mask="url(#mask2_4865_12586)">
<path d="M20.4481 20.7032C17.6356 20.7032 15.3491 18.4219 15.3491 15.6042V5.41671C15.3491 2.599 17.6356 0.317749 20.4481 0.317749C23.2658 0.317749 25.547 2.599 25.547 5.41671V15.6042C25.547 18.4219 23.2658 20.7032 20.4481 20.7032Z" fill="#B9B9B9"/>
</g>
<mask id="mask3_4865_12586" style="mask-type:luminance" maskUnits="userSpaceOnUse" x="50" y="0" width="12" height="22">
<path d="M50.6667 0.317749H61.3334V22H50.6667V0.317749Z" fill="white"/>
</mask>
<g mask="url(#mask3_4865_12586)">
<path d="M56.1356 20.7032C53.3179 20.7032 51.0366 18.4219 51.0366 15.6042V5.41671C51.0366 2.599 53.3179 0.317749 56.1356 0.317749C58.9481 0.317749 61.2345 2.599 61.2345 5.41671V15.6042C61.2345 18.4219 58.9481 20.7032 56.1356 20.7032Z" fill="#B9B9B9"/>
</g>
<mask id="mask4_4865_12586" style="mask-type:luminance" maskUnits="userSpaceOnUse" x="86" y="0" width="12" height="22">
<path d="M86.6667 0.317749H97.3334V22H86.6667V0.317749Z" fill="white"/>
</mask>
<g mask="url(#mask4_4865_12586)">
<path d="M91.8179 20.7032C89.0054 20.7032 86.7241 18.4219 86.7241 15.6042V5.41671C86.7241 2.599 89.0054 0.317749 91.8179 0.317749C94.6356 0.317749 96.9168 2.599 96.9168 5.41671V15.6042C96.9168 18.4219 94.6356 20.7032 91.8179 20.7032Z" fill="#B9B9B9"/>
</g>
<mask id="mask5_4865_12586" style="mask-type:luminance" maskUnits="userSpaceOnUse" x="121" y="0" width="13" height="22">
<path d="M121.333 0.317749H133.333V22H121.333V0.317749Z" fill="white"/>
</mask>
<g mask="url(#mask5_4865_12586)">
<path d="M127.505 20.7032C124.688 20.7032 122.406 18.4219 122.406 15.6042V5.41671C122.406 2.599 124.688 0.317749 127.505 0.317749C130.323 0.317749 132.604 2.599 132.604 5.41671V15.6042C132.604 18.4219 130.323 20.7032 127.505 20.7032Z" fill="#B9B9B9"/>
</g>
<mask id="mask6_4865_12586" style="mask-type:luminance" maskUnits="userSpaceOnUse" x="14" y="0" width="13" height="20">
<path d="M14.6667 0.317749H26.6667V19.3334H14.6667V0.317749Z" fill="white"/>
</mask>
<g mask="url(#mask6_4865_12586)">
<path d="M25.547 5.41671V13.0573C25.547 15.875 23.2658 18.1511 20.4481 18.1511C17.6304 18.1511 15.3491 15.875 15.3491 13.0573V5.41671C15.3491 2.599 17.6304 0.317749 20.4481 0.317749C21.8543 0.317749 23.1304 0.890666 24.0575 1.80733C24.9793 2.73442 25.547 4.00525 25.547 5.41671Z" fill="#B9B9B9"/>
</g>
<mask id="mask7_4865_12586" style="mask-type:luminance" maskUnits="userSpaceOnUse" x="50" y="0" width="12" height="20">
<path d="M50.6667 0.317749H61.3334V19.3334H50.6667V0.317749Z" fill="white"/>
</mask>
<g mask="url(#mask7_4865_12586)">
<path d="M61.2345 5.41671V13.0573C61.2345 15.875 58.9533 18.1511 56.1356 18.1511C53.3179 18.1511 51.0366 15.875 51.0366 13.0573V5.41671C51.0366 2.599 53.3179 0.317749 56.1356 0.317749C57.5418 0.317749 58.8179 0.890666 59.7397 1.80733C60.6616 2.73442 61.2345 4.00525 61.2345 5.41671Z" fill="#B9B9B9"/>
</g>
<mask id="mask8_4865_12586" style="mask-type:luminance" maskUnits="userSpaceOnUse" x="86" y="0" width="12" height="20">
<path d="M86.6667 0.317749H97.3334V19.3334H86.6667V0.317749Z" fill="white"/>
</mask>
<g mask="url(#mask8_4865_12586)">
<path d="M96.9168 5.41671V13.0573C96.9168 15.875 94.6356 18.1511 91.8179 18.1511C89.0054 18.1511 86.7241 15.875 86.7241 13.0573V5.41671C86.7241 2.599 89.0054 0.317749 91.8179 0.317749C93.2293 0.317749 94.5054 0.890666 95.4272 1.80733C96.3491 2.73442 96.9168 4.00525 96.9168 5.41671Z" fill="#B9B9B9"/>
</g>
<mask id="mask9_4865_12586" style="mask-type:luminance" maskUnits="userSpaceOnUse" x="121" y="0" width="13" height="20">
<path d="M121.333 0.317749H133.333V19.3334H121.333V0.317749Z" fill="white"/>
</mask>
<g mask="url(#mask9_4865_12586)">
<path d="M132.604 5.41671V13.0573C132.604 15.875 130.323 18.1511 127.505 18.1511C124.688 18.1511 122.406 15.875 122.406 13.0573V5.41671C122.406 2.599 124.688 0.317749 127.505 0.317749C128.911 0.317749 130.187 0.890666 131.115 1.80733C132.031 2.73442 132.604 4.00525 132.604 5.41671Z" fill="#B9B9B9"/>
</g>
<mask id="mask10_4865_12586" style="mask-type:luminance" maskUnits="userSpaceOnUse" x="14" y="0" width="13" height="20">
<path d="M14.6667 0.317749H26.6667V19.3334H14.6667V0.317749Z" fill="white"/>
</mask>
<g mask="url(#mask10_4865_12586)">
<path d="M25.547 5.41671V13.0573C25.547 15.875 23.2658 18.1511 20.4481 18.1511C17.6304 18.1511 15.3491 15.875 15.3491 13.0573V5.41671C15.3491 2.599 17.6304 0.317749 20.4481 0.317749C21.8543 0.317749 23.1304 0.890666 24.0575 1.80733C24.9793 2.73442 25.547 4.00525 25.547 5.41671Z" fill="#CBCBCB"/>
</g>
<mask id="mask11_4865_12586" style="mask-type:luminance" maskUnits="userSpaceOnUse" x="50" y="0" width="12" height="20">
<path d="M50.6667 0.317749H61.3334V19.3334H50.6667V0.317749Z" fill="white"/>
</mask>
<g mask="url(#mask11_4865_12586)">
<path d="M61.2345 5.41671V13.0573C61.2345 15.875 58.9533 18.1511 56.1356 18.1511C53.3179 18.1511 51.0366 15.875 51.0366 13.0573V5.41671C51.0366 2.599 53.3179 0.317749 56.1356 0.317749C57.5418 0.317749 58.8179 0.890666 59.7397 1.80733C60.6616 2.73442 61.2345 4.00525 61.2345 5.41671Z" fill="#CBCBCB"/>
</g>
<mask id="mask12_4865_12586" style="mask-type:luminance" maskUnits="userSpaceOnUse" x="86" y="0" width="12" height="20">
<path d="M86.6667 0.317749H97.3334V19.3334H86.6667V0.317749Z" fill="white"/>
</mask>
<g mask="url(#mask12_4865_12586)">
<path d="M96.9168 5.41671V13.0573C96.9168 15.875 94.6356 18.1511 91.8179 18.1511C89.0054 18.1511 86.7241 15.875 86.7241 13.0573V5.41671C86.7241 2.599 89.0054 0.317749 91.8179 0.317749C93.2293 0.317749 94.5054 0.890666 95.4272 1.80733C96.3491 2.73442 96.9168 4.00525 96.9168 5.41671Z" fill="#CBCBCB"/>
</g>
<mask id="mask13_4865_12586" style="mask-type:luminance" maskUnits="userSpaceOnUse" x="121" y="0" width="13" height="20">
<path d="M121.333 0.317749H133.333V19.3334H121.333V0.317749Z" fill="white"/>
</mask>
<g mask="url(#mask13_4865_12586)">
<path d="M132.604 5.41671V13.0573C132.604 15.875 130.323 18.1511 127.505 18.1511C124.688 18.1511 122.406 15.875 122.406 13.0573V5.41671C122.406 2.599 124.688 0.317749 127.505 0.317749C128.911 0.317749 130.187 0.890666 131.115 1.80733C132.031 2.73442 132.604 4.00525 132.604 5.41671Z" fill="#CBCBCB"/>
</g>
</svg>
