<svg width="141" height="134" viewBox="0 0 141 134" fill="none" xmlns="http://www.w3.org/2000/svg">
<path d="M126.214 64.8489C126.479 63.4219 126.635 61.5312 126.406 59.1666C125.833 53.0885 124.792 46.4375 123.646 41.1614C122.49 35.8854 119.031 32.5573 114.656 31.7552C110.276 30.9531 106.531 31.1927 106.531 31.1927L103.458 49.1666L102.266 47.8906L96.9635 52.9583L93.1667 34.5364C93.1667 34.5364 86.6719 35.4166 84.3802 41.1614C82.0938 46.9062 82.3021 51.0989 82.0938 57.0989C81.9844 60.2448 81.9219 62.7604 82.3542 64.8489H4.3125V127.953H130.354V64.8489H126.214ZM100.943 64.8385C100.943 64.8385 100.953 64.8437 100.953 64.8489H100.932L100.943 64.8385ZM76.7292 62.0677L27.3906 62.1823V59.4687H45.8594L55.0938 38.7708L84.9115 38.9323L76.7344 59.5104V62.0677H76.7292Z" fill="#BBE5E1"/>
<mask id="mask0_4867_17887" style="mask-type:luminance" maskUnits="userSpaceOnUse" x="0" y="58" width="87" height="70">
<path d="M0.869873 58.6667H86.3334V128H0.869873V58.6667Z" fill="white"/>
</mask>
<g mask="url(#mask0_4867_17887)">
<path d="M86.1876 127.953H45.1042C45.2292 127.912 45.3595 127.875 45.4845 127.834C64.0365 122.073 68.297 101.745 68.297 101.745L86.1876 127.953ZM82.047 61.8179H76.7293V60.37L46.5053 60.3335L46.1615 59.8804L45.8803 61.8179H0.869873V65.0835H82.3282C82.3282 65.0835 82.1407 63.5887 82.047 61.8179Z" fill="#00BFA8"/>
</g>
<path d="M128.078 77.2813C128.078 77.2813 125.25 77.2813 120.938 77.2813C116.625 77.2813 110.964 77.2136 106.729 81.5678C102.036 86.3959 102.979 92.1928 102.979 92.1928H97.2552L93.651 98.948H74.0677C74.0677 98.948 72.724 88.4636 72.4427 83.047C72.1563 77.6303 75.0573 72.0678 80.6406 70.7345C86.224 69.3959 97.1406 67.5053 97.1406 67.5053L100.948 64.8386L102.5 66.5626C102.5 66.5626 105.948 71.2292 111.031 71.5417C116.12 71.8595 119.891 68.1928 119.891 68.1928H125.083C128.083 69.9115 128.078 77.2813 128.078 77.2813ZM48.8333 28.224C44.8177 27.5834 44.8177 27.5834 44.8177 27.5834L42.7656 37.849L29.5625 27.1824C29.5625 27.1824 23.3802 28.0626 19.6875 29.6615C15.9948 31.2605 14.7865 36.9324 15.6719 41.8855C16.5521 46.8386 18.2396 54.0313 18.9635 57.3126C19.6875 60.5886 24.2604 61.9063 24.2604 61.9063H27.3958V59.4688H45.8594L55.0938 38.7709L58.4844 38.6459C58.4844 38.6459 57.5625 35.3438 55.8125 32.6876C54.0573 30.0261 52.8438 28.8595 48.8333 28.224ZM97.4896 45.474L101.052 49.2188L102.224 48.0522L103.458 49.1667L106.531 31.1928C106.531 31.1928 104.984 29.8022 102.089 30.8542C99.1927 31.9063 98.5781 33.7345 98.6042 35.6199C97.651 33.599 96.3125 32.9376 94.8177 33.2084C93.3229 33.4792 93.1667 34.5365 93.1667 34.5365L95.026 43.9845C95.026 43.9845 96.526 44.5157 97.4896 45.474ZM67.2344 52.7449C68.6979 52.7449 69.8854 51.547 69.8854 50.0626C69.8854 48.5834 68.6979 47.3803 67.2344 47.3803C65.7708 47.3803 64.5833 48.5834 64.5833 50.0626C64.5885 51.547 65.7708 52.7449 67.2344 52.7449ZM89.3802 122.531L77.6458 127.297L79.2031 125.261L69.4063 123.813C69.4063 123.813 66.3542 125.365 64.1563 126.615C61.9531 127.87 61.7969 131.104 65.3594 131C68.9219 130.896 75.7396 130.323 75.7396 130.323C75.7396 130.323 74.7396 131.469 75.4271 132.516C76.1042 133.557 78.099 133.401 80.9271 132.359C83.7604 131.313 86.7031 130.234 88.5625 129.339C90.4167 128.443 90.8385 127.557 90.7865 126.359C90.7344 125.162 89.3802 122.531 89.3802 122.531ZM4.42188 127.771H16.6094V65.422H4.42188V127.771Z" fill="white"/>
<path d="M93.6512 98.9479L86.7605 111.328C86.7605 111.328 87.198 114.521 87.7814 117.427C88.3699 120.328 89.3855 122.578 89.3855 122.578L77.6459 127.297L78.8334 125.307C70.5209 127.625 69.4064 123.812 69.4064 123.812C69.4064 123.812 73.2709 121.271 73.6355 119.094C74.0001 116.917 75.3126 108.135 75.3126 108.135L74.0678 98.9479H93.6512ZM115.188 57.4427C114.37 56.4948 113.761 55.4843 112.068 54.4687C110.375 53.4583 107.323 53.7291 107.323 53.7291L110.646 56.8333C110.646 56.8333 111.662 60.6093 112.271 60.9479C112.88 61.2812 114.781 61.9583 115.865 61.6875C116.948 61.4218 116 58.3854 115.188 57.4427ZM92.2501 44.1145C90.573 44.6354 87.1772 47.0156 87.1772 47.0156C87.1772 47.0156 84.0782 46.125 82.698 46.1614C81.3178 46.1979 80.5001 47.276 80.7241 48.2395C80.948 49.2083 83.7032 50.5833 84.7137 51.2135C85.7241 51.8437 88.297 51.7708 89.6772 51.6562C91.0574 51.5468 92.8126 51.1354 93.823 52.0989C94.8282 53.0677 95.9116 54.0312 95.9116 54.0312L101.208 48.9427C101.208 48.9427 98.6355 46.4895 97.1824 45.1562C95.7241 43.8177 93.9324 43.5989 92.2501 44.1145ZM105.573 18.9166C105.573 13.9791 103.448 7.68746 94.8178 8.33329C86.1928 8.97912 84.7189 14.4479 84.9532 18.9739C85.1876 23.5052 86.0157 28.2083 88.8491 29.677C91.6876 31.1458 94.2293 30.2656 94.2293 30.2656L94.8178 33.2031C94.8178 33.2031 97.0053 32.8489 98.5991 35.6145C98.5991 35.6145 98.3022 31.9687 102.083 30.8489L101.318 27.9687C101.318 27.9739 105.573 23.8541 105.573 18.9166ZM44.8022 24.4635C44.0262 24.0781 43.1876 24.3333 43.448 25.0416C43.7032 25.75 45.5157 27.6145 45.5157 27.6145C45.5157 27.6145 43.5418 27.6145 42.2449 27.6145L42.0522 24.7864C42.0522 24.7864 44.8543 24.0312 46.3126 21.625C47.7762 19.2187 47.172 15.1562 47.172 15.1562C47.172 15.1562 48.3282 12.75 46.3126 10.6458C46.3126 10.6458 43.9949 4.47912 37.198 4.57808C30.3959 4.67704 25.2084 12.2968 27.6251 18.5677C27.6251 18.5677 29.5262 22.7708 33.3855 22.7239L33.6199 24.8854L39.4064 32.6666C39.2866 33.3125 39.1876 34.3125 39.5053 35.1406C40.0209 36.4895 42.0262 39.0625 42.0262 39.0625L47.0678 36.5572C47.0678 36.5572 48.2918 30.9635 48.5522 29.7395C48.8126 28.5156 48.2293 27.4895 47.323 26.5885C46.4168 25.6822 45.5782 24.8489 44.8022 24.4635Z" fill="#F79A91"/>
<mask id="mask1_4867_17887" style="mask-type:luminance" maskUnits="userSpaceOnUse" x="22" y="0" width="119" height="131">
<path d="M22.3333 0.635498H140.802V130.667H22.3333V0.635498Z" fill="white"/>
</mask>
<g mask="url(#mask1_4867_17887)">
<path d="M75.3125 108.135C75.3125 108.135 74.4479 113.995 74.1198 116.214C73.7865 118.427 74.0365 119.74 72.2188 121.547C70.4063 123.349 68.1563 124.583 68.1563 124.583C68.1563 124.583 68.1563 97.1354 68.1563 89.8593C68.1563 82.5781 72.875 78.7031 72.875 78.7031C72.2083 83.5469 75.3125 108.135 75.3125 108.135ZM132.24 60.0364C126.677 60.0364 126.458 60.0364 126.458 60.0364C126.458 60.0364 126.672 67.1354 124.865 68.1979C124.865 68.1979 127.802 70.3229 128.078 77.2812C128.078 77.2812 127.13 77.2812 119.417 77.2812C108.563 77.2812 103.073 81.25 102.698 92.1927H97.7083C97.8802 91.901 98.0938 91.5104 98.2969 91.0989C98.6563 90.3854 99.4323 90.3698 99.4635 90.3698C99.5677 90.3698 99.651 90.2812 99.651 90.1771C99.651 90.0677 99.5677 89.9843 99.4635 89.9843C99.4167 89.9843 98.4219 89.9948 97.9531 90.9271C97.7031 91.4218 97.4375 91.8958 97.2656 92.1927H97.25L86.7552 111.328C86.7552 111.328 86.7604 111.375 86.7708 111.453L75.8281 129.786C75.7708 129.88 75.8021 129.995 75.8958 130.047C75.9271 130.062 75.9583 130.073 75.9896 130.073C76.0573 130.073 76.1198 130.042 76.1563 129.979L86.849 112.068C87.1146 114.042 87.9531 119.505 89.3802 122.573C91.0521 126.167 91.2708 128.057 88.5573 129.339H140.781C140.781 129.339 140.781 79.8177 140.781 71.4114C140.786 63.0104 137.797 60.0364 132.24 60.0364ZM101.943 48.2396C101.87 48.1666 101.745 48.1666 101.672 48.2396L93.4219 56.3958L85.2917 60.375C85.1979 60.4219 85.1563 60.5364 85.2031 60.6302C85.2396 60.6979 85.3073 60.7396 85.375 60.7396C85.401 60.7396 85.4323 60.7344 85.4583 60.7187L93.4896 56.7916L100.599 64.4687C100.635 64.5052 100.688 64.526 100.74 64.526C100.786 64.526 100.833 64.5104 100.87 64.4791C100.948 64.4062 100.953 64.2864 100.88 64.2083L93.8021 56.5625L101.943 48.5156C102.016 48.4375 102.016 48.3177 101.943 48.2396ZM111.682 54.1771C111.792 54.1771 111.875 54.0885 111.875 53.9844L111.807 44.3073C111.807 44.2031 111.719 44.1146 111.615 44.1146C111.505 44.1146 111.422 44.2031 111.422 44.3073L111.49 53.9844C111.495 54.0885 111.578 54.1771 111.682 54.1771ZM120.385 67.9114C120.443 67.9114 120.5 67.8802 120.542 67.8281C120.661 67.6666 123.432 63.75 123.5 60.2812C123.568 56.8698 123.901 43.3646 123.906 43.2291C123.906 43.125 123.823 43.0364 123.719 43.0364C123.714 43.0364 123.714 43.0364 123.714 43.0364C123.604 43.0364 123.521 43.1146 123.521 43.2239C123.516 43.3594 123.177 56.8646 123.115 60.2708C123.047 63.6198 120.255 67.5677 120.224 67.6041C120.161 67.6927 120.188 67.8125 120.271 67.875C120.307 67.8958 120.344 67.9114 120.385 67.9114ZM91.5521 70.1979C95.5104 69.4219 102.417 67.8646 102.484 67.8489C102.583 67.8281 102.651 67.7239 102.63 67.6198C102.604 67.5208 102.505 67.4479 102.396 67.4739C102.328 67.4948 95.4271 69.0469 91.4792 69.8177C87.4583 70.6041 82.7083 73.7916 81.8333 78.1406C80.9844 82.3541 75.4635 107.021 75.4063 107.271C75.3854 107.375 75.4479 107.479 75.5521 107.5C75.5677 107.505 75.5833 107.51 75.5938 107.51C75.6823 107.51 75.7656 107.448 75.7813 107.359C75.8385 107.109 81.3646 82.4323 82.2083 78.2187C83.0469 74.026 87.651 70.9583 91.5521 70.1979ZM90.1146 45.5208C90.1823 45.4375 90.1667 45.3177 90.0833 45.25C90 45.1875 89.8802 45.1979 89.8125 45.2864C89.8073 45.2916 89.0313 46.2812 88.3906 47.0469C87.9583 47.5573 88.0052 48.1146 88.2656 48.401C88.3854 48.5312 88.5729 48.6302 88.8073 48.6302C89.0208 48.6302 89.2708 48.5521 89.5573 48.3594C90.5313 47.6771 93.3594 45.9687 93.3906 45.9531C93.4792 45.901 93.5104 45.7812 93.4583 45.6875C93.401 45.5989 93.2813 45.5729 93.1927 45.625C93.1615 45.6406 90.3229 47.3541 89.3333 48.0416C89.0052 48.2708 88.7031 48.3073 88.5521 48.1406C88.4063 47.9791 88.401 47.6302 88.6875 47.2864C89.3281 46.5208 90.1094 45.526 90.1146 45.5208ZM85.125 48.5885C84.0625 48.0364 81.6615 46.5416 81.6406 46.5312C81.5521 46.4739 81.4323 46.5 81.375 46.5885C81.3177 46.6771 81.3438 46.7969 81.4323 46.8541C81.5313 46.9166 83.875 48.3698 84.9479 48.9219C85.4635 49.1927 86.2396 49.2656 86.9271 49.2656C87.7344 49.2656 88.4271 49.1666 88.4792 49.1614C88.5833 49.1458 88.6563 49.0469 88.6406 48.9427C88.625 48.8385 88.526 48.7656 88.4219 48.7812C88.401 48.7864 86.1406 49.1146 85.125 48.5885ZM86.5 50.901C87.5313 50.901 88.5365 50.7656 88.6094 50.75C88.7135 50.7396 88.7865 50.6406 88.7708 50.5364C88.7552 50.4323 88.6563 50.3594 88.5573 50.375C87.7344 50.4896 85.4375 50.6927 84.7083 50.2291C83.776 49.6354 81.1979 47.7604 81.1719 47.7396C81.0885 47.6771 80.9688 47.6979 80.9063 47.7812C80.8438 47.8646 80.8594 47.9844 80.9479 48.0469C81.0521 48.125 83.5573 49.9531 84.5 50.5521C84.9323 50.8229 85.724 50.901 86.5 50.901ZM84.5729 12.2396C84.5729 12.2396 83.7604 9.37497 87.1563 9.08331C87.1563 9.08331 87.8229 6.35935 91.1458 7.24477C91.1458 7.24477 93.0625 4.74477 95.4271 6.58331C95.4271 6.58331 97.4948 5.40623 99.0469 7.24477C99.0469 7.24477 100.818 6.21872 102.146 8.05206C102.146 8.05206 103.771 6.94789 105.542 7.90622C107.318 8.85935 107.24 10.2552 107.24 10.2552C107.24 10.2552 109.828 10.2552 110.344 12.2396C110.859 14.2239 109.458 15.6979 109.458 15.6979C109.458 15.6979 110.786 16.9479 110.271 18.6354C109.75 20.3229 108.495 20.3229 108.495 20.3229C108.495 20.3229 108.125 22.6041 106.724 23.1146C105.323 23.6302 104.583 23.0416 104.583 23.0416C104.583 23.0416 103.849 25.8958 101.318 27.9687L101.078 22.9479C101.078 22.9479 103.589 21.1093 103.234 18.9166C102.88 16.7291 100.464 17.1198 100.464 17.1198L99.8438 21.0208C99.8438 21.0208 98.7031 20.2968 97.7344 19.0208L95.8646 19.6041C95.9792 20.2343 95.8438 21.125 95.2708 21.8698C94.8646 22.401 94.0781 23.0312 92.6719 23.0312C92.651 23.0312 92.625 23.0312 92.6094 23.0312C90.099 22.9948 89.7917 20.5104 89.7604 19.9687C88.9583 19.4479 88.4844 19.75 88.349 19.8698C88.3125 20.3437 88.0156 22.7864 85.9844 22.8229C85.4167 22.8281 84.9635 22.651 84.625 22.2812C83.8438 21.4375 83.9896 19.9062 83.9948 19.8385C83.9948 19.8281 83.9948 19.8125 84 19.8021C84.0052 19.7864 84.4635 18.401 86.0573 18.3594C87.2917 18.3333 87.9531 19.1354 88.1927 19.5156C88.4688 19.3281 89.0625 19.0885 89.9115 19.6094C90.1667 19.1562 90.9219 18.1771 92.7344 18.0833C94.6406 17.9896 95.474 18.8906 95.7292 19.2448L97.5052 18.6927C97.1979 18.2396 96.9219 17.7291 96.724 17.1666C95.8854 14.7552 96.3125 10.9896 96.3125 10.9896L85.1615 15.625C85.1615 15.625 82.651 14.151 84.5729 12.2396ZM87.9583 19.8958C87.9531 19.8854 87.9531 19.875 87.9479 19.8698C87.9219 19.8177 87.401 18.7031 86.0677 18.7448C84.8281 18.776 84.4271 19.7448 84.3698 19.901C84.3594 20.0781 84.2865 21.3541 84.9063 22.026C85.1719 22.3125 85.526 22.4531 85.9792 22.4427C87.651 22.4114 87.9219 20.401 87.9583 19.8958ZM95.4688 19.5469C95.3802 19.3958 94.7083 18.3698 92.7552 18.4687C90.7031 18.5781 90.1875 19.9114 90.1667 19.9687C90.1615 19.9844 90.1563 20 90.1458 20.0104C90.1875 20.5833 90.4896 22.625 92.6146 22.651C92.6354 22.651 92.651 22.651 92.6719 22.651C93.9219 22.651 94.6146 22.1041 94.9688 21.6354C95.5104 20.9375 95.6042 20.0677 95.4688 19.5469ZM101.865 20.5156C101.891 20.5364 101.927 20.5416 101.958 20.5416C102.021 20.5416 102.089 20.5104 102.125 20.4479C102.495 19.7916 102.578 19.2239 102.37 18.7604C102.073 18.0989 101.292 17.9271 101.26 17.9166C101.151 17.8958 101.052 17.9635 101.031 18.0677C101.005 18.1666 101.073 18.2708 101.177 18.2916C101.182 18.2968 101.807 18.4375 102.021 18.9219C102.177 19.2656 102.099 19.7135 101.792 20.2552C101.734 20.3489 101.766 20.4635 101.865 20.5156ZM91.3073 17.1406C91.3802 17.0937 93.151 15.9739 94.6458 17.1666C94.6823 17.1927 94.7188 17.2083 94.7604 17.2083C94.8177 17.2083 94.875 17.1823 94.9115 17.1354C94.9792 17.0521 94.9688 16.9323 94.8854 16.8646C93.1719 15.5 91.1198 16.8073 91.099 16.8229C91.0104 16.8802 90.9844 16.9948 91.0417 17.0833C91.099 17.1718 91.2188 17.1979 91.3073 17.1406ZM85.6979 17.5312C85.75 17.5 86.9896 16.7135 88.026 17.5469C88.0677 17.5729 88.1042 17.5885 88.1458 17.5885C88.2031 17.5885 88.2604 17.5625 88.2969 17.5208C88.3646 17.4375 88.3542 17.3125 88.2708 17.25C87.0104 16.2396 85.5 17.2031 85.4844 17.2135C85.3958 17.2708 85.3698 17.3906 85.4271 17.4739C85.4896 17.5677 85.6094 17.5885 85.6979 17.5312ZM92.2656 19.401C92.0104 19.401 91.8073 19.6094 91.8073 19.8594C91.8073 20.1146 92.0104 20.3177 92.2656 20.3177C92.5208 20.3177 92.724 20.1146 92.724 19.8594C92.724 19.6094 92.5208 19.401 92.2656 19.401ZM86.5833 19.2604C86.3281 19.2604 86.125 19.4635 86.125 19.7187C86.125 19.9687 86.3281 20.1719 86.5833 20.1719C86.8333 20.1719 87.0417 19.9687 87.0417 19.7187C87.0417 19.4635 86.8333 19.2604 86.5833 19.2604ZM88.9896 20.5104L88.6198 20.3958C88.6198 20.3958 88.3021 21.4531 88.0885 22.2291C87.9531 22.7343 88.0833 23.0573 88.2188 23.2344C88.4531 23.5416 88.8906 23.6979 89.5104 23.6979C89.6146 23.6979 89.6979 23.6146 89.6979 23.5052C89.6979 23.401 89.6146 23.3177 89.5104 23.3177C89.0208 23.3177 88.6823 23.2083 88.526 23.0052C88.401 22.8437 88.3802 22.6198 88.4583 22.3333C88.6719 21.5625 88.9896 20.5104 88.9896 20.5104ZM91.8177 24.5208C90.75 24.8281 89.5938 25.0364 89.5781 25.0416C89.474 25.0625 89.4063 25.1614 89.4271 25.2604C89.4479 25.3646 89.5469 25.4323 89.651 25.4166C89.6615 25.4114 90.8385 25.1979 91.9271 24.8854C92.4115 24.7448 92.6042 24.8021 92.6458 24.8541C92.6823 24.9114 92.6667 25.0989 92.4583 25.3958C92.1406 25.8385 90.9063 26.2031 90.4531 26.3021C90.3542 26.3281 90.2865 26.4323 90.3073 26.5364C90.3281 26.6198 90.4115 26.6823 90.4948 26.6823C90.5104 26.6823 90.526 26.6771 90.5417 26.6771C90.724 26.6354 92.3177 26.2552 92.7708 25.6146C93.0521 25.2135 93.125 24.8646 92.9583 24.6302C92.7813 24.3906 92.3958 24.3541 91.8177 24.5208ZM96.9479 30.125C96.75 29.6041 96.3073 29.4896 94.2292 30.2656L94.6354 32.3021C95.7813 31.4531 97.0625 30.4166 96.9479 30.125ZM99.849 38.3854C99.849 38.901 99.4271 39.3229 98.901 39.3229C98.3802 39.3229 97.9583 38.901 97.9583 38.3854C97.9583 37.8646 98.3802 37.4427 98.901 37.4427C99.4271 37.4427 99.849 37.8646 99.849 38.3854ZM99.4635 38.3854C99.4635 38.0729 99.2135 37.8229 98.901 37.8229C98.5938 37.8229 98.3438 38.0729 98.3438 38.3854C98.3438 38.6927 98.5938 38.9427 98.901 38.9427C99.2135 38.9427 99.4635 38.6927 99.4635 38.3854ZM99.3854 44.0989C99.9063 44.0989 100.328 44.5208 100.328 45.0364C100.328 45.5573 99.9063 45.9791 99.3854 45.9791C98.8646 45.9791 98.4375 45.5573 98.4375 45.0364C98.4375 44.5208 98.8646 44.0989 99.3854 44.0989ZM99.3854 44.4791C99.0729 44.4791 98.8229 44.7291 98.8229 45.0364C98.8229 45.3489 99.0729 45.5989 99.3854 45.5989C99.6927 45.5989 99.9479 45.3489 99.9479 45.0364C99.9479 44.7291 99.6927 44.4791 99.3854 44.4791ZM29.0833 20.6823C29.0833 20.6823 27.1562 17.0104 30.2396 16.4791L32.2812 17.7656L39.1198 7.05727C39.1198 7.05727 42.6146 11.0156 46.4896 11.7135C46.4896 11.7135 46.276 5.93227 41.2187 4.43227C38.2656 3.55727 35.3229 3.15623 32.7604 3.80206C32.3854 2.9531 31.0469 0.645808 27.6042 1.21872C23.4062 1.91664 23.1875 6.30206 23.8333 8.02081C24.3125 9.29164 25.2969 9.97393 26.3281 10.151C24.5469 15.8333 29.0833 20.6823 29.0833 20.6823ZM42.9427 18.2604C42.849 18.3177 42.8177 18.4323 42.8698 18.5208C42.9062 18.5833 42.9687 18.6198 43.0365 18.6198C43.0677 18.6198 43.1042 18.6094 43.1354 18.5937C43.1615 18.5781 43.8542 18.1718 43.9896 17.625C44.0365 17.4114 44 17.2031 43.875 17.0104C43.4323 16.3333 42.6406 15.3802 42.6094 15.3385C42.5417 15.2552 42.4219 15.2448 42.3385 15.3125C42.2552 15.3802 42.2448 15.5 42.3125 15.5833C42.3229 15.5937 43.125 16.5625 43.5521 17.2187C43.6198 17.3229 43.6406 17.4271 43.6094 17.5364C43.5365 17.8593 43.1042 18.1666 42.9427 18.2604ZM42.6875 20.7239C42.6719 20.6198 42.5729 20.5469 42.4687 20.5677C41.2969 20.75 40.4687 20.0104 40.4635 20.0052C40.3802 19.9375 40.2604 19.9427 40.1927 20.0208C40.1198 20.0937 40.125 20.2187 40.2031 20.2864C40.2344 20.3177 40.9687 20.9791 42.0833 20.9791C42.2292 20.9791 42.3802 20.9687 42.5312 20.9427C42.6302 20.9271 42.7031 20.8281 42.6875 20.7239ZM44.1927 15.4635C44.1927 15.7239 44.4063 15.9323 44.6667 15.9323C44.9323 15.9323 45.1458 15.7239 45.1458 15.4635C45.1458 15.1979 44.9323 14.9896 44.6667 14.9896C44.4063 14.9896 44.1927 15.1979 44.1927 15.4635ZM38.5365 16.6041C38.7969 16.6041 39.0104 16.3958 39.0104 16.1354C39.0104 15.8698 38.7969 15.6614 38.5365 15.6614C38.2708 15.6614 38.0573 15.8698 38.0573 16.1354C38.0625 16.3958 38.2708 16.6041 38.5365 16.6041ZM45.8021 13.75C45.8646 13.6614 45.8438 13.5416 45.7604 13.4843C44.1719 12.3698 42.5625 13.6093 42.5469 13.625C42.4635 13.6875 42.4479 13.8125 42.5156 13.8958C42.5521 13.9427 42.6094 13.9687 42.6667 13.9687C42.7083 13.9687 42.75 13.9531 42.7865 13.9271C42.8021 13.9114 44.1771 12.8437 45.5365 13.7968C45.625 13.8593 45.7448 13.8385 45.8021 13.75ZM40.9583 13.9948C41.0417 14.0573 41.1615 14.0416 41.2292 13.9583C41.2917 13.875 41.276 13.7552 41.1927 13.6875C41.1719 13.6771 39.1146 12.1302 37.0885 13.901C37.0052 13.9687 37 14.0885 37.0729 14.1666C37.1094 14.2135 37.1615 14.2343 37.2135 14.2343C37.2604 14.2343 37.3073 14.2187 37.3385 14.1875C39.125 12.6302 40.8854 13.9375 40.9583 13.9948ZM29.9219 17.7083C29.8229 17.6771 29.7135 17.7291 29.6823 17.8281C29.6667 17.8802 29.3125 19.0052 29.8073 19.8906C30.0625 20.3489 30.4844 20.651 31.0729 20.8021C31.0885 20.8073 31.1042 20.8073 31.1198 20.8073C31.2031 20.8073 31.2813 20.75 31.3021 20.6666C31.3281 20.5625 31.2708 20.4583 31.1667 20.4323C30.6927 20.3125 30.349 20.0677 30.1458 19.7083C29.7344 18.9635 30.0469 17.9531 30.0469 17.9427C30.0781 17.8437 30.0208 17.7396 29.9219 17.7083ZM46.6823 56.5521C46.7187 56.6146 46.7813 56.6458 46.849 56.6458C46.8854 56.6458 46.9167 56.6406 46.9479 56.6198C47.0417 56.5625 47.0677 56.4479 47.0156 56.3541C46.9323 56.2187 38.8698 42.8177 38.6302 42.3437C38.4323 41.9583 38.599 41.6302 38.6094 41.6146C38.6406 41.5468 38.6354 41.4739 38.5937 41.4166L42.0208 39.0573C42.0208 39.0573 40 36.3021 39.5 35.1354C39.0052 33.9635 39.5677 31.9844 39.5677 31.9844L40.3385 30.0729C40.375 29.9739 40.3281 29.8646 40.2292 29.8229C40.1302 29.7864 40.0156 29.8333 39.9792 29.9323L39.2396 31.7708C38.5833 31.2083 38.5208 30.1146 38.5156 29.8125C38.6667 29.5989 39.4635 28.4687 40.1875 28.1614C40.9948 27.8229 41.8698 27.776 41.8646 27.776H42.8125C42.9167 27.776 43 27.6927 43 27.5833C43 27.4791 42.9167 27.3958 42.8125 27.3958H41.8594C41.8177 27.401 40.9115 27.4479 40.0365 27.8125C39.3021 28.1198 38.5469 29.1093 38.276 29.4896L33.6146 24.8802L29.5625 27.1823L38.3385 41.3646C38.3073 41.3802 38.2812 41.401 38.2708 41.4323C38.2552 41.4531 37.9948 41.9427 38.2812 42.5104C38.3542 42.6562 39.0625 43.8489 40.0365 45.4791L29.0104 49.0833L26.7552 38.4219C26.7344 38.3229 26.6302 38.2552 26.526 38.276C26.4271 38.2969 26.3594 38.3958 26.3802 38.5052L28.6406 49.2031L28.1042 49.3802C28.0052 49.4166 27.9479 49.5208 27.9792 49.6198C28.0052 49.6979 28.0833 49.75 28.1615 49.75C28.1823 49.75 28.2031 49.75 28.224 49.7448L40.1719 45.8385C40.1927 45.8333 40.2187 45.8229 40.2344 45.8021C41.8333 48.4791 44.0469 52.1614 45.4219 54.4479C45.4167 54.4531 45.4063 54.4531 45.401 54.4583L37.6562 59.125C37.5625 59.1823 37.5365 59.3021 37.5885 59.3906C37.625 59.4479 37.6875 59.4844 37.7552 59.4844C37.7865 59.4844 37.8229 59.4739 37.8542 59.4531L45.6042 54.7864C45.6094 54.7864 45.6094 54.7812 45.6146 54.7708C46.2083 55.7604 46.6146 56.4323 46.6823 56.5521ZM47.1042 36.7396L47.7396 36.6041L52.5052 43.9375C52.5469 43.9948 52.6094 44.026 52.6719 44.026C52.7083 44.026 52.7396 44.0156 52.776 43.9948C52.8646 43.9375 52.8906 43.8177 52.8333 43.7291L51.3021 41.375C51.3177 41.3437 51.3333 41.3125 51.3333 41.276C51.3958 39 49.9635 35.8958 49.9063 35.7656C49.8594 35.6666 49.7448 35.625 49.6458 35.6719C49.5521 35.7187 49.5104 35.8281 49.5521 35.9271C49.5677 35.9531 50.8177 38.6823 50.9375 40.8229L47.9896 36.2916C47.9479 36.2291 47.8698 36.1927 47.7865 36.2083L47.0208 36.3698C46.9219 36.3958 46.8542 36.4948 46.875 36.5989C46.8958 36.6927 46.9948 36.7604 47.1042 36.7396ZM76.599 60.5312C76.7031 60.5312 76.7865 60.4479 76.7865 60.3437C76.7865 60.2396 76.7031 60.151 76.599 60.151H46.8385L55.8229 39.7239H84.349C84.4531 39.7239 84.5365 39.6406 84.5365 39.5364C84.5365 39.4271 84.4531 39.3437 84.349 39.3437H55.6979C55.6198 39.3437 55.5521 39.3906 55.5208 39.4583L46.4948 59.9739L46.0104 59.3541C45.9479 59.276 45.8281 59.2552 45.7396 59.3229C45.6563 59.3854 45.6406 59.5052 45.7083 59.5937L46.3906 60.4635C46.3958 60.4687 46.3958 60.4687 46.3958 60.4687C46.4063 60.4844 46.4271 60.4948 46.4427 60.5052C46.4479 60.5104 46.4531 60.5156 46.4635 60.5208V60.526C46.4896 60.5364 46.5156 60.5416 46.5417 60.5416H76.599V60.5312ZM42.1927 26.8073L42.0521 24.7864C40.401 24.9271 39.0365 24.4583 38.9427 24.8802C38.8542 25.2708 40.3854 26.3854 42.1927 26.8073ZM85.6302 119.901C85.5521 119.969 85.5469 120.094 85.6198 120.167C85.6302 120.177 86.4635 121.094 86.3958 122.187C86.3906 122.292 86.4688 122.385 86.5729 122.391C86.5781 122.391 86.5833 122.391 86.5833 122.391C86.6823 122.391 86.7708 122.312 86.776 122.214C86.8542 120.953 85.9427 119.953 85.901 119.911C85.8281 119.833 85.7083 119.828 85.6302 119.901ZM82.0208 62.1041C81.9219 62.0937 81.8281 62.1823 81.8281 62.2916C81.8281 62.5 81.7708 67.4844 83.4479 69.9844C83.4844 70.0416 83.5417 70.0677 83.6042 70.0677C83.6406 70.0677 83.6823 70.0573 83.7135 70.0364C83.8021 69.9791 83.8229 69.8594 83.7656 69.7708C82.1615 67.3698 82.2135 62.3437 82.2135 62.2969C82.2135 62.1927 82.1302 62.1041 82.0208 62.1041ZM112.896 60.8333C112.823 60.9114 112.833 61.0364 112.911 61.1041C112.948 61.1354 112.995 61.151 113.036 61.151C113.089 61.151 113.141 61.125 113.182 61.0833C113.729 60.4635 113.01 57.0781 112.859 56.4114C112.839 56.3073 112.734 56.2448 112.63 56.2656C112.526 56.2916 112.458 56.3906 112.484 56.4948C112.906 58.375 113.177 60.5104 112.896 60.8333ZM114.339 61.3594C114.281 61.4479 114.307 61.5677 114.396 61.625C114.427 61.651 114.464 61.6562 114.5 61.6562C114.563 61.6562 114.62 61.625 114.661 61.5729C115.12 60.8854 114.583 57.9427 114.469 57.3594C114.448 57.2552 114.344 57.1875 114.245 57.2031C114.141 57.2239 114.068 57.3229 114.089 57.4271C114.339 58.7239 114.63 60.9323 114.339 61.3594ZM115.464 61.776C115.5 61.776 115.531 61.7656 115.568 61.7448C116.177 61.3541 116.073 59.5989 116.042 59.25C116.036 59.1458 115.943 59.0677 115.839 59.0729C115.734 59.0833 115.651 59.1719 115.661 59.2812C115.724 60.0521 115.672 61.2291 115.359 61.4271C115.271 61.4844 115.245 61.5989 115.302 61.6875C115.339 61.7448 115.401 61.776 115.464 61.776Z" fill="#273F7C"/>
</g>
</svg>
