<svg width="150" height="141" viewBox="0 0 150 141" fill="none" xmlns="http://www.w3.org/2000/svg">
<mask id="mask0_4865_12585" style="mask-type:luminance" maskUnits="userSpaceOnUse" x="0" y="114" width="150" height="27">
<path d="M0.520752 114.469H149.443V140.38H0.520752V114.469Z" fill="white"/>
</mask>
<g mask="url(#mask0_4865_12585)">
<path d="M6.15101 133.401C14.7396 137.37 24.4166 138.422 33.8541 139.583C49.3541 141.5 65.7552 139.818 80.8541 136.047C100.271 131.198 110.557 135.844 126.193 135.958C133.182 136.005 140.276 134.531 146.187 130.781C153.214 126.323 147.484 121.604 141.969 119.859C134.667 117.547 127.187 117.328 119.635 116.635C112.047 115.938 104.448 115.339 96.8125 115.021C80.8593 114.354 64.875 114.427 48.9166 115.099C36.6406 115.62 22.8698 114.953 11.1406 119.021C3.13539 121.797 -5.40107 128.063 6.15101 133.401Z" fill="#E8E4ED"/>
</g>
<path d="M131.24 78.1145C129.964 78.0104 128.677 77.8333 127.396 77.75C124.245 77.552 121.083 77.4843 117.927 77.401C114.781 77.3177 111.641 77.2291 108.495 77.0729C107.047 77 105.604 76.9375 104.156 76.9166C104.656 79.9635 105.141 83.0156 105.604 86.0677C106.297 90.6458 106.943 95.2343 107.542 99.8281C108.172 104.682 111.188 114.458 105.922 117.812C104.505 118.714 102.849 119.198 101.229 119.594C99.5834 120 93.7501 120.776 92.0991 121.151C92.0261 121.479 91.8126 122.552 92.5782 123.333C93.7188 123.484 106.089 124.521 108.307 124.875C111.359 125.359 113.625 125.75 116.729 125.083C120.162 124.349 123.589 123.609 127 122.786C131.083 121.807 133.391 120.505 134.797 117.271C135.208 116.323 135.729 114.089 135.724 111.594C135.719 109.245 133.932 95.3125 133.24 90.6614C132.615 86.4739 131.943 82.2916 131.24 78.1145Z" fill="#CEC7D6"/>
<path d="M92.1666 121.38C94.5573 121.755 96.9791 121.943 99.3906 122.151C102.182 122.396 104.979 122.609 107.771 122.87C108.781 122.964 109.797 123.063 110.807 123.198C111.625 123.302 112.437 123.401 113.266 123.396C114.281 123.385 115.271 123.229 116.271 123.042C118.229 122.672 120.187 122.271 122.13 121.797C123.922 121.359 125.703 120.859 127.427 120.193C128.875 119.63 130.391 118.958 131.542 117.891C132.745 116.781 133.318 115.203 133.516 113.615C133.703 112.115 133.578 110.599 133.453 109.099C133.354 107.839 133.234 106.578 133.104 105.313C132.818 102.505 132.484 99.698 132.13 96.8959C131.776 94.1303 131.406 91.3594 131.021 88.5938C130.708 86.3751 130.391 84.1615 130.062 81.9428C129.896 80.8178 129.729 79.6928 129.552 78.5678C129.547 78.5157 129.536 78.4636 129.531 78.4115C129.51 78.2865 129.318 78.3386 129.339 78.4636C129.458 79.2344 129.573 80.0053 129.687 80.7709C129.984 82.7396 130.271 84.7032 130.547 86.6719C130.927 89.3334 131.292 91.9948 131.641 94.6615C132.01 97.4792 132.359 100.297 132.672 103.115C132.948 105.615 133.214 108.115 133.365 110.625C133.474 112.333 133.443 114.13 132.776 115.74C132.464 116.495 132.005 117.198 131.401 117.75C130.854 118.255 130.214 118.656 129.562 119.005C127.969 119.865 126.229 120.458 124.5 120.964C122.682 121.49 120.828 121.912 118.979 122.302C118.005 122.505 117.031 122.693 116.057 122.88C115.031 123.068 114.01 123.208 112.964 123.193C111.75 123.177 110.547 122.953 109.344 122.823C106.729 122.552 104.104 122.349 101.484 122.13C98.8489 121.906 96.2083 121.698 93.5833 121.375C93.125 121.323 92.6718 121.26 92.2187 121.188C92.0937 121.167 92.0416 121.359 92.1666 121.38Z" fill="#0F1E2E"/>
<path d="M148.292 4.36983L145.141 1.39587L143.453 3.60942H104.891C103.01 3.60942 101.26 5.11983 100.99 6.97921L91.5365 71.8073L89.0105 75.1303L91.7657 77.7813C92.2917 78.3334 93.0522 78.6719 93.9428 78.6719H135.307C137.188 78.6719 138.938 77.1615 139.208 75.3021L149.172 6.97921C149.323 5.92712 148.969 4.98442 148.292 4.36983Z" fill="#E8E4ED"/>
<mask id="mask1_4865_12585" style="mask-type:luminance" maskUnits="userSpaceOnUse" x="86" y="0" width="61" height="76">
<path d="M86.6667 0.5H146.667V76H86.6667V0.5Z" fill="white"/>
</mask>
<g mask="url(#mask1_4865_12585)">
<path d="M132.057 75.6094H90.698C88.8178 75.6094 87.5105 74.1042 87.7814 72.2448L97.7449 3.92192C98.0157 2.06254 99.7605 0.552124 101.646 0.552124H143.005C144.891 0.552124 146.198 2.06254 145.927 3.92192L135.958 72.2448C135.688 74.1042 133.943 75.6094 132.057 75.6094Z" fill="#E8E4ED"/>
</g>
<path d="M145.437 1.92709C146.016 2.88542 145.839 3.83333 145.687 4.84896C145.531 5.92188 145.375 7 145.219 8.07292C144.974 9.76563 144.724 11.4531 144.479 13.1458C144.161 15.3125 143.849 17.4792 143.531 19.6458C143.167 22.1563 142.802 24.6667 142.432 27.1771C142.042 29.8698 141.646 32.5573 141.255 35.25C140.854 37.9896 140.458 40.7292 140.057 43.4688C139.672 46.125 139.281 48.7813 138.896 51.4427C138.542 53.849 138.193 56.2604 137.839 58.6667C137.542 60.6979 137.25 62.7292 136.953 64.7552C136.729 66.2708 136.51 67.7865 136.292 69.3021C136.167 70.1458 136.042 70.9844 135.922 71.8281C135.901 71.9583 135.885 72.0833 135.865 72.2135C135.573 74.0469 133.922 75.4896 132.057 75.5104C131.354 75.5208 130.651 75.5104 129.948 75.5104C128.146 75.5104 126.344 75.5104 124.542 75.5104C122.068 75.5104 119.589 75.5104 117.109 75.5104C114.339 75.5104 111.573 75.5104 108.802 75.5104C106.167 75.5104 103.536 75.5104 100.901 75.5104C98.7968 75.5104 96.6875 75.5104 94.5833 75.5104C93.4062 75.5104 92.2343 75.5104 91.0572 75.5104C90.4895 75.5104 89.9427 75.474 89.4062 75.2344C89.2916 75.1823 89.1927 75.3594 89.3072 75.4115C90.2447 75.8229 91.3489 75.7135 92.3489 75.7135C94.0572 75.7135 95.7604 75.7135 97.4687 75.7135C99.9114 75.7135 102.354 75.7135 104.797 75.7135C107.568 75.7135 110.344 75.7135 113.115 75.7135C115.812 75.7135 118.51 75.7135 121.203 75.7135C123.391 75.7135 125.573 75.7135 127.755 75.7135C129.031 75.7135 130.297 75.7135 131.568 75.7135C131.839 75.7135 132.104 75.7188 132.37 75.6979C134.193 75.5417 135.771 74.0677 136.057 72.2708C136.125 71.8385 136.182 71.4063 136.245 70.974C136.422 69.7813 136.594 68.5885 136.766 67.3958C137.031 65.6042 137.292 63.8073 137.552 62.0156C137.88 59.7604 138.208 57.5104 138.536 55.2552C138.917 52.6771 139.292 50.099 139.667 47.5208C140.068 44.7813 140.464 42.0469 140.865 39.3125C141.266 36.5573 141.667 33.8021 142.068 31.0417C142.453 28.4115 142.839 25.7813 143.224 23.1458C143.568 20.776 143.911 18.4063 144.26 16.0365C144.542 14.0938 144.823 12.1563 145.109 10.2135C145.307 8.83334 145.51 7.45313 145.708 6.07813C145.807 5.40625 145.906 4.73438 146.005 4.06771C146.115 3.28125 146.026 2.51563 145.609 1.82292C145.542 1.71354 145.37 1.8125 145.437 1.92709Z" fill="#0F1E2E"/>
<path d="M130.818 71.2291H93.1407C91.2136 71.2291 89.8803 69.6875 90.1563 67.7864L99.2553 5.40621C99.5313 3.50517 101.318 1.9635 103.24 1.9635H140.917C142.844 1.9635 144.177 3.50517 143.901 5.40621L134.802 67.7864C134.526 69.6875 132.74 71.2291 130.818 71.2291Z" fill="#78AEFF"/>
<path d="M114.047 43.4011L113.453 47.474C113.406 47.7969 113.104 48.0573 112.776 48.0573H106.109C105.687 48.0573 105.469 47.6302 105.687 47.2448C106.005 46.6875 106.224 46.0782 106.318 45.4375C106.411 44.7969 106.37 44.1875 106.213 43.6302C106.109 43.2448 106.453 42.8177 106.875 42.8177H113.542C113.865 42.8177 114.094 43.0782 114.047 43.4011Z" fill="white"/>
<path d="M105.135 45.4375C104.922 46.8802 103.562 48.0573 102.099 48.0573C100.635 48.0573 99.6197 46.8802 99.8333 45.4375C100.042 43.9896 101.401 42.8177 102.865 42.8177C104.328 42.8177 105.344 43.9896 105.135 45.4375Z" fill="white"/>
<path d="M112.901 51.2605L112.307 55.3334C112.26 55.6563 111.958 55.9167 111.63 55.9167H104.964C104.542 55.9167 104.323 55.4896 104.542 55.1042C104.859 54.5469 105.078 53.9375 105.172 53.2969C105.266 52.6563 105.224 52.0469 105.068 51.4896C104.964 51.1042 105.307 50.6771 105.729 50.6771H112.396C112.719 50.6771 112.948 50.9375 112.901 51.2605Z" fill="white"/>
<path d="M111.755 59.1198L111.161 63.1927C111.109 63.5157 110.812 63.7761 110.484 63.7761H103.818C103.396 63.7761 103.177 63.349 103.396 62.9636C103.713 62.4063 103.932 61.7969 104.026 61.1563C104.12 60.5157 104.078 59.9063 103.922 59.349C103.818 58.9636 104.156 58.5365 104.583 58.5365H111.25C111.573 58.5365 111.802 58.7969 111.755 59.1198Z" fill="white"/>
<path d="M102.838 61.1563C102.63 62.6042 101.271 63.7761 99.8072 63.7761C98.3437 63.7761 97.328 62.6042 97.5364 61.1563C97.7499 59.7084 99.1093 58.5365 100.573 58.5365C102.036 58.5365 103.052 59.7084 102.838 61.1563Z" fill="white"/>
<path d="M129.364 51.2605L128.771 55.3334C128.724 55.6563 128.422 55.9167 128.099 55.9167H121.432C121.005 55.9167 120.792 55.4896 121.01 55.1042C121.328 54.5469 121.547 53.9375 121.641 53.2969C121.734 52.6563 121.693 52.0469 121.536 51.4896C121.427 51.1042 121.771 50.6771 122.193 50.6771H128.864C129.187 50.6771 129.411 50.9375 129.364 51.2605Z" fill="white"/>
<path d="M120.453 53.2969C120.245 54.7396 118.885 55.9167 117.422 55.9167C115.958 55.9167 114.943 54.7396 115.151 53.2969C115.365 51.849 116.719 50.6771 118.182 50.6771C119.651 50.6771 120.667 51.849 120.453 53.2969Z" fill="white"/>
<path d="M130.51 43.4011L129.917 47.474C129.87 47.7969 129.568 48.0573 129.245 48.0573H122.578C122.156 48.0573 121.937 47.6302 122.156 47.2448C122.474 46.6875 122.693 46.0782 122.786 45.4375C122.88 44.7969 122.838 44.1875 122.682 43.6302C122.578 43.2448 122.917 42.8177 123.338 42.8177H130.01C130.333 42.8177 130.557 43.0782 130.51 43.4011Z" fill="white"/>
<path d="M121.599 45.4375C121.391 46.8802 120.031 48.0573 118.568 48.0573C117.104 48.0573 116.089 46.8802 116.297 45.4375C116.51 43.9896 117.87 42.8177 119.333 42.8177C120.797 42.8177 121.812 43.9896 121.599 45.4375Z" fill="white"/>
<path d="M103.984 53.2969C103.776 54.7396 102.417 55.9167 100.953 55.9167C99.4896 55.9167 98.474 54.7396 98.6875 53.2969C98.8959 51.849 100.255 50.6771 101.719 50.6771C103.182 50.6771 104.198 51.849 103.984 53.2969Z" fill="white"/>
<path d="M132.745 40.7239H100.062C99.2135 40.7239 98.6249 40.0416 98.7447 39.2031L102.87 10.9323C102.99 10.0937 103.781 9.41663 104.63 9.41663H137.307C138.161 9.41663 138.75 10.0937 138.625 10.9323L134.5 39.2031C134.38 40.0416 133.594 40.7239 132.745 40.7239Z" fill="white"/>
<path d="M102.401 14.2604C104.583 14.2604 106.766 14.2604 108.943 14.2604C111.188 14.2604 113.427 14.2604 115.667 14.2604C116.776 14.2604 117.885 14.2604 118.995 14.2604C119.526 14.2604 120.057 14.2604 120.589 14.2604C120.865 14.2604 121.135 14.2604 121.412 14.2604C121.474 14.2604 121.537 14.2604 121.599 14.2604C121.609 14.2604 121.766 14.25 121.714 14.2344C121.719 14.2344 121.724 14.2396 121.724 14.2448C121.797 14.2761 121.88 14.3907 121.932 14.4479C122.073 14.5834 122.208 14.7188 122.344 14.8542C122.734 15.2344 123.12 15.6146 123.505 15.9948C124.141 16.6198 124.766 17.2552 125.412 17.8646C125.495 17.9427 125.568 17.9323 125.677 17.9323C125.917 17.9323 126.156 17.9323 126.396 17.9323C127.302 17.9323 128.214 17.9323 129.12 17.9323C130.287 17.9323 131.453 17.9323 132.62 17.9323C133.677 17.9323 134.734 17.9323 135.797 17.9323C136.375 17.9323 136.958 17.9323 137.537 17.9323C137.563 17.9323 137.594 17.9323 137.62 17.9323C137.75 17.9323 137.75 17.7344 137.62 17.7344C137.214 17.7344 136.807 17.7344 136.401 17.7344C135.427 17.7344 134.448 17.7344 133.474 17.7344C132.302 17.7344 131.125 17.7344 129.953 17.7344C128.948 17.7344 127.943 17.7344 126.932 17.7344C126.609 17.7344 126.287 17.7344 125.958 17.7344C125.865 17.7344 125.766 17.7344 125.672 17.7344C125.646 17.7344 125.552 17.7188 125.531 17.7344C125.51 17.75 125.589 17.7709 125.583 17.7552C125.583 17.7396 125.531 17.7032 125.521 17.6927C125.422 17.5938 125.323 17.5 125.224 17.4011C124.87 17.0573 124.521 16.7084 124.167 16.3646C123.453 15.6615 122.74 14.9584 122.021 14.2552C121.969 14.2032 121.917 14.1354 121.859 14.0938C121.745 14.0157 121.516 14.0625 121.38 14.0625C121.104 14.0625 120.833 14.0625 120.557 14.0625C119.474 14.0625 118.391 14.0625 117.307 14.0625C115.073 14.0625 112.833 14.0625 110.599 14.0625C108.391 14.0625 106.182 14.0625 103.974 14.0625C103.448 14.0625 102.922 14.0625 102.401 14.0625C102.271 14.0625 102.271 14.2604 102.401 14.2604Z" fill="#78AEFF"/>
<path d="M101.453 20.7395C103.682 20.4687 105.906 20.1926 108.135 19.9166C109.245 19.7812 110.359 19.6458 111.474 19.5104C111.745 19.4739 112.016 19.4426 112.292 19.4062C112.432 19.3906 112.609 19.3333 112.75 19.3489C112.807 19.3541 112.865 19.3749 112.922 19.3906C114.724 19.8593 116.521 20.3281 118.323 20.7968C118.948 20.9583 119.573 21.1197 120.198 21.2864C120.177 21.2604 120.151 21.2395 120.13 21.2135C120.286 21.8281 120.443 22.4374 120.599 23.0468C120.708 23.4583 120.813 23.8645 120.917 24.2708C120.948 24.3958 120.979 24.5156 121.01 24.6406C121.031 24.7135 121.031 24.7812 121.109 24.8176C121.286 24.9114 121.516 24.9479 121.703 25.0051C122.229 25.1666 122.755 25.3333 123.281 25.4947C124.906 25.9999 126.531 26.5051 128.156 27.0104C129.823 27.5312 131.49 28.0468 133.161 28.5676C133.755 28.7551 134.349 28.9374 134.948 29.1249C135.234 29.2135 135.526 29.3229 135.818 29.3958C135.833 29.3958 135.844 29.401 135.859 29.4062C135.979 29.4479 136.031 29.2551 135.911 29.2135C135.422 29.0624 134.932 28.9114 134.443 28.7604C133.271 28.3958 132.099 28.0312 130.927 27.6666C129.5 27.2187 128.073 26.776 126.651 26.3333C125.427 25.9531 124.203 25.5729 122.984 25.1926C122.578 25.0676 122.167 24.9426 121.76 24.8124C121.635 24.776 121.51 24.7343 121.385 24.6979C121.323 24.677 121.25 24.6406 121.188 24.6354C121.177 24.6354 121.167 24.6301 121.161 24.6249C121.182 24.651 121.208 24.6718 121.229 24.6979C120.969 23.6666 120.703 22.6354 120.438 21.6041C120.401 21.4583 120.359 21.3072 120.323 21.1614C120.312 21.1301 120.286 21.0989 120.255 21.0937C118.693 20.6874 117.13 20.2812 115.568 19.8749C114.745 19.6614 113.922 19.4479 113.099 19.2343C113.016 19.2083 112.932 19.1874 112.849 19.1666C112.672 19.1249 112.474 19.1874 112.292 19.2083C111.177 19.3437 110.062 19.4791 108.953 19.6197C106.453 19.927 103.953 20.2343 101.453 20.5416C101.328 20.5572 101.328 20.7551 101.453 20.7395Z" fill="#78AEFF"/>
<path d="M100.948 23.8438C101.578 24.2969 102.208 24.75 102.833 25.2031C103.12 25.4115 103.411 25.6198 103.698 25.8281C103.854 25.9375 104.01 26.0469 104.161 26.1615C104.333 26.2865 104.505 26.4375 104.693 26.5417C104.76 26.5833 104.818 26.5781 104.896 26.5781C105.031 26.5833 105.161 26.5886 105.297 26.5886C106.49 26.625 107.688 26.6615 108.88 26.6927C110.609 26.7448 112.339 26.7917 114.073 26.8438C115.594 26.8854 117.12 26.9323 118.641 26.974C119.109 26.9896 119.573 27.0052 120.042 27.0156C120.156 27.0208 120.271 27.0208 120.385 27.0261C120.401 27.0261 120.448 27.0365 120.464 27.0261C120.49 27.0104 120.401 26.974 120.406 27.0052C120.417 27.0417 120.51 27.1094 120.536 27.1354C120.635 27.2292 120.729 27.3281 120.823 27.4219C121.151 27.7448 121.474 28.0729 121.802 28.3958C122.828 29.4271 123.859 30.4531 124.885 31.4792C126.125 32.7188 127.365 33.9531 128.604 35.1927C129.693 36.2813 130.786 37.375 131.88 38.4636C132.469 39.0521 133.057 39.6406 133.646 40.2292C133.672 40.2552 133.698 40.2813 133.729 40.3073C133.818 40.4011 133.958 40.2604 133.87 40.1667C133.453 39.7552 133.036 39.3386 132.62 38.9219C131.62 37.9219 130.615 36.9167 129.609 35.9167C128.375 34.6823 127.141 33.4479 125.906 32.2136C124.792 31.099 123.677 29.9844 122.563 28.875C121.932 28.2448 121.302 27.6146 120.672 26.9844C120.578 26.8958 120.531 26.8281 120.396 26.8281C120.094 26.8177 119.786 26.8073 119.479 26.8021C118.12 26.7604 116.76 26.7188 115.401 26.6823C113.661 26.6302 111.922 26.5833 110.182 26.5313C108.776 26.4896 107.365 26.4479 105.953 26.4115C105.604 26.4011 105.26 26.3906 104.911 26.3802C104.797 26.375 104.792 26.3854 104.714 26.3125C104.573 26.1823 104.396 26.0833 104.24 25.9688C104.078 25.8542 103.917 25.7396 103.755 25.6198C103.458 25.4063 103.167 25.1979 102.87 24.9844C102.266 24.5469 101.656 24.1094 101.052 23.6667C100.948 23.5938 100.844 23.7656 100.948 23.8438Z" fill="#78AEFF"/>
<path d="M112.922 19.2136C113.167 17.5469 113.406 15.8803 113.651 14.2136C113.667 14.0886 113.474 14.0365 113.458 14.1615C113.214 15.8282 112.974 17.4948 112.729 19.1615C112.714 19.2865 112.906 19.3386 112.922 19.2136Z" fill="#78AEFF"/>
<path d="M124.458 25.7448C124.76 23.6979 125.057 21.6511 125.354 19.6094C125.437 19.0261 125.526 18.4427 125.609 17.8594C125.547 17.8386 125.479 17.8229 125.417 17.8073C125.406 17.8854 125.391 17.9636 125.38 18.0469C125.365 18.1719 125.557 18.224 125.573 18.099C125.588 18.0209 125.599 17.9375 125.609 17.8594C125.63 17.7344 125.432 17.6771 125.417 17.8073C125.12 19.849 124.818 21.8959 124.521 23.9427C124.437 24.5261 124.349 25.1094 124.266 25.6927C124.25 25.8177 124.443 25.8698 124.458 25.7448Z" fill="#78AEFF"/>
<path d="M116.682 26.6666C116.917 25.0468 117.151 23.4323 117.391 21.8125C117.453 21.375 117.516 20.9375 117.578 20.5C117.599 20.375 117.406 20.3229 117.385 20.4479C117.151 22.0677 116.917 23.6875 116.677 25.3021C116.615 25.7396 116.552 26.1771 116.49 26.6146C116.469 26.7396 116.661 26.7968 116.682 26.6666Z" fill="#78AEFF"/>
<path d="M103.542 34.1823C106.016 34.1823 108.495 34.1823 110.969 34.1823C111.667 34.1823 112.359 34.1823 113.057 34.1823C113.188 34.1823 113.188 33.9844 113.057 33.9844C110.583 33.9844 108.109 33.9844 105.635 33.9844C104.938 33.9844 104.24 33.9844 103.542 33.9844C103.412 33.9844 103.412 34.1823 103.542 34.1823Z" fill="#78AEFF"/>
<path d="M103.344 35.5364C104.953 35.5364 106.563 35.5364 108.172 35.5364C108.474 35.5364 108.776 35.5364 109.078 35.5364C109.203 35.5364 109.203 35.3385 109.078 35.3385C107.776 35.3385 106.474 35.3385 105.172 35.3385C104.563 35.3385 103.953 35.3385 103.344 35.3385C103.214 35.3385 103.214 35.5364 103.344 35.5364Z" fill="#78AEFF"/>
<path d="M103.146 36.8958C105.62 36.8958 108.099 36.8958 110.573 36.8958C111.271 36.8958 111.969 36.8958 112.661 36.8958C112.792 36.8958 112.792 36.6979 112.661 36.6979C110.187 36.6979 107.713 36.6979 105.24 36.6979C104.542 36.6979 103.844 36.6979 103.146 36.6979C103.016 36.6979 103.016 36.8958 103.146 36.8958Z" fill="#78AEFF"/>
<path d="M100.068 30.2552C100.448 30.2552 100.833 30.2552 101.213 30.2552C102.182 30.2552 103.151 30.2552 104.12 30.2552C105.406 30.2552 106.693 30.2552 107.979 30.2552C109.307 30.2552 110.641 30.2552 111.969 30.2552C113.083 30.2552 114.193 30.2552 115.307 30.2552C115.937 30.2552 116.568 30.2552 117.198 30.2552C117.344 30.2552 117.557 30.2343 117.536 30.4583C117.521 30.6666 117.474 30.8802 117.448 31.0885C117.292 32.1458 117.135 33.2031 116.984 34.2656C116.792 35.5624 116.604 36.8593 116.411 38.1614C116.297 38.9687 116.177 39.7708 116.062 40.5781C116.057 40.6145 116.052 40.6562 116.042 40.6927C116.026 40.8229 116.219 40.8749 116.234 40.7499C116.323 40.1614 116.406 39.5677 116.495 38.9791C116.677 37.7187 116.865 36.4531 117.047 35.1927C117.219 34.0104 117.391 32.8333 117.562 31.651C117.609 31.3229 117.661 30.9999 117.708 30.6718C117.713 30.6145 117.724 30.5572 117.729 30.4999C117.766 30.2552 117.604 30.0677 117.354 30.0572C116.917 30.0416 116.474 30.0572 116.036 30.0572C115.026 30.0572 114.016 30.0572 113.005 30.0572C111.693 30.0572 110.375 30.0572 109.062 30.0572C107.729 30.0572 106.391 30.0572 105.052 30.0572C103.974 30.0572 102.891 30.0572 101.812 30.0572C101.255 30.0572 100.698 30.0572 100.141 30.0572C100.115 30.0572 100.088 30.0572 100.068 30.0572C99.9374 30.0572 99.9374 30.2552 100.068 30.2552Z" fill="#78AEFF"/>
<path d="M111.885 14.8855C111.656 16.4427 110.193 17.7084 108.62 17.7084C107.042 17.7084 105.948 16.4427 106.177 14.8855C106.401 13.3282 107.865 12.0677 109.443 12.0677C111.016 12.0677 112.109 13.3282 111.885 14.8855Z" fill="#FFBA61"/>
<path d="M109.255 13.6459L108.583 14.0313C108.552 14.0573 108.521 14.073 108.484 14.0886C108.448 14.1094 108.417 14.1146 108.391 14.1146C108.359 14.1146 108.328 14.1042 108.307 14.0782C108.281 14.0573 108.271 14.0261 108.276 13.9948C108.286 13.9427 108.318 13.9011 108.37 13.8698L109.349 13.2969C109.38 13.2813 109.411 13.2709 109.443 13.2709C109.49 13.2709 109.526 13.2865 109.552 13.3177C109.578 13.349 109.588 13.3855 109.578 13.4323L109.161 16.323C109.151 16.3646 109.135 16.4011 109.104 16.4271C109.068 16.4532 109.031 16.4688 108.99 16.4688C108.948 16.4688 108.917 16.4532 108.891 16.4271C108.865 16.4011 108.859 16.3646 108.865 16.323L109.255 13.6459Z" fill="white"/>
<path d="M111.797 25.4948C111.568 27.0521 110.109 28.3177 108.531 28.3177C106.953 28.3177 105.859 27.0521 106.088 25.4948C106.312 23.9375 107.776 22.6719 109.354 22.6719C110.927 22.6719 112.026 23.9375 111.797 25.4948Z" fill="#468551"/>
<path d="M109.651 26.8177C109.646 26.8594 109.63 26.8907 109.599 26.9167C109.568 26.9427 109.531 26.9584 109.49 26.9584H107.99C107.943 26.9584 107.906 26.9427 107.88 26.9115C107.854 26.8802 107.849 26.8438 107.854 26.8021C107.859 26.7761 107.865 26.75 107.87 26.724C107.875 26.6927 107.891 26.6667 107.906 26.6355C107.958 26.5469 108.021 26.4584 108.099 26.3646C108.172 26.2761 108.25 26.1875 108.333 26.1042C108.422 26.0209 108.505 25.9427 108.594 25.8646C108.682 25.7865 108.771 25.7084 108.849 25.6407C108.932 25.573 109.016 25.5052 109.094 25.4323C109.177 25.3646 109.25 25.2969 109.323 25.2292C109.401 25.1511 109.474 25.0625 109.536 24.9636C109.604 24.8698 109.646 24.7552 109.661 24.6302C109.687 24.4532 109.661 24.3073 109.578 24.1927C109.5 24.073 109.359 24.0157 109.161 24.0157C109.073 24.0157 108.99 24.0209 108.911 24.0365C108.833 24.0521 108.76 24.0782 108.693 24.1042C108.677 24.1094 108.656 24.1198 108.63 24.1302C108.604 24.1459 108.583 24.1563 108.562 24.1719C108.536 24.1875 108.51 24.198 108.484 24.2084C108.463 24.2188 108.437 24.224 108.417 24.224C108.38 24.224 108.349 24.2136 108.328 24.1927C108.302 24.1667 108.292 24.1355 108.297 24.0938C108.307 24.0417 108.344 23.9948 108.422 23.948C108.667 23.8177 108.927 23.7552 109.203 23.7552C109.338 23.7552 109.458 23.7761 109.562 23.8177C109.667 23.8594 109.75 23.9167 109.812 23.9948C109.88 24.0677 109.922 24.1563 109.948 24.2605C109.974 24.3594 109.979 24.4688 109.963 24.5834C109.932 24.7657 109.88 24.9219 109.802 25.0469C109.724 25.1719 109.63 25.2917 109.521 25.3907C109.443 25.474 109.365 25.5469 109.292 25.6042C109.224 25.6667 109.156 25.724 109.088 25.7761C108.927 25.9063 108.771 26.0469 108.62 26.1927C108.469 26.3334 108.333 26.5 108.219 26.6823H109.531C109.573 26.6823 109.604 26.6927 109.625 26.724C109.651 26.75 109.656 26.7813 109.651 26.8177Z" fill="white"/>
<path d="M121.156 14.8855C120.927 16.4427 119.463 17.7084 117.885 17.7084C116.312 17.7084 115.213 16.4427 115.443 14.8855C115.672 13.3282 117.135 12.0677 118.708 12.0677C120.286 12.0677 121.38 13.3282 121.156 14.8855Z" fill="#CC5D2D"/>
<path d="M118.266 14.6406C118.401 14.6458 118.526 14.6666 118.63 14.7083C118.74 14.75 118.833 14.802 118.906 14.875C118.979 14.9479 119.036 15.0364 119.068 15.1406C119.099 15.2448 119.104 15.3645 119.089 15.4948C119.073 15.6093 119.036 15.7239 118.984 15.8385C118.932 15.9583 118.859 16.0625 118.771 16.1614C118.682 16.2552 118.573 16.3333 118.448 16.3958C118.318 16.4583 118.172 16.4895 118.005 16.4895C117.964 16.4895 117.896 16.4843 117.807 16.4791C117.719 16.4739 117.635 16.4583 117.547 16.4375C117.458 16.4166 117.385 16.3854 117.323 16.3489C117.266 16.3125 117.24 16.2604 117.245 16.1927C117.25 16.1562 117.271 16.125 117.297 16.0937C117.328 16.0677 117.365 16.052 117.401 16.052C117.422 16.052 117.443 16.0625 117.479 16.0781C117.552 16.1145 117.625 16.151 117.708 16.1875C117.792 16.2187 117.896 16.2343 118.031 16.2343C118.156 16.2343 118.266 16.2135 118.354 16.1666C118.443 16.125 118.521 16.0677 118.578 16C118.641 15.9323 118.688 15.8541 118.719 15.7708C118.755 15.6823 118.776 15.5989 118.792 15.5156C118.823 15.2916 118.781 15.1354 118.672 15.0364C118.563 14.9427 118.417 14.8958 118.229 14.8958C118.172 14.8958 118.115 14.9062 118.057 14.9323C118.026 14.9479 118 14.9531 117.99 14.9531C117.974 14.9531 117.958 14.9531 117.948 14.9531C117.922 14.9531 117.901 14.9479 117.885 14.9323C117.87 14.9166 117.854 14.8958 117.849 14.875C117.844 14.8593 117.844 14.8333 117.849 14.8073C117.854 14.7864 117.87 14.7604 117.891 14.7343L118.911 13.6302H117.823C117.781 13.6302 117.75 13.6198 117.724 13.5937C117.703 13.5677 117.693 13.5364 117.698 13.4948C117.703 13.4531 117.724 13.4166 117.755 13.3854C117.786 13.3541 117.823 13.3385 117.865 13.3385H119.141C119.187 13.3385 119.224 13.3541 119.245 13.3854C119.271 13.4166 119.281 13.4583 119.276 13.5104C119.266 13.5573 119.25 13.5937 119.224 13.6198L118.266 14.6406Z" fill="white"/>
<path d="M130.193 33.2396C129.963 34.7969 128.5 36.0625 126.922 36.0625C125.349 36.0625 124.255 34.7969 124.479 33.2396C124.708 31.6823 126.172 30.4219 127.745 30.4219C129.323 30.4219 130.417 31.6823 130.193 33.2396Z" fill="#D9BEFA"/>
<path d="M127.682 34.599C127.672 34.6407 127.656 34.6719 127.625 34.7032C127.594 34.7292 127.557 34.7396 127.516 34.7396C127.474 34.7396 127.443 34.7292 127.417 34.7032C127.391 34.6719 127.385 34.6407 127.391 34.599L127.474 34.0313H126.302C126.255 34.0313 126.219 34.0105 126.193 33.9792C126.172 33.948 126.161 33.9115 126.167 33.8698C126.167 33.8646 126.172 33.849 126.182 33.8282C126.193 33.8073 126.203 33.7813 126.219 33.7605L127.411 31.5886C127.432 31.5677 127.453 31.5469 127.479 31.5313C127.5 31.5157 127.526 31.5052 127.552 31.5052C127.583 31.5052 127.615 31.5209 127.641 31.5469C127.667 31.5782 127.677 31.6094 127.672 31.6511C127.667 31.6771 127.667 31.6927 127.661 31.7032L126.526 33.7552H127.51L127.646 32.8438C127.651 32.8021 127.672 32.7657 127.703 32.7396C127.734 32.7084 127.771 32.698 127.818 32.698C127.854 32.698 127.885 32.7084 127.911 32.7396C127.932 32.7657 127.943 32.8021 127.937 32.8438L127.802 33.7552H128.036C128.073 33.7552 128.099 33.7709 128.12 33.7969C128.141 33.8282 128.151 33.8594 128.146 33.8907C128.141 33.9323 128.125 33.9636 128.094 33.9896C128.062 34.0157 128.031 34.0313 127.995 34.0313H127.766L127.682 34.599Z" fill="white"/>
<path d="M133 18.5625C132.771 20.1198 131.307 21.3802 129.734 21.3802C128.156 21.3802 127.062 20.1198 127.286 18.5625C127.516 17.0052 128.979 15.7396 130.557 15.7396C132.13 15.7396 133.224 17.0052 133 18.5625Z" fill="#78AEFF"/>
<path d="M130.953 19.0416C130.932 19.1666 130.896 19.2864 130.844 19.4062C130.797 19.5312 130.724 19.6406 130.641 19.7343C130.552 19.8333 130.453 19.9114 130.333 19.9739C130.208 20.0312 130.073 20.0625 129.917 20.0625C129.875 20.0625 129.802 20.0573 129.708 20.052C129.615 20.0416 129.521 20.0312 129.427 20.0104C129.339 19.9895 129.255 19.9583 129.193 19.9218C129.125 19.8802 129.099 19.8333 129.104 19.7656C129.115 19.7291 129.13 19.6927 129.161 19.6666C129.187 19.6406 129.224 19.625 129.26 19.625C129.276 19.625 129.302 19.6354 129.339 19.651V19.6458C129.396 19.6875 129.464 19.7239 129.542 19.7552C129.62 19.7916 129.724 19.8073 129.849 19.8073C129.984 19.8073 130.094 19.7864 130.193 19.7448C130.286 19.6979 130.37 19.6458 130.432 19.5729C130.495 19.5052 130.542 19.427 130.578 19.3333C130.615 19.2448 130.641 19.1562 130.656 19.0573C130.687 18.8229 130.656 18.6458 130.557 18.5312C130.458 18.4166 130.323 18.3593 130.151 18.3593C130.083 18.3593 130.021 18.3698 129.958 18.3906C129.896 18.4062 129.839 18.4323 129.786 18.4583L129.682 18.5208C129.656 18.5364 129.635 18.5468 129.615 18.5625C129.589 18.5729 129.568 18.5781 129.542 18.5781C129.5 18.5781 129.464 18.5625 129.437 18.5312C129.406 18.5052 129.401 18.4687 129.411 18.4166L129.651 17.0729C129.661 17.0156 129.687 16.9739 129.729 16.9479C129.771 16.9166 129.812 16.901 129.854 16.901H130.953C130.995 16.901 131.036 16.9166 131.068 16.9323C131.104 16.9531 131.115 16.9895 131.109 17.0468C131.099 17.0937 131.078 17.125 131.036 17.1458C131 17.1614 130.958 17.1718 130.917 17.1718H129.896L129.703 18.2448C129.792 18.1927 129.88 18.1614 129.958 18.1406C130.042 18.1198 130.12 18.1093 130.198 18.1093C130.328 18.1093 130.443 18.1302 130.547 18.1718C130.651 18.2187 130.734 18.276 130.802 18.3541C130.865 18.4375 130.911 18.5312 130.943 18.6458C130.969 18.7656 130.974 18.8958 130.953 19.0416Z" fill="white"/>
<path d="M19.0989 125.271C20.901 125.229 21.2291 124.365 22.4271 123.083C22.4375 121.083 22.4843 118.349 22.5156 117.484C22.5312 117.073 22.5781 116.661 22.6562 116.26C22.5208 116.198 22.3854 116.141 22.25 116.083C20.8385 115.49 19.3698 115.062 17.8802 114.807C17.7812 115.422 17.6875 116.031 17.6041 116.651C17.3958 118.187 17.2396 119.74 17.1354 121.292C17.0885 122.026 17.1302 123.536 17.25 124.292C17.7343 125 18.2187 125.318 19.0989 125.271Z" fill="#B55D38"/>
<path d="M28.6249 125C28.2031 124.214 27.5312 123.833 26.7916 123.422C25.6458 122.792 24.3072 122.281 23.2812 121.526C22.6666 121.078 22.0989 120.938 21.427 121.427C21.0103 121.724 20.6822 122.125 20.1978 122.333C19.703 122.547 19.1093 122.531 18.5833 122.385C18.0572 122.24 17.5885 121.974 17.1197 121.719C17.1145 121.818 17.0312 123.162 17.2499 124.521C17.3385 125.089 17.4218 125.427 17.9478 125.672C19.2187 126.266 21.1406 126.563 22.4999 126.74C23.5312 126.875 24.5676 126.917 25.6093 126.912C26.4895 126.912 27.7864 126.787 28.3906 126.333C28.9114 125.943 28.8801 125.479 28.6249 125Z" fill="#0F1E2E"/>
<path d="M17.4011 124.656C20.3646 125.615 23.4948 126.089 26.6094 125.901C27.349 125.854 28.1094 125.766 28.7083 125.297C28.8073 125.219 28.6667 125.078 28.5625 125.156C28.0261 125.578 27.3177 125.656 26.6615 125.698C25.9167 125.745 25.1719 125.75 24.4271 125.724C22.9167 125.672 21.4115 125.469 19.9375 125.141C19.099 124.953 18.2708 124.729 17.4531 124.464C17.3333 124.427 17.2813 124.615 17.4011 124.656Z" fill="#7D95AD"/>
<path d="M31.0469 27.4896C30.6614 28.9062 29.8698 30.2812 28.5052 30.9479C27.2135 31.5833 25.6875 31.5364 24.3333 31.1406C23.5364 30.9114 22.776 30.5677 22.0417 30.1823C21.3281 29.8073 20.6042 29.4166 19.9479 28.9427C19.3177 28.4896 18.7812 27.9219 18.4062 27.2344C18.2239 26.9062 18.0781 26.5469 18.0364 26.1666C17.7812 24.0573 19.3177 22.4219 20.9739 21.3541C21.8281 20.8021 22.7604 20.3594 23.7083 19.9896C24.7396 19.5885 25.9219 19.3698 26.8125 18.6823C27.3489 18.2656 27.6979 17.6666 27.9531 17.0521C28.3229 16.9375 28.7292 16.9479 29.1094 17.0573C29.7239 17.2291 30.2239 17.625 30.5781 18.151C30.9687 18.7291 31.1771 19.4166 31.3073 20.0989C31.4583 20.8802 31.526 21.6823 31.5469 22.4791C31.5677 23.3177 31.5312 24.1562 31.4531 24.9896C31.375 25.8281 31.2708 26.6719 31.0469 27.4896Z" fill="#0F1E2E"/>
<path d="M39.8646 23.8958C39.7239 23.4219 39.5052 22.9687 39.25 22.5417C38.8021 21.7865 38.2864 21.0729 37.7291 20.3958C36.3698 18.7552 35.4896 17.0156 35.4948 16.9375C35.4062 16.9375 35.4739 16.9531 35.4427 16.9688C35.0677 17.1146 34.9687 17.2656 34.651 17.5156C34.0104 18.0365 33.5156 18.7292 33.2031 19.4896C32.8593 20.3385 32.7552 21.2604 32.8385 22.1719C32.9323 23.1563 33.2396 24.1146 33.6875 24.9948C34.0573 25.7187 34.5468 26.4688 35.2968 26.8438C35.7083 27.0521 36.1666 27.099 36.6198 27.0573C37.1406 27.0104 37.6614 26.8958 38.1718 26.776C38.6406 26.6719 39.1614 26.5729 39.5312 26.25C39.8333 25.9896 39.9843 25.6042 40.0208 25.2135C40.0677 24.7708 39.9896 24.3229 39.8646 23.8958Z" fill="#0F1E2E"/>
<path d="M16.9115 118.708C16.8698 118.656 16.8125 118.62 16.75 118.599C16.4167 117.838 15.9323 117.125 15.1927 116.719C14.7969 116.5 14.3438 116.38 13.8958 116.406C13.8229 116.406 13.7448 116.417 13.6719 116.427C13.5156 116.406 13.3646 116.396 13.2136 116.406C13 116.417 12.7604 116.458 12.5729 116.557C12.3646 116.661 12.2969 116.87 12.2761 117.083C12.2604 117.234 12.2656 117.385 12.2813 117.531C11.6823 118.682 11.0886 119.838 10.5156 121.005C10.1927 121.651 9.89064 122.302 9.65626 122.984C9.4323 123.646 9.26564 124.344 9.26043 125.042C9.25522 125.349 9.31772 125.667 9.53647 125.901C9.71876 126.094 10.6667 126.193 10.9323 126.208C10.974 126.213 11.0104 126.213 11.0469 126.213C11.6511 126.203 12.1511 125.786 12.5729 125.391C13.5833 124.443 14.4323 123.338 15.2031 122.193C15.5886 121.62 15.9583 121.031 16.3177 120.443C16.5 120.146 16.6771 119.849 16.8542 119.552C17.0052 119.297 17.1354 118.963 16.9115 118.708Z" fill="#0F1E2E"/>
<path d="M10.5937 125.906C10.1093 124.906 10.5937 123.714 10.9635 122.76C11.3645 121.714 11.8541 120.703 12.4166 119.74C12.7343 119.198 13.0781 118.672 13.4426 118.161C13.5156 118.057 13.3437 117.953 13.2708 118.057C12.5937 119.005 11.9947 120.01 11.4843 121.057C11.2343 121.573 11.0103 122.094 10.802 122.62C10.5989 123.146 10.3958 123.682 10.2812 124.234C10.1562 124.833 10.151 125.453 10.4218 126.01C10.4791 126.125 10.651 126.026 10.5937 125.906Z" fill="#7D95AD"/>
<path d="M39.8645 59.2709C39.1041 54.6771 37.9791 50.1459 36.5729 45.7032C35.0312 45.6824 33.4895 45.7917 31.9583 46.0209C31.5052 46.0834 31.052 46.1615 30.5989 46.2449C30.5989 46.323 30.5989 46.4063 30.6041 46.4844C28.8698 46.849 28.8541 47.3126 27.177 47.8959C24.802 49.9011 23.0677 52.6511 21.9375 55.5365C20.0156 60.4324 19.5885 65.7605 18.8437 70.9219C18.0573 76.3386 17.1406 81.7396 15.901 87.073C14.6875 92.2605 13.0833 97.3334 11.6823 102.469C10.302 107.531 8.84371 117.531 8.8385 117.969C11.1093 119.323 18.0573 120.115 24.0833 120.052C24.2968 118.698 24.5 117.344 24.6875 115.99C24.7656 115.438 24.8437 114.88 24.9166 114.323C25.1979 113.984 25.4791 113.641 25.7604 113.302C27.4895 111.193 29.1354 109.021 30.651 106.755C33.677 102.255 36.151 97.4063 37.8489 92.2501C39.5625 87.0313 40.526 81.5782 40.8385 76.099C41.1562 70.474 40.7812 64.823 39.8645 59.2709Z" fill="#D9BEFA"/>
<path d="M23.9739 51.8229C25.7708 52.177 27.6094 52.2968 29.4427 52.2656C31.3385 52.2343 33.2344 52.0364 35.0937 51.6458C36.0625 51.4427 37.026 51.1875 37.9583 50.8593C38.0833 50.8177 38.0312 50.625 37.9062 50.6666C36.2083 51.2656 34.4323 51.6302 32.651 51.8437C30.776 52.0729 28.8802 52.1354 26.9948 52.0104C26 51.9427 25.0052 51.8229 24.026 51.6302C23.901 51.6041 23.8437 51.7968 23.9739 51.8229Z" fill="#0F1E2E"/>
<path d="M45.3073 32.0834C44.7552 30.5938 44.3594 30.2032 43.6615 28.7865C43.026 27.4948 42.2656 26.2552 41.2708 25.224C40.224 24.1355 38.9375 23.3646 37.4688 22.9323C35.8438 22.4532 34.099 22.3594 32.3802 22.4063C31.349 22.4323 28.4323 22.4896 27.4323 22.7865C25.0677 23.4948 19.8281 23.823 17.4063 28.224C14.526 33.4584 13.4219 37.0782 13.4219 37.0782L14.0573 37.1875C14.5104 37.2761 20.3229 38.5052 20.8177 38.5938C20.3958 40.8907 19.8594 44.8282 20.3281 45.6302C22.3646 49.0886 26.9635 49.4688 30.7188 49.0469C34.1719 48.6615 39.1771 48.1355 39.8177 43.8334C39.9063 43.25 39.099 37.5677 39.1146 36.0782C41.0052 35.0313 42.8385 33.9011 44.7396 32.8698C44.9635 32.7552 45.1823 32.6407 45.401 32.5261C45.026 31.3698 45.724 33.2188 45.3073 32.0834Z" fill="#E8E4ED"/>
<path d="M39.0104 29.3021C39.2917 31.7865 39.5677 34.2657 39.8489 36.7448C39.9219 37.4375 40 38.1355 40.0781 38.8282C40.0937 38.9532 40.2917 38.9532 40.2812 38.8282C40 36.349 39.7239 33.8646 39.4479 31.3855C39.3698 30.6927 39.2917 30 39.2135 29.3021C39.1979 29.1771 39 29.1771 39.0104 29.3021Z" fill="#0F1E2E"/>
<path d="M26.3125 30.4062C25.7708 32.4219 25.2291 34.4375 24.6875 36.4479C24.5312 37.026 24.3802 37.599 24.2239 38.1771C24.1875 38.3021 24.3802 38.3542 24.4166 38.2292C24.9583 36.2135 25.5 34.2031 26.0416 32.1875C26.1979 31.6146 26.3541 31.0365 26.5052 30.4583C26.5416 30.3385 26.3489 30.2812 26.3125 30.4062Z" fill="#0F1E2E"/>
<path d="M28.099 22.7344C28.6823 23.5417 29.4948 24.2604 30.5052 24.4531C31.401 24.625 32.2917 24.3177 33.0052 23.7709C33.4792 23.4063 33.8698 22.9479 34.1927 22.4479C34.2604 22.3386 34.0885 22.2344 34.0156 22.3438C33.5156 23.125 32.8073 23.8386 31.9063 24.1511C31.0781 24.4323 30.2188 24.2917 29.4844 23.8229C29.0052 23.5104 28.6042 23.0938 28.2708 22.6302C28.1979 22.5313 28.0208 22.6302 28.099 22.7344Z" fill="#0F1E2E"/>
<path d="M33.0782 18.4375L33.0522 22.1562C33.0417 23.1823 32.0886 23.4948 31.4376 23.5468C30.0522 23.6614 29.2501 22.7135 29.3438 21.9687L29.797 18.3073L33.0782 18.4375Z" fill="#B55D38"/>
<path d="M28.1615 13.7084C28.2032 13.5521 28.2605 13.3959 28.3386 13.2448C29.224 11.5 31.75 11.3334 33.4323 11.9636C34.5573 12.3802 35.2865 13.2552 35.573 14.3229C35.7761 15.0938 35.724 15.7396 35.7396 16.2813C35.7709 17.3438 35.9375 17.875 36.0261 18.7292C36.198 20.474 35.323 21.4636 33.8959 21.1615C32.3594 20.8334 30.6615 19.75 29.698 18.6927C28.5417 17.4115 27.9427 16.2292 28.0313 14.5469C28.0469 14.2656 28.0834 13.9792 28.1615 13.7084Z" fill="#B55D38"/>
<path d="M29.4374 21.0833C30.0364 20.8281 30.1926 23.6458 30.776 23.3489C31.2135 21.9843 30.9999 19.9791 30.9843 19.7448C30.9583 19.2708 31.1041 18.6041 30.9426 18.1614C30.7968 17.7604 30.6145 17.3698 30.401 16.9948C30.5364 16.8906 30.6666 16.7812 30.7916 16.6718C31.1562 16.3646 31.5051 16.0312 31.8176 15.6718C32.4374 14.9687 32.953 14.151 33.2187 13.25C33.2968 13.0052 33.3489 12.75 33.3853 12.4896C33.4114 12.2864 33.4322 12.0677 33.4218 11.8541C33.4687 11.6875 34.1718 11.7396 34.0468 11.6198C33.9322 11.5052 33.0051 11.1771 32.8593 11.125C32.6822 11.0625 32.5103 11.0052 32.3333 10.9531C31.2916 10.6406 30.1093 10.526 29.0937 11.0208C28.1301 11.4896 27.4374 12.5364 27.2291 13.5677C26.9426 14.9479 27.6093 16.2291 27.8176 17.5625C27.927 18.2448 27.8749 18.9323 27.6458 19.5885C27.4218 20.2291 27.0572 20.8073 26.6041 21.3125C26.3124 21.6302 25.9895 21.9218 25.6614 22.2135C26.9635 22.0625 28.2447 21.5989 29.4374 21.0833Z" fill="#0F1E2E"/>
<path d="M32.3803 17.7604C32.1094 18.4375 31.3386 18.7708 30.6563 18.4947C29.9792 18.2239 29.6459 17.4583 29.9167 16.776C30.1928 16.0989 30.9636 15.7708 31.6407 16.0416C32.323 16.3125 32.6511 17.0833 32.3803 17.7604Z" fill="#B55D38"/>
<path d="M30.8437 17.8542C30.6614 17.6876 30.5625 17.4271 30.6094 17.1823C30.6562 16.9428 30.8177 16.7448 31.0364 16.6407C31.151 16.5834 31.0521 16.4115 30.9323 16.4688C30.6666 16.5938 30.4635 16.8542 30.4114 17.1459C30.3594 17.4584 30.4687 17.7813 30.7031 17.9948C30.7969 18.0834 30.9427 17.9428 30.8437 17.8542Z" fill="#0F1E2E"/>
<path d="M34.4948 18.2604C34.6303 18.2188 34.7709 18.1719 34.8803 18.0729C34.9844 17.9844 35.0469 17.8542 35.0313 17.7188C35.0157 17.5782 34.9428 17.4584 34.8334 17.3698C34.7136 17.2761 34.5782 17.2292 34.4375 17.1771C34.3855 17.1615 34.3282 17.1979 34.3178 17.25C34.3021 17.3021 34.3334 17.3542 34.3855 17.3698C34.5573 17.4323 34.8021 17.5157 34.8334 17.724C34.8646 17.9375 34.5938 18.0209 34.4375 18.0677C34.3178 18.1042 34.3698 18.2969 34.4948 18.2604Z" fill="#0F1E2E"/>
<path d="M33.1876 15.1667C32.4532 15.2292 31.9949 15.7552 32.0313 16.1719C32.0626 16.5104 32.4115 16.5417 32.9115 16.3282C33.4584 16.099 33.9844 16.4011 34.0678 15.8438C34.1303 15.3959 33.8751 15.1094 33.1876 15.1667Z" fill="#0F1E2E"/>
<path d="M35.5677 15.1875C36.0416 15.2291 36.0625 16.1875 35.7239 16.2187C35.2135 16.1093 34.7864 16.4166 34.6458 15.927C34.526 15.5208 34.7239 15.2187 35.375 15.1823C35.4375 15.1823 35.5052 15.1823 35.5677 15.1875Z" fill="#0F1E2E"/>
<path d="M33.0625 18.4479L35.1458 18.6823C35.1458 18.6823 35.0729 19.5312 34.0729 19.4166C33.1719 19.3125 33.0625 18.4479 33.0625 18.4479Z" fill="white"/>
<path d="M32.9114 17.1771C32.9218 16.974 33.0937 16.8073 33.2968 16.8125C33.5051 16.8177 33.6718 16.9896 33.6718 17.1927C33.6718 17.3229 33.8749 17.3229 33.8749 17.1927C33.8697 16.8802 33.6145 16.6198 33.2968 16.6146C32.9791 16.6094 32.7239 16.8646 32.7135 17.1771C32.7083 17.3073 32.9062 17.3073 32.9114 17.1771Z" fill="#0F1E2E"/>
<path d="M34.875 17.1667C34.8854 16.9792 35.0209 16.7969 35.2188 16.7969C35.4219 16.8021 35.5469 16.9948 35.5521 17.1823C35.5521 17.3073 35.75 17.3073 35.75 17.1823C35.7448 16.8854 35.5313 16.6042 35.2188 16.5989C34.9063 16.5937 34.6875 16.8698 34.6771 17.1667C34.6719 17.2917 34.8698 17.2917 34.875 17.1667Z" fill="#0F1E2E"/>
<path d="M31.9844 20.1823C32.2604 20.5156 32.599 20.7969 32.9844 21C33.099 21.0573 33.1979 20.8854 33.0834 20.8229C32.7136 20.6302 32.3907 20.3646 32.125 20.0416C32.0886 20 32.0209 20.0104 31.9844 20.0416C31.9427 20.0833 31.9479 20.1406 31.9844 20.1823Z" fill="#0F1E2E"/>
<path d="M32.1302 58.224C31.8438 61.8177 31.5313 65.4063 31.1771 68.9896C30.8177 72.6719 30.4219 76.349 29.9948 80.0209C29.5573 83.7292 29.0834 87.4375 28.5729 91.1355C28.0625 94.7865 27.5209 98.4323 26.9271 102.073C26.349 105.656 25.724 109.234 25.0521 112.802C24.9688 113.234 24.8854 113.667 24.8021 114.099C24.7813 114.224 24.974 114.276 24.9948 114.151C25.6823 110.599 26.3125 107.037 26.9011 103.464C27.5052 99.8178 28.0625 96.1615 28.5782 92.5C29.099 88.8334 29.5782 85.1667 30.0157 81.4896C30.4636 77.7969 30.8698 74.0938 31.2396 70.3907C31.6042 66.7761 31.9323 63.1615 32.224 59.5417C32.2604 59.1042 32.2969 58.6667 32.3282 58.224C32.3386 58.099 32.1407 58.099 32.1302 58.224Z" fill="#0F1E2E"/>
<path d="M9.27607 114.828C11.1927 115.229 13.125 115.547 15.0729 115.787C17.0625 116.026 19.0677 116.188 21.0729 116.281C22.2344 116.339 23.3959 116.37 24.5573 116.38C24.6875 116.38 24.6875 116.182 24.5573 116.182C22.5261 116.162 20.4948 116.078 18.4688 115.922C16.4896 115.771 14.5157 115.542 12.5573 115.229C11.4792 115.057 10.4011 114.859 9.32815 114.635C9.20315 114.609 9.14586 114.802 9.27607 114.828Z" fill="#0F1E2E"/>
<path d="M14.8385 33.9271C17.2551 34.75 19.6666 35.5677 22.0781 36.3906C22.7656 36.6198 23.4479 36.8542 24.1301 37.0885C24.2551 37.1302 24.3072 36.9375 24.1822 36.8958C21.7708 36.0729 19.3593 35.2552 16.9479 34.4323C16.2604 34.1979 15.5781 33.9688 14.8958 33.7344C14.7708 33.6927 14.7187 33.8854 14.8385 33.9271Z" fill="#0F1E2E"/>
<path d="M36.7084 14.9479C36.7136 14.0365 36.2396 12.5938 35.2761 12.0469C32.6511 10.5521 31.0834 12.1927 30.1198 13.9271C29.875 14.3594 29.7761 14.9115 30.0105 15.349C30.3282 15.9532 31.1355 16.1094 31.8073 16.0052C32.4271 15.9115 32.8698 15.5886 32.9844 14.9479C33.1146 14.1979 33.5469 12.9271 34.4115 13.2709C34.9323 13.4844 35.0365 13.7761 35.1459 14.2917C35.2553 14.8125 35.1771 15.5417 35.6875 15.8646C35.9375 16.0261 36.3386 16.0782 36.5313 15.7969C36.5938 15.7084 36.625 15.5938 36.6511 15.4844C36.6875 15.3073 36.7032 15.1302 36.7084 14.9479Z" fill="#0F1E2E"/>
<path d="M27.5521 29.0365C27.3438 29.1198 27.125 29.1771 26.901 29.2032C26.0937 29.2969 25.2708 29.0052 24.5938 28.5521C23.6302 27.9115 22.75 26.9688 22.0469 26.0573L20.4688 24C20.9844 23.75 21.7813 23.5 22.2917 23.2448C22.8646 22.9584 23.6042 22.9063 24.1615 22.599C24.6823 22.3073 25.6563 23.0625 26.0885 22.6459C26.4948 22.2552 26.8437 21.8073 27.125 21.3177C27.3125 20.9896 27.4635 20.6511 27.5833 20.2969C27.6875 19.9948 27.9792 19.8021 28.2969 19.8229C29.0365 19.875 29.7917 19.849 30.526 19.9011C30.8021 19.9219 30.8073 18.5469 31.0781 18.5886C31.7813 21.5469 31.026 25.5469 29.0469 27.9271C28.6458 28.4063 28.1354 28.8125 27.5521 29.0365Z" fill="#0F1E2E"/>
<path d="M51.2916 120.302C51.2968 119.266 51.2864 118.224 51.3593 117.193C51.302 117.193 51.2395 117.187 51.177 117.187C49.7031 117.156 48.2239 117.151 46.7499 117.177C46.7343 117.917 46.7187 118.656 46.7031 119.396C46.6874 120.245 46.6979 121.13 46.2343 121.875C45.4583 123.13 44.0364 123.771 42.8437 124.547C42.0156 125.083 40.2864 126.224 40.526 127.411C40.8176 128.854 43.2708 128.536 45.3333 128.083C46.9739 127.729 50.3645 126.865 50.9791 126.281C51.5885 125.703 51.7187 120.391 51.7187 120.391C51.7187 120.391 51.5468 120.354 51.2916 120.302Z" fill="#0F1E2E"/>
<path d="M40.6249 126.922C41.2187 127.313 41.9322 127.427 42.6301 127.438C43.3801 127.448 44.1301 127.365 44.8645 127.24C46.3801 126.984 47.8645 126.521 49.2864 125.943C49.9895 125.656 50.6822 125.344 51.3593 125C51.4739 124.943 51.3749 124.771 51.2603 124.828C50.026 125.448 48.7499 125.979 47.4374 126.401C46.0051 126.854 44.5103 127.182 43.0051 127.234C42.2187 127.26 41.3958 127.193 40.7239 126.75C40.6197 126.677 40.5155 126.854 40.6249 126.922Z" fill="#7D95AD"/>
<path d="M43.8645 124.037C44.0728 124.432 44.4895 124.672 44.927 124.74C45.4582 124.818 45.9843 124.646 46.4582 124.417C47.3384 123.995 47.9999 123.286 48.5416 122.49C48.8541 122.036 49.1301 121.563 49.401 121.089C49.4687 120.974 49.2968 120.875 49.2291 120.984C48.7812 121.76 48.328 122.557 47.7187 123.219C47.4218 123.542 47.0937 123.828 46.7187 124.052C46.2864 124.307 45.7916 124.531 45.2864 124.557C44.7968 124.583 44.2759 124.385 44.0364 123.938C43.9791 123.823 43.802 123.922 43.8645 124.037Z" fill="#7D95AD"/>
<path d="M82.9062 124.38C81.7603 123.75 80.4218 123.24 79.3958 122.484C77.9687 121.432 76.8958 118.714 76.6197 117.797C76.4999 117.401 76.4114 117 76.3541 116.594C76.2083 116.578 76.0624 116.568 75.9166 116.557C74.3853 116.448 72.8541 116.516 71.3645 116.755C71.4687 117.365 71.5728 117.974 71.6926 118.583C71.9947 120.109 72.3437 121.625 72.7551 123.13C72.9583 123.885 73.1718 124.635 73.4062 125.385C73.5676 125.911 73.7812 126.469 74.3072 126.719C75.578 127.307 77.2551 127.516 78.6145 127.693C79.6458 127.833 80.6822 127.87 81.7239 127.87C82.6093 127.865 83.8385 127.87 84.6197 127.38C85.1718 127.036 84.9947 126.437 84.7395 125.958C84.3176 125.172 83.6458 124.786 82.9062 124.38Z" fill="#0F1E2E"/>
<path d="M73.5156 125.615C76.4791 126.573 79.6146 127.042 82.7291 126.854C83.4635 126.813 84.2239 126.724 84.8229 126.255C84.9219 126.172 84.7812 126.031 84.6771 126.109C84.1406 126.536 83.4323 126.615 82.776 126.651C82.0312 126.698 81.2864 126.708 80.5416 126.682C79.0312 126.63 77.526 126.427 76.0521 126.099C75.2135 125.911 74.3854 125.682 73.5729 125.422C73.4479 125.38 73.3958 125.573 73.5156 125.615Z" fill="#7D95AD"/>
<path d="M75.5417 120.677C76.1823 121.479 76.8646 122.255 77.6563 122.911C78.3698 123.51 79.2188 124.12 80.1823 124.156C80.6042 124.177 81.0834 124.083 81.3542 123.734C81.4323 123.635 81.2917 123.49 81.2136 123.594C80.9792 123.896 80.5781 123.969 80.2188 123.958C79.7813 123.948 79.3698 123.802 78.9896 123.599C78.1354 123.151 77.4011 122.469 76.7448 121.771C76.375 121.375 76.0261 120.958 75.6823 120.536C75.6042 120.432 75.4636 120.578 75.5417 120.677Z" fill="#7D95AD"/>
<path d="M111.672 31.6354C111.313 31.0677 108.208 29.7552 107.182 29.3437C103.818 27.6666 101.344 27.2343 95.8907 27.7291C94.3125 27.875 92.7448 28.0677 91.1719 28.2708C89.6198 28.4739 88.0625 28.6823 86.5 28.8229C84.9584 28.9583 83.4167 29.0364 81.8698 28.9896C80.3282 28.9427 78.7865 28.7708 77.2813 28.4218C77.099 28.375 76.9167 28.3333 76.7344 28.2812C76.6928 28.2708 74.4323 29.4114 72.6667 30.3125C72.849 29.8229 72.9532 29.4948 72.8959 29.4791C72.875 29.4739 72.6563 29.875 72.3334 30.4843C71.3282 31 70.5573 31.401 70.5834 31.4114C70.8438 31.4843 71.2969 31.4531 71.875 31.3593C70.9219 33.1979 69.6563 35.7291 69.7032 35.7448C70.7292 36.0677 71.5834 36.7343 72.4844 37.2916C73.3282 37.8125 74.2396 38.2291 75.1823 38.5416C77.0625 39.1771 79.0625 39.401 81.0469 39.3646C83.0886 39.3177 85.1198 38.9948 87.099 38.4948C89.3125 37.9375 91.4688 37.1875 93.625 36.4323C95.6407 35.7291 97.6563 35.0208 99.7188 34.4583C100.151 34.6406 100.62 34.75 101.068 34.8021C102.094 34.9166 103.151 34.7708 104.115 34.3958C104.109 34.4114 105.526 36.5208 105.948 36.776C106.307 37 106.833 37.1718 107.208 36.875C107.51 36.6302 107.552 36.2187 107.526 35.8437C107.635 35.9375 107.75 36.0156 107.88 36.0781C108.193 36.2291 108.625 36.2968 108.901 36.0468C109.271 35.7187 109.089 35.1823 108.979 34.7864C108.88 34.4166 108.526 33.4896 107.99 32.4791C109.12 32.7864 109.943 32.9896 110.521 33.1406C111.078 33.2916 111.583 33.0781 111.76 32.5156C111.875 32.1614 111.823 31.875 111.672 31.6354Z" fill="#E6775C"/>
<path d="M105.859 33.3594C106.38 34.1823 106.896 35 107.411 35.8177C107.479 35.9271 107.656 35.8282 107.583 35.7188C107.068 34.8959 106.552 34.0782 106.036 33.2604C105.969 33.1511 105.792 33.25 105.859 33.3594Z" fill="#0F1E2E"/>
<path d="M104.276 34.526C104.802 34.3906 105.203 33.9531 105.505 33.5313C105.906 32.9792 106.188 32.3333 106.354 31.6719C106.448 31.2969 106.505 30.9167 106.5 30.5313C106.5 30.401 106.297 30.401 106.297 30.5313C106.307 31.1719 106.146 31.8125 105.901 32.4063C105.667 32.9687 105.344 33.5208 104.896 33.9323C104.703 34.1146 104.484 34.2656 104.224 34.3333C104.099 34.3646 104.156 34.5573 104.276 34.526Z" fill="#0F1E2E"/>
<path d="M103.057 30.776C103.364 31.526 103.724 32.2604 104.224 32.9062C104.437 33.1875 104.687 33.5156 105.068 33.5521C105.448 33.5833 105.661 33.2708 105.75 32.9427C105.844 32.5781 105.776 32.151 105.729 31.7812C105.667 31.2343 105.573 30.6875 105.463 30.1458C105.38 29.6875 105.286 29.2291 105.172 28.776C105.141 28.651 104.948 28.7031 104.979 28.8281C105.193 29.6614 105.349 30.5156 105.474 31.3646C105.536 31.7864 105.599 32.2239 105.583 32.6458C105.578 32.8333 105.536 33.0208 105.432 33.1771C105.318 33.3489 105.12 33.3906 104.937 33.3125C104.76 33.2448 104.635 33.0989 104.516 32.9583C103.963 32.2968 103.573 31.5156 103.25 30.7239C103.198 30.6041 103.005 30.6562 103.057 30.776Z" fill="#0F1E2E"/>
<path d="M106.375 32.0469C106.943 32.2083 107.516 32.375 108.083 32.5365C108.208 32.5677 108.26 32.375 108.135 32.3438C107.568 32.1823 106.995 32.0156 106.427 31.8542C106.302 31.8177 106.25 32.0104 106.375 32.0469Z" fill="#0F1E2E"/>
<path d="M101.292 33.1355C102.203 32.9323 103.036 32.4167 103.62 31.6875C103.703 31.5886 103.562 31.448 103.479 31.5469C102.911 32.25 102.12 32.7448 101.239 32.9428C101.109 32.9688 101.167 33.1615 101.292 33.1355Z" fill="#0F1E2E"/>
<path d="M79.3177 112.042C77.849 106.037 69.9792 71.1042 68.9635 66.823C67.9635 62.5938 66.8698 58.3855 65.6875 54.2032C64.8021 51.0678 63.8073 47.8907 62.8438 44.75C62.6823 44.2448 62.5208 43.7344 62.3542 43.2344C62.2188 42.8178 62.0729 42.3959 61.776 42.0678C61.2344 41.4688 60.3438 41.3125 59.5833 41.2136C58.7917 41.1042 57.9844 41.0938 57.1875 41.1823C55.6198 41.349 54.0937 41.875 52.7448 42.6875C52.4323 42.875 52.1354 43.0782 51.8438 43.2917C51.6667 43.3438 51.4792 43.4115 51.2813 43.4948C43.8906 46.6511 45.6302 60.1823 45.6302 60.1823H45.6354C45.3594 61.6771 45.099 63.1719 44.8542 64.6719C44.1302 69.073 40.7135 93.5626 40.0417 98.6771C39.151 105.49 38.5365 113.573 38.125 119.787C41.6406 121.141 49.2708 122.495 55.9427 121.875C56.4115 113.979 57.0208 106.708 57.6302 98.8178C57.8854 95.5417 58.151 92.2657 58.4323 88.9948C58.7344 91.0834 59.0469 93.1719 59.3854 95.2553C59.9531 98.7709 60.5677 102.276 61.2344 105.771C61.901 109.266 62.6198 112.75 63.3854 116.224C63.8646 118.391 64.3646 120.547 64.8802 122.698C70.1198 122.927 76.8802 122.573 81.2865 120.266L79.3177 112.042Z" fill="#CC5D2D"/>
<path d="M60.9011 55.9375C61.7605 59.9635 62.6511 63.9791 63.5626 67.9948C64.4792 72.0312 65.4167 76.0625 66.3698 80.0937C67.323 84.1458 68.2917 88.1927 69.2605 92.2396C70.2396 96.3021 71.2188 100.359 72.1928 104.422C73.1667 108.49 74.1355 112.562 75.0938 116.635C75.2136 117.135 75.3282 117.641 75.448 118.141C75.4792 118.266 75.6719 118.214 75.6407 118.089C74.6876 114.01 73.7188 109.943 72.7448 105.87C71.7709 101.807 70.7917 97.7448 69.8178 93.6823C68.8438 89.6354 67.8751 85.5885 66.9115 81.5364C65.9584 77.5052 65.0157 73.4687 64.0938 69.4271C63.1771 65.4114 62.2813 61.3958 61.4115 57.3698C61.3073 56.875 61.198 56.3802 61.0938 55.8854C61.0678 55.7604 60.8751 55.8125 60.9011 55.9375Z" fill="#9E4F2C"/>
<path d="M58.7292 76.9843C61.8178 76.3229 64.9011 75.6614 67.9896 74.9948C68.8542 74.8125 69.7136 74.625 70.5782 74.4427C70.7032 74.4166 70.6511 74.2239 70.5209 74.25C67.4375 74.9114 64.349 75.5729 61.2605 76.2396C60.3959 76.4218 59.5365 76.6093 58.6719 76.7916C58.5469 76.8177 58.599 77.0104 58.7292 76.9843Z" fill="#9E4F2C"/>
<path d="M58.8542 74.7605C59.5261 77.6615 60.198 80.5678 60.8698 83.474C61.5365 86.349 62.198 89.224 62.8646 92.1042C63.5209 94.9532 64.1823 97.7969 64.8386 100.646C65.5001 103.521 66.1667 106.391 66.8282 109.266C67.5001 112.167 68.1667 115.063 68.8386 117.958C68.9271 118.333 69.0105 118.708 69.099 119.083C69.1251 119.208 69.3178 119.151 69.2917 119.026C68.6198 116.12 67.948 113.219 67.2761 110.313C66.6146 107.438 65.948 104.557 65.2813 101.682C64.6251 98.8334 63.9688 95.9896 63.3073 93.1407C62.6459 90.2657 61.9792 87.3907 61.3178 84.5209C60.6459 81.6198 59.9792 78.724 59.3073 75.8282C59.224 75.4532 59.1355 75.0782 59.0469 74.7032C59.0209 74.5782 58.8282 74.6355 58.8542 74.7605Z" fill="#9E4F2C"/>
<path d="M68.8386 66.6927C66.2448 67.2032 63.6459 67.7084 61.0521 68.2136C60.3178 68.3594 59.5834 68.5 58.8438 68.6459C58.7188 68.6667 58.7709 68.8594 58.9011 68.8386C61.4948 68.3282 64.0938 67.8229 66.6875 67.3177C67.4219 67.1719 68.1563 67.0313 68.8959 66.8854C69.0209 66.8646 68.9688 66.6719 68.8386 66.6927Z" fill="#9E4F2C"/>
<path d="M44.6874 66.9271C46.5052 67.2448 48.3333 67.5312 50.1614 67.7864C52.052 68.0521 53.9374 68.2917 55.8333 68.5C56.8437 68.6094 57.8593 68.7135 58.8749 68.8021C58.9999 68.8125 58.9999 68.6146 58.8749 68.6042C57.0468 68.4427 55.2187 68.2396 53.401 68.0156C51.5104 67.7812 49.6302 67.5208 47.7499 67.2292C46.7447 67.0729 45.7395 66.9114 44.7395 66.7344C44.6145 66.7135 44.5572 66.9062 44.6874 66.9271Z" fill="#9E4F2C"/>
<path d="M58.9167 61.2708C61.0105 60.8802 63.1094 60.4844 65.2032 60.0885C65.7917 59.9792 66.3803 59.8698 66.9688 59.7552C67.0938 59.7344 67.0417 59.5417 66.9167 59.5625C64.823 59.9583 62.724 60.3542 60.6303 60.7448C60.0417 60.8594 59.4532 60.9687 58.8646 61.0781C58.7396 61.1042 58.7917 61.2969 58.9167 61.2708Z" fill="#9E4F2C"/>
<path d="M61.6042 53C62.7448 52.7448 63.8803 52.4427 65.0001 52.0938C65.1198 52.0573 65.0678 51.8646 64.9428 51.9011C63.8282 52.25 62.6928 52.5521 61.5521 52.8073C61.4271 52.8386 61.4792 53.0313 61.6042 53Z" fill="#9E4F2C"/>
<path d="M51.2813 52.7708C53.1771 53.0052 55.0833 53.1875 56.9948 53.3125C57.5365 53.3489 58.0781 53.3802 58.6146 53.4062C58.7448 53.4114 58.7448 53.2135 58.6146 53.2083C56.7083 53.1146 54.8021 52.9635 52.9063 52.7604C52.3646 52.7031 51.8229 52.6406 51.2813 52.5729C51.1511 52.5573 51.1563 52.7552 51.2813 52.7708Z" fill="#9E4F2C"/>
<path d="M51.2084 52.7395C50.7344 57.0156 50.2605 61.2916 49.7865 65.5676C49.323 69.7291 48.8594 73.8906 48.3959 78.052C47.9375 82.1718 47.4792 86.2916 47.0209 90.4114C46.5625 94.5676 46.099 98.7187 45.6407 102.87C45.1667 107.125 44.6928 111.385 44.2188 115.641C44.1563 116.193 44.099 116.75 44.0365 117.302C44.0209 117.427 44.224 117.427 44.2344 117.302C44.7084 113.026 45.1875 108.75 45.6615 104.474C46.125 100.312 46.5834 96.151 47.0469 91.9895C47.5053 87.8697 47.9636 83.7499 48.4219 79.6301C48.8855 75.4739 49.3438 71.3228 49.8073 67.1718C50.2813 62.9114 50.75 58.6562 51.224 54.401C51.2865 53.8437 51.349 53.2916 51.4115 52.7395C51.4219 52.6093 51.224 52.6145 51.2084 52.7395Z" fill="#9E4F2C"/>
<path d="M48.3386 59.4792C51.047 59.776 53.7605 60.0729 56.4688 60.375C57.2449 60.4583 58.0209 60.5469 58.797 60.6302C58.922 60.6458 58.922 60.4427 58.797 60.4323C56.0834 60.1302 53.3751 59.8333 50.6615 59.5364C49.8907 59.4479 49.1147 59.3646 48.3386 59.276C48.2084 59.2656 48.2136 59.4635 48.3386 59.4792Z" fill="#9E4F2C"/>
<path d="M49.1353 58.349C49.7864 57.448 50.3801 56.474 50.7343 55.4427C51.0624 54.474 51.2864 53.5 51.4582 52.4896C50.4739 51.0521 40.9999 42.1719 40.1457 41.125C40.7811 40.2917 42.8228 36.8959 43.4739 36.0782C43.9322 35.5052 43.1822 34.5938 43.6561 34.0261C40.9061 32.2605 40.453 29.6302 38.1249 27.3646C36.8749 28.5625 35.5259 29.8282 33.8957 31.8021C31.8176 34.3177 30.2864 37.3542 30.1041 40.1875C30.0103 41.6615 30.1301 43.1563 30.5416 44.5782C30.9478 45.9688 31.6457 47.2396 32.578 48.3438C34.4634 50.5782 37.0624 52.0886 39.552 53.5521C41.0416 54.4219 42.5416 55.2657 44.0624 56.0782C44.8124 56.4844 45.5676 56.8802 46.3228 57.2657C47.0468 57.6355 48.9426 58.323 49.1353 58.349Z" fill="#E6775C"/>
<path d="M72.2708 39.3645C73.6562 35.8906 75.5416 31.276 77.177 27.9114C77.177 27.9114 70.9478 23.9739 69.5885 23.2603C64.3593 20.5312 58.9687 19.552 52.3645 19.8385C48.6041 20.5103 45.9895 20.9635 42.8228 23.0051C40.2708 24.6562 36.7655 27.9999 34.8958 30.4843C37.1145 32.5416 41.4635 36.4114 42.8801 37.6041C42.8801 37.6041 45.026 35.4739 45.5155 35.0312C45.2395 36.3228 44.4114 45.6979 44.4114 45.6979C47.7395 46.6197 53.3333 46.9843 54.5364 47.0572L54.6405 44.8072L57.0312 44.6562C57.0364 44.6562 58.7968 44.6562 58.7968 44.6562L59.0885 46.7499C59.0885 46.7499 62.9374 46.1718 65.8749 44.8958C65.8749 44.8958 65.4114 36.3593 65.276 34.8853C65.6666 35.0885 70.1093 38.0103 72.2708 39.3645Z" fill="#FFBA61"/>
<path d="M57.8178 15.6302L57.4688 19.1302C57.3282 20.3125 56.2188 21.1407 55.0417 20.9323C53.8594 20.7292 53.0938 19.5625 53.3803 18.3959L54.3178 14.5365L57.8178 15.6302Z" fill="#E6775C"/>
<path d="M59.4272 20.0365C59.4272 20.0365 58.2761 19.0573 57.8178 18.9063C57.3595 18.7552 56.6199 20.5052 56.3751 20.724C56.3386 20.75 54.8334 20.9271 54.7813 20.849C54.4272 20.3021 53.5678 18.6355 53.0626 18.7605C52.8074 18.823 52.6772 18.9792 52.4897 19.1563C52.4115 19.2292 51.6459 20.0782 51.6511 20.0782C51.6251 20.0625 51.599 20.0469 51.573 20.0365C51.4792 19.9896 51.4167 20.1355 51.5053 20.1771C51.5365 20.1927 51.5678 20.2136 51.599 20.2292C51.6095 20.2396 51.6251 20.25 51.6407 20.25C52.3907 20.7032 52.6824 21.6198 53.2501 22.2448C53.599 22.625 54.0417 22.8698 54.573 22.9271C55.1824 22.9896 55.823 22.8698 56.4167 22.7396C56.9845 22.6146 57.5574 22.4271 58.0209 22.0782C58.5053 21.7136 58.823 21.198 59.1147 20.6823C59.1772 20.5625 59.4272 20.0365 59.4272 20.0365Z" fill="#FFBA61"/>
<path d="M56.375 20.724L58.7969 44.6563C58.7969 44.6563 57.0729 45.0782 54.6406 44.8073L54.7813 20.849C54.7813 20.849 55.4219 20.8386 55.6354 20.8177C55.8229 20.8073 56.375 20.724 56.375 20.724Z" fill="#FAEADF"/>
<path d="M56.5312 22.2865C56.6302 22.4844 56.7344 22.6771 56.8385 22.875C56.9062 23.0052 56.9792 23.1615 57.125 23.2188C57.2864 23.2865 57.4271 23.1875 57.5208 23.0625C57.6562 22.8855 57.7708 22.6927 57.8958 22.5105C58.4375 21.7136 58.9739 20.9115 59.5156 20.1146C59.5885 20.0105 59.4167 19.9063 59.3437 20.0157C58.875 20.7032 58.4114 21.3907 57.9479 22.0782C57.8333 22.2448 57.7239 22.4115 57.6094 22.573C57.5521 22.6667 57.4896 22.7552 57.4271 22.8438C57.3906 22.9011 57.3281 23.0313 57.2448 23.0417C57.1146 23.0573 57.0208 22.7969 56.9739 22.7084C56.8854 22.5313 56.7917 22.3594 56.7031 22.1875C56.6458 22.073 56.4687 22.1719 56.5312 22.2865Z" fill="#0F1E2E"/>
<path d="M54.5938 21.8958C54.4948 22.0885 54.3907 22.2812 54.2917 22.4739C54.2084 22.625 54.1355 22.7864 54.0417 22.9323C53.9896 23.0052 53.9219 23.0885 53.8334 23.0156C53.7605 22.9583 53.7136 22.8645 53.6615 22.7864C53.5365 22.5989 53.4115 22.4114 53.2917 22.2291C52.7969 21.4843 52.3021 20.7448 51.8073 20.0052C51.7396 19.901 51.5625 20 51.6355 20.1093C52.2032 20.9583 52.7709 21.8073 53.3386 22.6614C53.4948 22.8958 53.7917 23.5 54.1355 23.1354C54.2605 23.0052 54.3386 22.8125 54.4219 22.651C54.5365 22.4323 54.6511 22.2135 54.7657 22C54.8282 21.8854 54.6511 21.7812 54.5938 21.8958Z" fill="#0F1E2E"/>
<path d="M51.6511 10.8906C51.6824 10.7188 51.7345 10.5521 51.8022 10.3906C52.6199 8.48959 55.2709 8.13542 57.0886 8.6823C58.3074 9.04688 59.1303 9.91667 59.5105 11.0208C59.7813 11.8177 59.7657 12.5052 59.823 13.0781C59.9324 14.1927 60.1459 14.7396 60.2917 15.6406C60.599 17.4635 59.7501 18.4583 58.224 18.2396C56.5834 18 54.7084 17.3073 53.6199 16.2552C52.3074 14.9896 51.599 13.5625 51.573 11.7813C51.573 11.4844 51.5886 11.1823 51.6511 10.8906Z" fill="#E6775C"/>
<path d="M60.3542 16.323C59.5678 16.4167 59.1042 15.625 59.1042 15.625L60.2501 15.3959C60.3074 15.6355 60.3542 16.0625 60.3542 16.323Z" fill="white"/>
<path d="M60.9323 14.3125C60.8593 14.1511 60.6927 14.0313 60.5625 13.9167C60.2187 13.599 59.8489 13.3177 59.4739 13.0417C59.4166 13 59.3646 13.0521 59.3646 13.099C59.3646 13.1042 59.3646 13.099 59.3646 13.1042C59.3489 13.1094 59.3333 13.1198 59.3229 13.1302C59.2812 13.0834 59.2448 13.0313 59.2135 12.9792C59.1614 12.9011 59.0468 12.9271 59.0364 13.0209C59.0052 13.4323 59.0989 13.8438 59.1823 14.2448C59.2239 14.4636 59.2708 14.6875 59.3125 14.9115C59.3281 14.974 59.3333 15.0573 59.4062 15.0834C59.4843 15.1094 59.5989 15.0729 59.6718 15.0573C59.8854 15.0209 60.0989 14.9688 60.3073 14.9063C60.4791 14.8594 60.6875 14.8125 60.8385 14.7032C60.9635 14.6146 60.9896 14.4532 60.9323 14.3125Z" fill="#E6775C"/>
<path d="M59.1978 13.151C59.7082 13.0468 59.802 13.6874 59.7707 13.9635C59.7499 14.1406 59.677 14.3593 59.4426 14.4062C59.1041 14.4687 58.9843 14.0833 58.9478 13.8697C58.9009 13.6302 58.8645 13.2187 59.1978 13.151Z" fill="#0F1E2E"/>
<path d="M58.9792 11.8542C58.2865 12.0417 57.9427 12.6198 58.0469 13.0052C58.1354 13.3281 58.474 13.2969 58.9167 13.0104C59.3959 12.6979 59.9427 12.8958 59.9271 12.349C59.9167 11.9115 59.625 11.6823 58.9792 11.8542Z" fill="#0F1E2E"/>
<path d="M50.8906 11.2344C50.8073 12.1511 51.0364 13.0886 51.5208 13.9167C52.2812 15.2136 53.302 16.4324 53.302 16.4324L53.552 17.8646C55.4166 17.1824 56.0312 16.4532 56.4843 15.4688C56.7291 14.9271 57.1302 14.0626 57.3698 13.5209C55.1354 11.1251 56.9948 10.5105 57.177 10.5574C58.6562 10.9063 59.5573 10.5834 59.677 10.323C59.9948 9.66152 59.4323 9.16152 58.7343 8.82298C56.8177 7.89069 54.2395 7.2709 52.3177 8.65631C51.4739 9.26048 50.9739 10.2709 50.8906 11.2344Z" fill="#0F1E2E"/>
<path d="M55.3281 14.4062C55.3281 13.6354 55.9531 13.0104 56.7292 13.0104C57.5 13.0104 58.125 13.6354 58.125 14.4062C58.125 15.177 57.5 15.8073 56.7292 15.8073C55.9531 15.8073 55.3281 15.177 55.3281 14.4062Z" fill="#E6775C"/>
<path d="M56.3333 14.9844C56.1614 14.7917 56.0937 14.5052 56.1614 14.2552C56.2343 14.0156 56.4218 13.8125 56.6562 13.7344C56.7812 13.6927 56.7291 13.4948 56.6041 13.5417C56.302 13.6458 56.0624 13.8906 55.9687 14.2031C55.8802 14.5261 55.9687 14.8802 56.1927 15.1302C56.276 15.224 56.4166 15.0833 56.3333 14.9844Z" fill="#0F1E2E"/>
<path d="M51.4792 51.2031C51.4687 52.7031 51.1667 54.1875 50.6094 55.5781C50.0521 56.974 49.2344 58.2656 48.2135 59.3646C47.6354 59.9896 46.9896 60.5469 46.2917 61.0313C46.1823 61.1042 46.2865 61.276 46.3906 61.2031C47.651 60.3333 48.7344 59.224 49.5833 57.9479C50.4323 56.6771 51.0469 55.25 51.3854 53.7656C51.5729 52.9271 51.6719 52.0677 51.6771 51.2031C51.6771 51.0781 51.4792 51.0781 51.4792 51.2031Z" fill="#0F1E2E"/>
<path d="M64.177 119.24C66.3593 119.323 68.5416 119.25 70.7083 119.016C72.8176 118.781 74.9114 118.401 76.9687 117.875C78.1301 117.578 79.2812 117.24 80.4166 116.859C80.5364 116.818 80.4843 116.625 80.3593 116.667C78.3593 117.339 76.3124 117.885 74.2343 118.281C72.1301 118.687 69.9999 118.937 67.8593 119.031C66.6353 119.089 65.4062 119.089 64.177 119.042C64.0468 119.036 64.0468 119.234 64.177 119.24Z" fill="#0F1E2E"/>
<path d="M58.7969 57.698C60.1146 57.5782 61.0365 56.4219 61.3594 55.2136C61.5573 54.4584 61.5729 53.6719 61.5365 52.9011C61.5 52.0678 61.4219 51.2344 61.3177 50.4063C61.1927 49.474 61.0313 48.5469 60.8281 47.625C60.8021 47.5 60.6094 47.5521 60.6354 47.6823C60.9844 49.2553 61.2135 50.8542 61.3125 52.4636C61.401 53.8386 61.4167 55.3907 60.4948 56.5209C60.0677 57.0365 59.474 57.4375 58.7969 57.4948C58.6667 57.5105 58.6667 57.7084 58.7969 57.698Z" fill="#0F1E2E"/>
<path d="M57.4999 48.1146C57.1561 52.5782 56.8072 57.0469 56.4582 61.5105C56.0989 66.1198 55.7395 70.7292 55.3801 75.3334C55.0207 79.9636 54.6614 84.5938 54.302 89.224C53.9426 93.823 53.5832 98.4167 53.2291 103.016C52.8749 107.521 52.5259 112.026 52.177 116.531C52.1301 117.078 52.0884 117.62 52.0468 118.162C52.0364 118.292 52.2395 118.292 52.2499 118.162C52.5936 113.698 52.9426 109.229 53.2916 104.766C53.6509 100.156 54.0103 95.5521 54.3697 90.9428C54.7291 86.3125 55.0884 81.6823 55.4478 77.0521C55.8072 72.4584 56.1666 67.8594 56.5207 63.2657C56.8749 58.7605 57.2239 54.25 57.5728 49.7448C57.6145 49.2032 57.6614 48.6563 57.703 48.1146C57.7134 47.9844 57.5103 47.9844 57.4999 48.1146Z" fill="#9E4F2C"/>
<path d="M62.4947 111.5C64.5676 111.156 66.6405 110.818 68.7134 110.474C70.7915 110.13 72.8644 109.792 74.9426 109.448C76.1092 109.255 77.2811 109.062 78.453 108.875C78.578 108.854 78.5259 108.661 78.3957 108.682C76.3228 109.021 74.2499 109.365 72.1769 109.703C70.0988 110.047 68.0259 110.385 65.9478 110.729C64.7811 110.922 63.6092 111.115 62.4426 111.307C62.3124 111.328 62.3697 111.521 62.4947 111.5Z" fill="#9E4F2C"/>
<path d="M60.8542 102.828C62.8855 102.422 64.9167 102.016 66.948 101.604C68.9792 101.198 71.0053 100.792 73.0365 100.385C74.1823 100.156 75.323 99.9271 76.4636 99.6979C76.5886 99.6719 76.5365 99.4792 76.4115 99.5052C74.3803 99.9115 72.349 100.323 70.3178 100.729C68.2865 101.135 66.2605 101.542 64.2292 101.948C63.0886 102.177 61.9428 102.406 60.8021 102.635C60.6771 102.661 60.7292 102.854 60.8542 102.828Z" fill="#9E4F2C"/>
<path d="M59.3957 94.4948C61.3436 94.0469 63.2916 93.599 65.2395 93.1563C67.1822 92.7083 69.1301 92.2604 71.078 91.8177C72.1822 91.5625 73.2863 91.3125 74.3853 91.0573C74.5103 91.0313 74.4582 90.8386 74.3332 90.8646C72.3853 91.3125 70.4426 91.7604 68.4947 92.2031C66.5468 92.6511 64.5988 93.099 62.6509 93.5417C61.552 93.7969 60.4478 94.0469 59.3436 94.3021C59.2186 94.3281 59.2707 94.5208 59.3957 94.4948Z" fill="#9E4F2C"/>
<path d="M58.677 85.7708C60.4738 85.3437 62.2707 84.9115 64.0676 84.4792C65.8332 84.0573 67.6041 83.6354 69.3749 83.2083C70.3957 82.9635 71.4218 82.7187 72.4426 82.474C72.5676 82.4427 72.5155 82.25 72.3905 82.2812C70.5936 82.7135 68.7968 83.1406 66.9999 83.5729C65.2343 83.9948 63.4634 84.4219 61.6978 84.8437C60.6718 85.0885 59.6457 85.3333 58.6249 85.5781C58.4999 85.6094 58.552 85.8021 58.677 85.7708Z" fill="#9E4F2C"/>
<path d="M42.276 83.5417C44.3646 83.9896 46.4583 84.4115 48.5573 84.8073C50.6823 85.2032 52.8073 85.5782 54.9375 85.9271C56.1093 86.1198 57.2864 86.3021 58.4687 86.4792C58.5937 86.5 58.6458 86.3073 58.5208 86.2865C56.4062 85.974 54.2968 85.6302 52.1927 85.2605C50.0677 84.8907 47.9479 84.4948 45.8333 84.073C44.6614 83.8386 43.4948 83.599 42.3281 83.349C42.2031 83.3177 42.151 83.5105 42.276 83.5417Z" fill="#9E4F2C"/>
<path d="M64.4532 30.224C64.6355 31.3594 64.8178 32.4896 64.9897 33.625C65.0522 34.0469 65.1147 34.4636 65.1824 34.8854C65.198 35.0104 65.3907 34.9583 65.3751 34.8333C65.198 33.6667 65.0209 32.5 64.8334 31.3333C64.7709 30.9479 64.7084 30.5625 64.6459 30.1719C64.6251 30.0469 64.4324 30.099 64.4532 30.224Z" fill="#0F1E2E"/>
<path d="M70.0208 37.823C71.3698 34.9324 72.7187 32.0469 74.0677 29.1563C74.4427 28.3438 74.8229 27.5313 75.2031 26.7188C75.2552 26.6042 75.0833 26.5001 75.0312 26.6199C73.6823 29.5053 72.3333 32.3959 70.9843 35.2865C70.6041 36.0938 70.2291 36.9063 69.8489 37.7188C69.7916 37.8386 69.9687 37.9376 70.0208 37.823Z" fill="#0F1E2E"/>
<path d="M38.9323 109.51C41.1718 110.036 43.4166 110.521 45.6666 110.964C47.9948 111.422 50.3229 111.849 52.6614 112.229C53.9166 112.438 55.1718 112.63 56.4323 112.807C56.5573 112.828 56.6146 112.635 56.4843 112.615C54.2135 112.292 51.9427 111.922 49.6823 111.516C47.3541 111.099 45.026 110.646 42.7083 110.151C41.4635 109.885 40.2239 109.609 38.9843 109.318C38.8593 109.292 38.8073 109.484 38.9323 109.51Z" fill="#9E4F2C"/>
<path d="M39.8229 101.156C42.0364 101.656 44.2604 102.109 46.4948 102.531C48.7916 102.964 51.0937 103.359 53.401 103.714C54.6354 103.901 55.8698 104.078 57.1041 104.24C57.2291 104.255 57.2291 104.057 57.1041 104.042C54.8541 103.745 52.6146 103.401 50.375 103.021C48.0885 102.635 45.8021 102.214 43.5312 101.75C42.3073 101.5 41.0885 101.24 39.875 100.964C39.75 100.938 39.6979 101.13 39.8229 101.156Z" fill="#9E4F2C"/>
<path d="M40.9999 92.375C43.1509 92.8697 45.3124 93.3177 47.4843 93.7343C49.703 94.1562 51.9374 94.5468 54.1718 94.8958C55.3697 95.0833 56.5676 95.2604 57.7707 95.4218C57.8957 95.4375 57.8957 95.2395 57.7707 95.2187C55.5884 94.927 53.4218 94.5885 51.2551 94.2187C49.0259 93.8333 46.7968 93.4114 44.5832 92.9531C43.4009 92.7083 42.2291 92.4531 41.052 92.1822C40.927 92.151 40.8749 92.3437 40.9999 92.375Z" fill="#9E4F2C"/>
<path d="M43.4583 74.6511C45.4114 75.0469 47.375 75.3958 49.3385 75.7188C51.3593 76.0469 53.3906 76.3438 55.4218 76.6042C56.5156 76.7448 57.6041 76.875 58.6979 76.9896C58.8281 77 58.8281 76.8021 58.6979 76.7865C56.7239 76.5833 54.75 76.3281 52.7812 76.0469C50.7656 75.7552 48.75 75.4323 46.7396 75.0729C45.6614 74.8802 44.5885 74.6771 43.5156 74.4583C43.3854 74.4323 43.3333 74.625 43.4583 74.6511Z" fill="#9E4F2C"/>
<path d="M38.4686 116.214C40.7447 116.786 43.0572 117.234 45.3801 117.578C47.6613 117.906 49.9582 118.135 52.2603 118.26C53.5416 118.333 54.828 118.375 56.1093 118.391C56.2395 118.396 56.2395 118.193 56.1093 118.193C53.8332 118.167 51.552 118.052 49.2811 117.844C46.9738 117.625 44.6718 117.307 42.3957 116.875C41.0936 116.625 39.802 116.344 38.5207 116.021C38.3957 115.99 38.3436 116.182 38.4686 116.214Z" fill="#0F1E2E"/>
<path d="M47.3386 47.9063C49.4272 48.1823 51.5313 48.3073 53.6407 48.2969C55.7865 48.2865 57.9376 48.1407 60.0574 47.8282C61.2136 47.6563 62.3595 47.4375 63.4949 47.1511C63.6147 47.1198 63.5626 46.9271 63.4376 46.9584C61.4063 47.4688 59.3282 47.7761 57.2397 47.948C55.099 48.1198 52.948 48.1459 50.8022 48.0261C49.6459 47.9636 48.4897 47.8594 47.3386 47.7032C47.2084 47.6875 47.2136 47.8855 47.3386 47.9063Z" fill="#0F1E2E"/>
<path d="M58.3334 48.0365C58.5105 50.875 58.6251 53.724 58.698 56.5677C58.7709 59.4115 58.7969 62.2552 58.7917 65.1042C58.7865 67.8802 58.7553 70.6563 58.7084 73.4271C58.6615 76.0209 58.599 78.6094 58.5313 81.198C58.4688 83.5313 58.4063 85.8646 58.349 88.198C58.3438 88.4636 58.3386 88.7292 58.3334 88.9948C58.3282 89.1198 58.5313 89.1198 58.5313 88.9948C58.5834 86.698 58.6459 84.4063 58.7084 82.1146C58.7761 79.5521 58.8386 76.9948 58.8855 74.4323C58.9428 71.6719 58.9792 68.9115 58.9896 66.1511C59.0001 63.3125 58.9844 60.474 58.9219 57.6355C58.8594 54.7813 58.7605 51.9271 58.5938 49.0834C58.573 48.7344 58.5521 48.3855 58.5313 48.0365C58.5261 47.9063 58.323 47.9063 58.3334 48.0365Z" fill="#0F1E2E"/>
<path d="M45.5885 35.0261C46.6197 33.9479 47.6458 32.875 48.677 31.8021C48.7656 31.7084 48.6197 31.5677 48.5312 31.6563C47.5051 32.7344 46.4791 33.8073 45.4478 34.8854C45.3593 34.9792 45.4999 35.1198 45.5885 35.0261Z" fill="#0F1E2E"/>
<path d="M36.8387 28.4219C38.8282 30.4011 40.8178 32.3802 42.8074 34.3594C43.3699 34.9219 43.9376 35.4844 44.5001 36.0469C44.5939 36.1407 44.7345 36 44.6459 35.9063C42.6564 33.9271 40.6668 31.948 38.6772 29.9688C38.1147 29.4063 37.547 28.8438 36.9845 28.2813C36.8907 28.1875 36.7501 28.3282 36.8387 28.4219Z" fill="#0F1E2E"/>
<path d="M56.6145 17.0416C56.7812 17.5104 57.0937 17.9166 57.5103 18.1875C57.6197 18.2604 57.7187 18.0885 57.6145 18.0156C57.2395 17.776 56.953 17.4062 56.8072 16.9896C56.7655 16.8698 56.5728 16.9218 56.6145 17.0416Z" fill="#0F1E2E"/>
<path d="M45.3854 37.1667C45.7448 36.8542 46.0104 36.4115 46.1094 35.9375C46.1094 35.9323 46.1146 35.9323 46.1146 35.9271C46.2656 35.5782 46.2865 35.1823 46.3333 34.8073C46.3854 34.4011 46.4375 33.9948 46.4896 33.5886C46.5938 32.7813 46.7083 31.974 46.7969 31.1615C46.8438 30.7813 46.875 30.3907 46.875 30.0052C46.8802 29.7292 46.6979 29.5261 46.3333 29.4896C45.8854 29.4479 45.4063 29.8959 45.2292 30.1511C45.026 30.4479 44.8646 30.7709 44.75 31.1146C44.724 31.0625 44.6979 31.0157 44.6667 30.974C44.2448 30.2969 43.6875 29.7032 43.0365 29.2396C42.7031 29.0052 42.3542 28.8021 41.9792 28.6354C41.6458 28.4896 41.25 28.3021 40.875 28.375C40.7031 28.4063 40.5573 28.5104 40.4948 28.6771C40.4323 28.8594 40.4635 29.0782 40.5 29.2657C40.5313 29.4271 40.5885 29.5834 40.6563 29.7292C40.5052 29.6459 39.5156 29.0782 39.1354 29C38.6146 28.8907 38.2604 29.25 38.25 29.5365C38.2396 29.9688 38.7188 30.5104 38.7708 30.5834C38.6667 30.5417 38.3646 30.2969 38.0156 30.3386C37.6823 30.3802 37.4115 30.5886 37.3438 30.9219C37.2708 31.2709 37.4115 31.6042 37.6094 31.8802C38.7917 33.5261 40.3646 35.099 41.6563 36.7396C42.5052 37.8282 44.2031 38.1875 45.3854 37.1667Z" fill="#B55D38"/>
<path d="M38.7916 30.6979C39.7708 31.5312 40.6979 32.427 41.5624 33.3801C41.6458 33.4739 41.7864 33.3333 41.7031 33.2343C40.8385 32.2864 39.9114 31.3906 38.9322 30.5572C38.8385 30.4739 38.6926 30.6145 38.7916 30.6979Z" fill="#0F1E2E"/>
<path d="M40.5886 29.776C41.5678 30.5312 42.4636 31.3958 43.2553 32.3437C43.3386 32.4427 43.4792 32.302 43.4011 32.2031C42.5938 31.2395 41.6876 30.3697 40.6876 29.6041C40.5886 29.526 40.4896 29.6979 40.5886 29.776Z" fill="#0F1E2E"/>
<path d="M44.578 30.9635C44.9686 31.5937 45.1926 32.3125 45.2134 33.0469C45.2186 33.1771 45.4218 33.1771 45.4166 33.0469C45.3905 32.276 45.1613 31.5208 44.7499 30.8646C44.6822 30.7552 44.5103 30.8542 44.578 30.9635Z" fill="#0F1E2E"/>
<path d="M34.8282 35.4219C33.4271 35.5001 23.8282 37.6563 22.8854 38.0157C22.198 37.8751 21.5104 37.7449 20.8177 37.6355C19.6719 37.4532 18.5209 37.323 17.3646 37.2449C16.724 37.2032 15.9011 37.2032 15.9011 37.2032C15.7292 37.2032 15.2657 39.9949 15.2188 40.2761C15.0261 41.4428 14.9167 42.6459 15.0313 43.8282C15.3282 46.7396 17.5 48.5157 20.3854 48.5834C23.2136 48.6563 25.5 47.3646 27.9427 46.1511C30.3021 44.974 32.6459 43.7657 34.9792 42.5521C35.1042 42.4896 37.1979 41.4636 37.1771 41.4063C36.9063 40.6303 35.25 35.4011 34.8282 35.4219Z" fill="#B55D38"/>
<path d="M41.3749 38.6875C41.7967 38.3698 41.8592 38.0989 41.8488 37.7916C41.8384 37.5 41.7082 37.2031 41.5259 36.9843C41.3124 36.7187 40.9842 36.6406 40.6769 36.5208C39.8905 36.2187 39.0832 35.9583 38.2499 35.7968C37.4374 35.6406 36.6092 35.5364 35.7863 35.4687C35.5207 35.4427 35.2603 35.4427 34.9946 35.4323C34.8801 35.4531 34.7655 35.4739 34.6509 35.5C34.4374 35.7291 34.3071 35.8333 34.1405 36.1093C33.453 37.25 33.479 38.4114 33.9582 39.625C34.0311 39.8073 34.1144 40 34.2134 40.1875C34.7655 40.6198 35.2134 40.9791 35.2186 41.052C36.7238 41.7135 39.9269 42.0364 40.2238 42.026C40.9946 41.9843 41.1301 40.5729 40.8957 40.427C41.5519 40.4062 42.0155 39.3489 41.3749 38.6875Z" fill="#B55D38"/>
<path d="M40.875 34.4896C40.8646 34.2552 40.6979 34.1406 40.4843 34.1042C40.2396 34.0625 39.9843 34.0573 39.7396 34.0729C39.2291 34.1042 38.7187 34.2031 38.2187 34.3177C37.6562 34.4479 37.0937 34.6094 36.5416 34.7708C36.026 34.9167 34.9427 35.3281 34.276 35.5625C34.25 35.5729 35.0521 35.8958 35.1771 36.0052C35.3541 36.151 35.5781 36.2552 35.7916 36.3385C36.0312 36.4375 36.2812 36.5104 36.5364 36.5625C37.0156 36.6563 37.5104 36.6927 38 36.6719C38.4479 36.6458 38.901 36.5677 39.3177 36.401C39.7343 36.2344 40.1146 35.9688 40.401 35.625C40.5364 35.4635 40.6458 35.2865 40.7343 35.0885C40.8125 34.9063 40.8906 34.6875 40.875 34.4896Z" fill="#B55D38"/>
<path d="M38.6093 40.0521C39.3749 40.1719 40.1249 40.3333 40.8697 40.5469C40.9947 40.5833 41.0468 40.3906 40.927 40.3542C40.177 40.1406 39.4322 39.9792 38.6613 39.8594C38.5363 39.8385 38.4843 40.0312 38.6093 40.0521Z" fill="#0F1E2E"/>
<path d="M38.9478 38.1874C39.7447 38.3385 40.5259 38.5416 41.2916 38.7916C41.4113 38.8333 41.4634 38.6406 41.3436 38.5989C40.578 38.3489 39.7968 38.1458 39.0051 37.9947C38.8749 37.9739 38.8228 38.1666 38.9478 38.1874Z" fill="#0F1E2E"/>
<path d="M18.5156 39.2865C19.9427 38.849 21.3854 38.4532 22.8385 38.1042C22.9635 38.073 22.9114 37.8802 22.7812 37.9115C21.3333 38.2605 19.8906 38.6563 18.4635 39.0938C18.3385 39.1302 18.3906 39.323 18.5156 39.2865Z" fill="#0F1E2E"/>
<path d="M37.5261 35.8541C38.2813 35.9166 39.0313 36.0208 39.7709 36.1771C39.8959 36.2031 39.9532 36.0104 39.823 35.9844C39.0678 35.8229 38.297 35.7135 37.5261 35.651C37.3959 35.6406 37.3959 35.8437 37.5261 35.8541Z" fill="#0F1E2E"/>
</svg>
