<svg width="125" height="125" viewBox="0 0 125 125" fill="none" xmlns="http://www.w3.org/2000/svg">
<mask id="mask0_4867_17886" style="mask-type:luminance" maskUnits="userSpaceOnUse" x="75" y="33" width="50" height="92">
<path d="M75 33.6667H124.536V124.521H75V33.6667Z" fill="white"/>
</mask>
<g mask="url(#mask0_4867_17886)">
<path d="M103.167 34.1824V69.672L75.7239 92.5417L124.536 124.521V51.8647L103.167 34.1824Z" fill="#D8C782"/>
</g>
<mask id="mask1_4867_17886" style="mask-type:luminance" maskUnits="userSpaceOnUse" x="0" y="33" width="50" height="92">
<path d="M0.59375 33.6667H49.6667V124.521H0.59375V33.6667Z" fill="white"/>
</mask>
<g mask="url(#mask1_4867_17886)">
<path d="M21.9635 51.8647V34.1824L0.59375 51.8647V124.521L49.4063 92.5417L21.9635 69.672V51.8647Z" fill="#D8C782"/>
</g>
<mask id="mask2_4867_17886" style="mask-type:luminance" maskUnits="userSpaceOnUse" x="103" y="33" width="22" height="20">
<path d="M103 33.6667H124.536V52.3334H103V33.6667Z" fill="white"/>
</mask>
<g mask="url(#mask2_4867_17886)">
<path d="M103.167 51.8647H124.537L103.167 34.1824V51.8647Z" fill="#F7E6A1"/>
</g>
<mask id="mask3_4867_17886" style="mask-type:luminance" maskUnits="userSpaceOnUse" x="0" y="33" width="23" height="20">
<path d="M0.59375 33.6667H23V52.3334H0.59375V33.6667Z" fill="white"/>
</mask>
<g mask="url(#mask3_4867_17886)">
<path d="M21.9635 34.1824L0.59375 51.8647H21.9635V34.1824Z" fill="#F7E6A1"/>
</g>
<mask id="mask4_4867_17886" style="mask-type:luminance" maskUnits="userSpaceOnUse" x="47" y="0" width="31" height="14">
<path d="M47 0.578125H77.6667V13.6667H47V0.578125Z" fill="white"/>
</mask>
<g mask="url(#mask4_4867_17886)">
<path d="M77.5208 13.401L62.5677 0.578125L47.6094 13.401H77.5208Z" fill="#F7E6A1"/>
</g>
<mask id="mask5_4867_17886" style="mask-type:luminance" maskUnits="userSpaceOnUse" x="0" y="51" width="125" height="74">
<path d="M0.59375 51H124.536V124.521H0.59375V51Z" fill="white"/>
</mask>
<g mask="url(#mask5_4867_17886)">
<path d="M21.9635 51.8645H0.59375V124.521H124.536V51.8645H103.167" fill="#D8C782"/>
</g>
<mask id="mask6_4867_17886" style="mask-type:luminance" maskUnits="userSpaceOnUse" x="75" y="51" width="50" height="74">
<path d="M75 51H124.536V124.521H75V51Z" fill="white"/>
</mask>
<g mask="url(#mask6_4867_17886)">
<path d="M103.167 51.8645V69.6718L75.7239 92.5416L124.536 124.521V51.8645H103.167Z" fill="#D8C782"/>
</g>
<mask id="mask7_4867_17886" style="mask-type:luminance" maskUnits="userSpaceOnUse" x="0" y="51" width="50" height="74">
<path d="M0.59375 51H49.6667V124.521H0.59375V51Z" fill="white"/>
</mask>
<g mask="url(#mask7_4867_17886)">
<path d="M21.9635 69.6718V51.8645H0.59375V124.521L49.4063 92.5416L21.9635 69.6718Z" fill="#D8C782"/>
</g>
<path d="M79.3126 13.4011H21.9636V69.672L49.4063 92.5365L56.5053 87.8855C60.1824 85.4793 64.948 85.4793 68.6251 87.8855L75.724 92.5365L103.167 69.672V13.4011H79.3126Z" fill="#E7ECED"/>
<mask id="mask8_4867_17886" style="mask-type:luminance" maskUnits="userSpaceOnUse" x="75" y="51" width="50" height="74">
<path d="M75 51H124.536V124.521H75V51Z" fill="white"/>
</mask>
<g mask="url(#mask8_4867_17886)">
<path d="M75.7239 92.5416L124.536 124.521V51.8645L75.7239 92.5416Z" fill="#F7E6A1"/>
</g>
<mask id="mask9_4867_17886" style="mask-type:luminance" maskUnits="userSpaceOnUse" x="0" y="51" width="50" height="74">
<path d="M0.59375 51H49.6667V124.521H0.59375V51Z" fill="white"/>
</mask>
<g mask="url(#mask9_4867_17886)">
<path d="M0.59375 51.8645V124.521L49.4063 92.5416L0.59375 51.8645Z" fill="#F7E6A1"/>
</g>
<mask id="mask10_4867_17886" style="mask-type:luminance" maskUnits="userSpaceOnUse" x="76" y="0" width="45" height="45">
<path d="M76.3333 0.578125H120.333V44.3333H76.3333V0.578125Z" fill="white"/>
</mask>
<g mask="url(#mask10_4867_17886)">
<path d="M120.26 21.9479C120.26 33.75 110.693 43.3177 98.8905 43.3177C87.0885 43.3177 77.5208 33.75 77.5208 21.9479C77.5208 10.1458 87.0885 0.578125 98.8905 0.578125C110.693 0.578125 120.26 10.1458 120.26 21.9479Z" fill="#25AE88"/>
</g>
<path d="M79.6614 54.0001H64.703C63.5208 54.0001 62.5676 53.047 62.5676 51.8647C62.5676 50.6824 63.5208 49.7292 64.703 49.7292H79.6614C80.8385 49.7292 81.7968 50.6824 81.7968 51.8647C81.7968 53.047 80.8385 54.0001 79.6614 54.0001Z" fill="#DD352E"/>
<path d="M56.1563 54.0001H32.6459C31.4688 54.0001 30.5105 53.047 30.5105 51.8647C30.5105 50.6824 31.4688 49.7292 32.6459 49.7292H56.1563C57.3334 49.7292 58.2917 50.6824 58.2917 51.8647C58.2917 53.047 57.3334 54.0001 56.1563 54.0001Z" fill="#23A24D"/>
<path d="M86.0676 75.3697H71.1145C69.9322 75.3697 68.9739 74.4166 68.9739 73.2343C68.9739 72.052 69.9322 71.0989 71.1145 71.0989H86.0676C87.2499 71.0989 88.2083 72.052 88.2083 73.2343C88.2083 74.4166 87.2499 75.3697 86.0676 75.3697Z" fill="#DC691D"/>
<path d="M62.5677 75.3697H39.0573C37.8802 75.3697 36.9219 74.4166 36.9219 73.2343C36.9219 72.052 37.8802 71.0989 39.0573 71.0989H62.5677C63.7448 71.0989 64.7031 72.052 64.7031 73.2343C64.7031 74.4166 63.7448 75.3697 62.5677 75.3697Z" fill="#EBBA16"/>
<path d="M92.4791 54.0001H88.2083C87.026 54.0001 86.0676 53.047 86.0676 51.8647C86.0676 50.6824 87.026 49.7292 88.2083 49.7292H92.4791C93.6614 49.7292 94.6197 50.6824 94.6197 51.8647C94.6197 53.047 93.6614 54.0001 92.4791 54.0001Z" fill="#6B1E31"/>
<path d="M60.427 64.6874H45.4687C44.2916 64.6874 43.3333 63.7291 43.3333 62.552C43.3333 61.3697 44.2916 60.4114 45.4687 60.4114H60.427C61.6093 60.4114 62.5676 61.3697 62.5676 62.552C62.5676 63.7291 61.6093 64.6874 60.427 64.6874Z" fill="#FC3952"/>
<path d="M92.4792 64.6874H68.974C67.797 64.6874 66.8386 63.7291 66.8386 62.552C66.8386 61.3697 67.797 60.4114 68.974 60.4114H92.4792C93.6615 60.4114 94.6199 61.3697 94.6199 62.552C94.6199 63.7291 93.6615 64.6874 92.4792 64.6874Z" fill="#366DB6"/>
<path d="M45.4688 43.3178H30.5104C29.3333 43.3178 28.375 42.3647 28.375 41.1824C28.375 40.0001 29.3333 39.0417 30.5104 39.0417H45.4688C46.651 39.0417 47.6094 40.0001 47.6094 41.1824C47.6094 42.3647 46.651 43.3178 45.4688 43.3178Z" fill="#EBBA16"/>
<path d="M77.5208 43.3178H54.0155C52.8385 43.3178 51.8801 42.3647 51.8801 41.1824C51.8801 40.0001 52.8385 39.0417 54.0155 39.0417H77.5208C78.703 39.0417 79.6614 40.0001 79.6614 41.1824C79.6614 42.3647 78.703 43.3178 77.5208 43.3178Z" fill="#DC691D"/>
<path d="M36.922 64.6874H32.6459C31.4688 64.6874 30.5105 63.7291 30.5105 62.552C30.5105 61.3697 31.4688 60.4114 32.6459 60.4114H36.922C38.1042 60.4114 39.0574 61.3697 39.0574 62.552C39.0574 63.7291 38.1042 64.6874 36.922 64.6874Z" fill="#75348B"/>
<path d="M71.1145 32.6302H45.4687C44.2916 32.6302 43.3333 31.6771 43.3333 30.4948C43.3333 29.3125 44.2916 28.3594 45.4687 28.3594H71.1145C72.2916 28.3594 73.2499 29.3125 73.2499 30.4948C73.2499 31.6771 72.2916 32.6302 71.1145 32.6302Z" fill="#366DB6"/>
<path d="M36.922 32.6302H32.6459C31.4688 32.6302 30.5105 31.6771 30.5105 30.4948C30.5105 29.3125 31.4688 28.3594 32.6459 28.3594H36.922C38.1042 28.3594 39.0574 29.3125 39.0574 30.4948C39.0574 31.6771 38.1042 32.6302 36.922 32.6302Z" fill="#CB465F"/>
<path d="M96.7551 30.4947C96.1874 30.4947 95.6458 30.2707 95.2447 29.8697L88.8333 23.4582C87.9999 22.6249 87.9999 21.2759 88.8333 20.4374C89.6666 19.6041 91.0208 19.6041 91.8541 20.4374L96.6145 25.1926L105.797 14.1718C106.557 13.2603 107.901 13.1457 108.807 13.8957C109.713 14.6509 109.838 15.9999 109.083 16.9061L98.3958 29.7291C98.0103 30.1926 97.453 30.4686 96.8489 30.4947C96.8176 30.4947 96.7864 30.4947 96.7551 30.4947Z" fill="white"/>
</svg>
