<svg width="126" height="117" viewBox="0 0 126 117" fill="none" xmlns="http://www.w3.org/2000/svg">
<mask id="mask0_4867_17885" style="mask-type:luminance" maskUnits="userSpaceOnUse" x="0" y="0" width="126" height="117">
<path d="M0.333252 0.666748H125.667V116.328H0.333252V0.666748Z" fill="white"/>
</mask>
<g mask="url(#mask0_4867_17885)">
<path d="M35.677 116.313H93.4635C100.125 116.313 106.562 113.87 111.557 109.448L117.526 104.162C127.667 95.1823 126.818 79.0678 115.786 71.2084C106.911 64.8803 104.328 52.8021 109.838 43.3803L110.463 42.3178C115.443 33.8021 114.281 23.0261 107.604 15.7709L99.552 7.0261C91.5885 -1.61974 77.6458 -0.48953 71.1666 9.32297C66.2447 16.7865 56.6249 19.5313 48.5156 15.7865L44.9947 14.1615C34.8801 9.49485 22.8801 12.9063 16.7135 22.198L12.7551 28.1563C8.84368 34.0521 8.36451 41.5938 11.4999 47.9376C15.1041 55.2344 13.8958 63.9948 8.44785 70.0313L6.8593 71.7917C-3.05215 82.7813 -0.354238 100.13 12.4218 107.573L20.2968 112.156C24.9687 114.88 30.2708 116.313 35.677 116.313Z" fill="#E7E8FF"/>
</g>
<path d="M121.177 99.3801C121.276 106.812 116.229 113.083 113.667 115.281H109.74C112.661 105.37 117.484 100.437 120.193 98.7968C120.641 98.526 121.172 98.8541 121.177 99.3801Z" fill="#032068"/>
<path d="M121.594 75.0001C125.615 90.1928 115.474 108.188 111.115 114.885H102.281C106.078 86.2188 112.438 79.2553 120.479 74.5469C120.911 74.2917 121.464 74.5157 121.594 75.0001Z" fill="white"/>
<path fill-rule="evenodd" clip-rule="evenodd" d="M120.677 74.8854C120.891 74.7604 121.151 74.875 121.213 75.1042C123.193 82.5885 121.693 90.7917 119.13 97.9948C116.609 105.068 113.083 111.12 110.901 114.495H102.729C104.62 100.438 107.13 91.7083 110.135 85.9115C113.167 80.0781 116.703 77.2135 120.677 74.8854ZM121.974 74.901C121.776 74.1563 120.937 73.8229 120.281 74.2031C116.213 76.5833 112.552 79.5521 109.437 85.5469C106.338 91.5208 103.792 100.484 101.891 114.833L101.833 115.281H111.328L111.443 115.104C113.635 111.74 117.276 105.536 119.87 98.2604C122.458 90.9948 124.01 82.6094 121.974 74.901Z" fill="#032068"/>
<path d="M107.349 84.349C110.823 97.0782 106.844 110.313 104.245 115.281H97.7656C96.3073 99.7657 102.229 88.4792 106.125 84.0417C106.51 83.6042 107.193 83.7865 107.349 84.349Z" fill="#032068"/>
<path fill-rule="evenodd" clip-rule="evenodd" d="M116.094 85.8125L118.208 79.8438L118.948 80.1094L114.104 93.776L117.286 92.8125L117.51 93.5729L113.776 94.6979L109.375 107.125L113.339 105.641L113.609 106.38L109.031 108.094L106.578 115.021L105.839 114.755L110.823 100.688L108.979 95.4948L109.719 95.2292L111.24 99.5104L115.646 87.0677L114.271 82.4583L115.026 82.2344L116.094 85.8125Z" fill="#032068"/>
<path fill-rule="evenodd" clip-rule="evenodd" d="M104.031 94.5157L105.036 88.9792L105.807 89.1199L103.776 100.354L106.417 98.9584L106.781 99.6563L103.599 101.344L101.854 110.974L104.036 109.25L104.521 109.875L101.641 112.146L101.094 115.156L100.323 115.016L101.719 107.297L99.4166 104.281L100.042 103.802L101.911 106.25L103.859 95.4845L101.995 93.4584L102.568 92.9272L104.031 94.5157Z" fill="white"/>
<path d="M34.7135 22.0676L36.2239 22.4322C36.4947 22.4999 36.5208 22.8749 36.2656 22.9738L34.8593 23.5468C34.7708 23.578 34.7083 23.6509 34.6874 23.7447L34.2968 25.3593C34.2343 25.6197 33.8802 25.6561 33.7656 25.4165L33.0364 23.9009C32.9999 23.828 32.9322 23.7707 32.8541 23.7499L31.0833 23.2499C30.8177 23.1718 30.802 22.8072 31.0572 22.7082L32.6718 22.0884C32.7499 22.0572 32.8124 21.9947 32.8385 21.9113L33.4531 20.1301C33.5416 19.8697 33.9114 19.8749 33.9947 20.1405L34.5104 21.8697C34.5364 21.9686 34.6145 22.0415 34.7135 22.0676Z" fill="white"/>
<path d="M22.6406 37.0053L23.0312 37.323C23.2448 37.4949 23.1146 37.8438 22.8333 37.8282L22.3489 37.797C22.2604 37.7918 22.1666 37.8282 22.1093 37.9011L21.7291 38.3751C21.5573 38.5834 21.2239 38.4636 21.2239 38.198L21.2187 37.5678C21.2187 37.4897 21.1823 37.4115 21.1198 37.3542L20.5937 36.8907C20.3906 36.7136 20.5312 36.3699 20.8073 36.3959L21.4323 36.4428C21.5156 36.448 21.5989 36.4168 21.6614 36.3595L22.1562 35.849C22.3489 35.6511 22.6823 35.8178 22.6406 36.0938L22.5416 36.7397C22.526 36.8386 22.5625 36.9376 22.6406 37.0053Z" fill="white"/>
<path d="M116.885 60.1509L115.755 61.6874C115.687 61.7812 115.573 61.828 115.464 61.8072L114.068 61.5312C113.766 61.4687 113.583 61.8697 113.818 62.0832L114.917 63.0832C114.995 63.1562 115.036 63.2707 115.016 63.3801L114.74 65.0312C114.687 65.3437 115.047 65.5364 115.25 65.3072L116.38 64.0364C116.448 63.9634 116.542 63.927 116.641 63.9426L117.943 64.1301C118.24 64.1718 118.406 63.7812 118.182 63.5728L117.208 62.6718C117.13 62.6041 117.094 62.4895 117.115 62.3853L117.417 60.4009C117.469 60.0728 117.078 59.8905 116.885 60.1509Z" fill="#F4AD5E"/>
<path d="M48.5104 19.4114C48.5104 17.1353 50.3541 15.2864 52.625 15.2864H99.4323C101.703 15.2864 103.547 17.1353 103.547 19.4114V111.146C103.547 113.422 101.703 115.271 99.4323 115.271H52.625C50.3541 115.271 48.5104 113.422 48.5104 111.146V19.4114Z" fill="white"/>
<mask id="mask1_4867_17885" style="mask-type:luminance" maskUnits="userSpaceOnUse" x="47" y="14" width="58" height="103">
<path d="M47 14H104.333V116.328H47V14Z" fill="white"/>
</mask>
<g mask="url(#mask1_4867_17885)">
<path fill-rule="evenodd" clip-rule="evenodd" d="M48.1666 19.4114C48.1666 16.9426 50.1614 14.9426 52.625 14.9426H99.4323C101.896 14.9426 103.891 16.9426 103.891 19.4114V111.146C103.891 113.615 101.896 115.615 99.4323 115.615H52.625C50.1614 115.615 48.1666 113.615 48.1666 111.146V19.4114ZM52.625 15.6301C50.5416 15.6301 48.8541 17.3228 48.8541 19.4114V111.146C48.8541 113.234 50.5416 114.927 52.625 114.927H99.4323C101.516 114.927 103.203 113.234 103.203 111.146V19.4114C103.203 17.3228 101.516 15.6301 99.4323 15.6301H52.625Z" fill="#032068"/>
</g>
<path d="M92.052 52.0522C92.052 60.974 84.8385 68.2032 75.9375 68.2032C67.0416 68.2032 59.8229 60.974 59.8229 52.0522C59.8229 43.1303 67.0416 35.9011 75.9375 35.9011C84.8385 35.9011 92.052 43.1303 92.052 52.0522Z" fill="#E7E8FF"/>
<path d="M65.0833 18.6405L63.302 15.2864H88.7551L86.6562 18.7916C86.0416 19.828 84.9218 20.4583 83.7187 20.4583H68.1093C66.8437 20.4583 65.6822 19.7603 65.0833 18.6405Z" fill="#032068"/>
<path d="M102.87 17.3594H48.8333C50.6249 15.5625 52.3333 15.2292 52.9635 15.2865H98.7447C100.943 15.2865 102.411 16.6667 102.87 17.3594Z" fill="#032068"/>
<mask id="mask2_4867_17885" style="mask-type:luminance" maskUnits="userSpaceOnUse" x="48" y="112" width="55" height="5">
<path d="M48.3333 112.667H103V116.328H48.3333V112.667Z" fill="white"/>
</mask>
<g mask="url(#mask2_4867_17885)">
<path d="M102.828 113.307H49.1979C51.0573 115.13 52.1302 115.469 52.7864 115.412H99.2395C101.531 115.412 102.354 114.01 102.828 113.307Z" fill="#032068"/>
</g>
<path d="M56.3958 28.3386C56.3958 27.9636 56.703 27.6511 57.0833 27.6511H75.3437C75.7187 27.6511 76.026 27.9636 76.026 28.3386V29.073C76.026 29.4532 75.7187 29.7605 75.3437 29.7605H57.0833C56.703 29.7605 56.3958 29.4532 56.3958 29.073V28.3386Z" fill="#F4AD5E"/>
<path d="M56.3958 74.7344C56.3958 74.3542 56.703 74.0469 57.0833 74.0469H75.3437C75.7187 74.0469 76.026 74.3542 76.026 74.7344V75.4635C76.026 75.8437 75.7187 76.151 75.3437 76.151H57.0833C56.703 76.151 56.3958 75.8437 56.3958 75.4635V74.7344Z" fill="#032068"/>
<path d="M56.3958 92.9428C56.3958 92.5678 56.703 92.2605 57.0833 92.2605H68.052C68.4322 92.2605 68.7395 92.5678 68.7395 92.9428V93.6303C68.7395 94.0105 68.4322 94.3178 68.052 94.3178H57.0833C56.703 94.3178 56.3958 94.0105 56.3958 93.6303V92.9428Z" fill="#032068"/>
<path d="M56.3958 79.8855C56.3958 79.5053 56.703 79.198 57.0833 79.198H93.7655C94.1458 79.198 94.453 79.5053 94.453 79.8855V86.7605C94.453 87.1407 94.1458 87.448 93.7655 87.448H57.0833C56.703 87.448 56.3958 87.1407 56.3958 86.7605V79.8855Z" fill="#E7E8FF"/>
<path d="M56.3958 97.7551C56.3958 97.3749 56.703 97.0676 57.0833 97.0676H93.7655C94.1458 97.0676 94.453 97.3749 94.453 97.7551V104.63C94.453 105.01 94.1458 105.318 93.7655 105.318H57.0833C56.703 105.318 56.3958 105.01 56.3958 104.63V97.7551Z" fill="#E7E8FF"/>
<path fill-rule="evenodd" clip-rule="evenodd" d="M98.9948 20.2031H99.6823V23.0104H98.9948V20.2031Z" fill="#032068"/>
<path fill-rule="evenodd" clip-rule="evenodd" d="M97.2448 20.552H97.9323V23.0103H97.2448V20.552Z" fill="#032068"/>
<path fill-rule="evenodd" clip-rule="evenodd" d="M95.4895 21.2551H96.177V23.0103H95.4895V21.2551Z" fill="#032068"/>
<path fill-rule="evenodd" clip-rule="evenodd" d="M93.7395 21.9583H94.4218V23.0103H93.7395V21.9583Z" fill="#032068"/>
<path d="M76.0937 52.2449C71.5572 52.2449 67.8228 55.724 67.3176 60.2032C67.2551 60.7657 67.7239 61.2292 68.2916 61.2292H83.8957C84.4635 61.2292 84.9322 60.7657 84.8697 60.2032C84.3645 55.724 80.6301 52.2449 76.0937 52.2449Z" fill="white"/>
<path d="M80.4426 46.9635C80.4426 49.2969 78.5572 51.1875 76.2239 51.1875C73.8958 51.1875 72.0051 49.2969 72.0051 46.9635C72.0051 44.625 73.8958 42.7344 76.2239 42.7344C78.5572 42.7344 80.4426 44.625 80.4426 46.9635Z" fill="white"/>
<path d="M40.3125 60.6562L41.7031 64.9739C42.2604 67.0051 40.3125 69.1405 35.6666 69.1405C31.9531 69.1405 31.2135 67.0155 31.3958 65.2916L32.5104 59.3645C31.5833 58.4426 30.8385 57.8905 30.8385 53.4635C30.8385 47.927 33.8125 45.8958 37.3385 45.8958C40.8698 45.8958 43.8385 48.8489 43.8385 54.1978C43.8437 58.8124 41.3645 60.2864 40.3125 60.6562Z" fill="#EFCB96"/>
<path d="M49.125 56.6094C51.8907 59.5001 51.5157 66.6094 51.0938 68.7761C46.6198 65.4532 43.5886 64.349 42.0209 64.224C41.7709 64.2032 41.724 64.7917 41.5469 64.8178L40.2188 60.4011C42.2188 59.8594 43.4896 58.0521 43.6719 53.9011C43.8177 50.5782 42.1563 48.3073 41.3073 47.5834C38.3959 47.4011 36.9427 51.0157 36.0365 52.4584C35.3073 53.6146 34.7604 53.4219 34.5782 53.1823C33.6719 51.0157 32.0365 50.8334 31.6719 53.1823C31.3802 55.0573 32.7604 56.0105 33.4896 56.2501L31.3959 65.4532C31.1563 65.4688 30.9219 64.6563 30.9219 64.2969C27.0365 64.7292 22.7709 66.7865 21.4948 67.6407C20.9479 61.8646 26.2188 57.5157 27.6719 53.9011C29.125 50.2917 27.125 48.4844 28.5782 46.1407C29.6563 44.4011 31.6719 44.1511 32.9427 43.7917C34.2188 43.4323 34.9427 41.9844 36.3959 41.2657C38.9427 40.3594 41.3698 42.5886 42.0365 44.1511C42.4584 44.0938 43.6719 44.2605 45.125 45.4167C49.3073 48.3073 45.6719 53.0001 49.125 56.6094Z" fill="#032068"/>
<path d="M36.6198 60.427C38.7864 60.9322 40.0468 60.7447 40.4114 60.5833L40.9531 62.3333C38.6406 62.5885 37.0989 61.1666 36.6198 60.427Z" fill="#032068"/>
<mask id="mask3_4867_17885" style="mask-type:luminance" maskUnits="userSpaceOnUse" x="3" y="63" width="66" height="54">
<path d="M3 63.3333H68.3333V116.328H3V63.3333Z" fill="white"/>
</mask>
<g mask="url(#mask3_4867_17885)">
<path d="M36.1302 67.4688C39.7813 67.4688 41.4896 65.2188 41.8907 64.0938C48.849 64.0938 54.6094 68.9167 57.2448 72.2969C59.8855 75.6771 69.724 93.5313 67.323 100.771C65.4063 106.557 60.7657 107.443 58.2084 107.042L58.6303 114.719C58.6615 115.266 58.224 115.729 57.6823 115.729H22.4584C18.7761 115.969 10.75 116.068 8.06254 114.521C4.70317 112.594 1.58337 102.698 8.06254 83.1563C13.2448 67.5208 25.4167 63.9323 30.8542 64.0938C31.0938 65.2188 32.4844 67.4688 36.1302 67.4688Z" fill="#F4AD5E"/>
</g>
<mask id="mask4_4867_17885" style="mask-type:luminance" maskUnits="userSpaceOnUse" x="4" y="104" width="15" height="13">
<path d="M4.33325 104.667H18.9999V116.328H4.33325V104.667Z" fill="white"/>
</mask>
<g mask="url(#mask4_4867_17885)">
<path d="M18.6614 115.745C12.8749 108.651 6.76034 106.125 4.427 105.745C4.427 108.016 5.55721 112.333 7.58846 114.38C9.21346 116.016 15.6458 115.969 18.6614 115.745Z" fill="#032068"/>
</g>
<path d="M63.3958 106.198C67.1927 104.745 67.8437 99.5313 67.6927 97.1094C64.2552 98.7448 59.6302 104.307 57.75 106.88C58.0521 107.26 59.6042 107.651 63.3958 106.198Z" fill="#032068"/>
<path d="M35.651 89.6718C33.9739 90.3957 21.4947 96.2655 15.7395 99.078C16.4583 97.8749 19.3385 95.9426 20.0572 95.2186C20.776 94.4947 23.4166 86.052 23.4166 87.2551C23.4166 88.4634 21.9791 94.0103 22.6978 94.0103C23.4166 94.0103 33.4947 89.6718 35.651 89.6718Z" fill="#032068"/>
<mask id="mask5_4867_17885" style="mask-type:luminance" maskUnits="userSpaceOnUse" x="19" y="96" width="23" height="21">
<path d="M19 96.6667H41.6667V116.328H19V96.6667Z" fill="white"/>
</mask>
<g mask="url(#mask5_4867_17885)">
<path d="M40.6927 96.6667C30.5156 110.37 22.2187 115.245 19.3385 115.969H24.375C33.0156 109.214 38.8541 100.287 40.6927 96.6667Z" fill="#032068"/>
</g>
<path d="M53.1666 94.2551C53.552 98.8853 56.8489 104.708 58.4479 107.042V109.213C54.7968 105.161 53.4062 97.552 53.1666 94.2551Z" fill="#032068"/>
<path d="M57.7239 87.7396C59.0676 88.5104 61.4843 90.3125 62.526 91.1146L58.6874 86.5312C58.4947 87.3073 57.9687 87.6563 57.7239 87.7396Z" fill="#032068"/>
<path d="M43.5417 78.8385L41.6927 96.9687C41.6719 97.1823 41.8594 97.3542 42.0677 97.3177L50.7865 95.7396C50.9167 95.7187 51.0209 95.6094 51.0417 95.4739L53.5886 78.2396C53.6198 78.0364 53.4532 77.8594 53.2552 77.875L43.8386 78.5521C43.6823 78.5625 43.5573 78.6823 43.5417 78.8385Z" fill="white"/>
<path fill-rule="evenodd" clip-rule="evenodd" d="M53.2292 77.5573C53.6354 77.5261 53.9635 77.8854 53.901 78.2865L51.3542 95.5209C51.3177 95.7917 51.1094 96.0052 50.8385 96.0573L42.1198 97.6302C41.7083 97.7032 41.3333 97.3594 41.3802 96.9375L43.2292 78.8021C43.2604 78.4948 43.5052 78.2552 43.8125 78.2344L53.2292 77.5573ZM53.276 78.1927L43.8594 78.8698L42.0104 97L50.7292 95.4271L53.276 78.1927Z" fill="#032068"/>
<path d="M56.0468 87.7397L53.1666 92.0834C49.3281 92.323 48.6093 90.1511 49.3281 86.7761C49.9062 84.073 52.0468 84.0417 52.927 84.3595L53.4062 82.4324C56.0468 84.6042 56.0468 86.6928 56.0468 87.7397Z" fill="#EFCB96"/>
<path d="M39.25 87.2552C38.6771 88.8021 37.5729 89.8281 37.0938 90.151L40.2135 94.9792C41.1719 94.0104 42.3698 94.0104 45.0104 92.8073C47.651 91.599 48.3698 87.2552 47.651 84.8438C47.0729 82.9115 43.7292 84.3594 42.3698 85.3281L42.6094 82.6719C40.9323 83.3958 39.974 85.3281 39.25 87.2552Z" fill="#EFCB96"/>
<path d="M122.911 42.0886C122.911 48.5417 117.693 53.7709 111.255 53.7709C104.818 53.7709 99.5938 48.5417 99.5938 42.0886C99.5938 35.6355 104.818 30.4011 111.255 30.4011C117.693 30.4011 122.911 35.6355 122.911 42.0886Z" fill="white"/>
<path fill-rule="evenodd" clip-rule="evenodd" d="M111.255 30.6874C104.974 30.6874 99.8854 35.7916 99.8854 42.0885C99.8854 48.3801 104.974 53.4843 111.255 53.4843C117.531 53.4843 122.625 48.3801 122.625 42.0885C122.625 35.7916 117.531 30.6874 111.255 30.6874ZM99.3073 42.0885C99.3073 35.4739 104.656 30.1145 111.255 30.1145C117.849 30.1145 123.198 35.4739 123.198 42.0885C123.198 48.6978 117.849 54.0572 111.255 54.0572C104.656 54.0572 99.3073 48.6978 99.3073 42.0885Z" fill="#032068"/>
<path fill-rule="evenodd" clip-rule="evenodd" d="M111.391 34.8542C109.167 34.8542 107.365 36.6876 107.365 38.9532V41.7605C107.365 42.0938 107.635 42.3647 107.969 42.3647C108.302 42.3647 108.573 42.0938 108.573 41.7605V38.8751C108.573 37.2917 109.833 36.0053 111.391 36.0053C112.948 36.0053 114.213 37.2917 114.213 38.8751V41.6095C114.213 41.9428 114.479 42.2136 114.812 42.2136C115.146 42.2136 115.417 41.9428 115.417 41.6095V38.9532C115.417 36.6876 113.615 34.8542 111.391 34.8542Z" fill="#032068"/>
<path d="M106.255 41.8333C106.255 41.3593 106.641 40.9739 107.115 40.9739H115.667C116.141 40.9739 116.526 41.3593 116.526 41.8333V48.177C116.526 48.6562 116.141 49.0416 115.667 49.0416H107.115C106.641 49.0416 106.255 48.6562 106.255 48.177V41.8333Z" fill="#F4AD5E"/>
<path fill-rule="evenodd" clip-rule="evenodd" d="M112.047 45.3438C112.281 45.1511 112.438 44.8542 112.438 44.5261C112.438 43.948 111.969 43.4792 111.391 43.4792C110.812 43.4792 110.344 43.948 110.344 44.5261C110.344 44.8855 110.526 45.2032 110.802 45.3907L110.568 46.3699C110.536 46.5157 110.646 46.6563 110.797 46.6563H112.063C112.214 46.6563 112.323 46.5157 112.292 46.3699L112.047 45.3438Z" fill="white"/>
</svg>
