<svg width="179" height="119" viewBox="0 0 179 119" fill="none" xmlns="http://www.w3.org/2000/svg">
<path d="M134.724 16.9583C134.677 12.8177 134.771 9.71872 135.229 6.64581C135.604 4.13539 137.104 2.36977 139.229 1.11977C140.182 0.557267 141.234 0.572892 142.255 0.947892C143.213 1.30206 144.167 1.2656 145.156 1.14581C145.891 1.05727 146.641 1.03643 147.38 1.08852C148.057 1.13539 148.594 1.51039 149.016 2.06248C150.599 4.15623 151.771 6.44268 152.411 8.99998C152.917 11.0208 153.338 13.0729 154.213 14.9791C154.88 16.4427 155.594 17.8854 156.281 19.3385C156.562 19.9323 156.859 20.5156 157.125 21.1146C157.724 22.4791 157.453 23.6666 156.38 24.6927C155.021 25.9948 153.469 26.9635 151.646 27.4531C148.687 28.2552 145.708 28.2656 142.703 27.7083C141.635 27.5104 140.812 26.9739 140.286 26.0469C139.828 25.25 139.448 24.401 139.062 23.5677C138.74 22.875 138.552 22.7969 137.969 23.276C137.385 23.7552 136.729 23.9791 135.984 23.9271C134.984 23.8541 134.547 23.3489 134.573 22.3594C134.641 20.2135 134.698 18.0677 134.729 16.9583H134.724Z" fill="#663B2A"/>
<path d="M95.5937 112.922C95.9739 112.943 96.2656 112.969 96.552 112.969C97.7135 112.964 98.8802 112.943 100.042 112.943C100.396 112.943 100.76 112.948 101.109 113.016C102.109 113.208 102.786 114.042 102.797 115.036C102.807 116.062 102.088 116.948 101.073 117.135C100.838 117.182 100.599 117.182 100.359 117.187C96.3645 117.224 92.375 117.26 88.3802 117.297C88.1406 117.297 87.901 117.297 87.6666 117.266C86.4791 117.099 85.6927 116.198 85.7395 115.078C85.7812 113.953 86.6354 113.109 87.8333 113.052C88.6666 113.01 89.5 113.031 90.3385 113.021C90.6302 113.016 90.9218 112.99 91.3281 112.969C91.3281 112.573 91.3281 112.224 91.3281 111.88C91.2552 96.6406 91.1875 81.4062 91.1197 66.1666C91.1197 65.8698 91.1041 65.5677 91.125 65.2708C91.2187 63.9166 92.1145 63.0468 93.3541 63.0937C94.5416 63.1406 95.375 64.0312 95.3854 65.3646C95.4166 69 95.427 72.6406 95.4427 76.276C95.4895 88.1146 95.5416 99.9531 95.5937 111.792C95.5937 112.146 95.5937 112.495 95.5937 112.917V112.922Z" fill="#878787"/>
<path d="M139.557 54.6042C139.719 54.2344 139.839 53.9531 139.964 53.6719C140.021 53.6823 140.078 53.6927 140.13 53.6979C140.177 53.849 140.271 53.9948 140.266 54.1458C140.224 55.9896 140.182 57.8437 140.099 59.6875C140.083 59.974 139.896 60.3229 139.677 60.526C138.193 61.9063 136.646 63.2031 134.839 64.151C132.516 65.3698 130.12 66.4063 127.583 67.099C125.438 67.6875 123.292 68.3021 121.13 68.8333C117.484 69.7188 113.771 70.2292 110.047 70.7188C106.651 71.1667 103.234 71.3385 99.823 71.6198C94.823 72.0365 89.8178 71.9844 84.823 71.8281C80.7813 71.6979 76.7292 71.3906 72.7084 70.9479C69.1042 70.5521 65.5001 70.0729 61.9584 69.2448C58.8595 68.5208 55.7761 67.7292 52.8074 66.5781C50.5886 65.7187 48.4272 64.7292 46.5157 63.2708C45.5157 62.5 44.6147 61.625 44.0522 60.4896C43.1355 58.6198 43.4376 56.8438 44.6772 55.2135C45.7553 53.7865 47.1876 52.7708 48.724 51.9063C50.9845 50.6354 53.3751 49.6615 55.8438 48.8698C58.0574 48.1615 60.2917 47.5573 62.5574 47.0365C66.0365 46.2396 69.5574 45.6875 73.099 45.1875C76.3751 44.724 79.672 44.5469 82.9636 44.2656C88.8803 43.75 94.8126 43.8437 100.734 44.0417C104.542 44.1719 108.333 44.5781 112.125 44.9479C114.141 45.1406 116.146 45.4427 118.136 45.8281C120.88 46.3594 123.62 46.9271 126.323 47.6354C128.734 48.2656 131.109 49.0677 133.375 50.1354C135.234 51.0104 137.047 51.9792 138.521 53.4531C138.875 53.8073 139.193 54.1927 139.563 54.6042H139.557Z" fill="#22252E"/>
<path d="M154.479 111.25C154.875 111.25 155.162 111.25 155.453 111.25C156.495 111.245 157.537 111.224 158.578 111.245C159.87 111.271 160.787 112.151 160.797 113.333C160.807 114.516 159.912 115.385 158.609 115.458C158.224 115.479 157.833 115.474 157.448 115.479C153.693 115.495 149.943 115.516 146.188 115.531C145.917 115.531 145.646 115.542 145.386 115.516C144.255 115.385 143.458 114.521 143.453 113.422C143.443 112.323 144.219 111.438 145.349 111.302C145.703 111.26 146.063 111.276 146.417 111.276C147.578 111.266 148.74 111.26 149.906 111.25C149.958 111.25 150.016 111.219 150.193 111.167C150.203 110.833 150.219 110.458 150.219 110.083C150.219 97.7396 150.219 85.3959 150.219 73.0521C150.219 72.6354 150.208 72.2136 150.255 71.8021C150.38 70.7188 151.24 69.9479 152.302 69.9323C153.37 69.9115 154.25 70.6459 154.412 71.7292C154.474 72.1667 154.474 72.6198 154.474 73.0677C154.474 85.349 154.474 97.6302 154.474 109.917C154.474 110.328 154.474 110.734 154.474 111.255L154.479 111.25Z" fill="#878787"/>
<path d="M24.2761 112.646C25.3126 112.646 26.2345 112.646 27.1511 112.646C27.4793 112.646 27.8126 112.641 28.1303 112.687C29.1407 112.844 29.8907 113.734 29.8959 114.75C29.9011 115.771 29.1616 116.661 28.1511 116.828C27.8282 116.875 27.5001 116.875 27.172 116.875C23.9272 116.891 20.6772 116.901 17.4324 116.906C17.1043 116.906 16.7761 116.911 16.4532 116.865C15.3282 116.708 14.5522 115.812 14.5834 114.724C14.6147 113.635 15.4376 112.755 16.5678 112.687C17.4011 112.635 18.2345 112.672 19.0678 112.661C19.3282 112.661 19.5886 112.63 19.9428 112.604C19.9428 112.245 19.9532 111.922 19.9428 111.609C19.797 106.333 19.6563 101.062 19.5053 95.7864C19.3282 89.8021 19.1511 83.8125 18.9845 77.8281C18.9636 77.1458 18.9168 76.4479 19.0157 75.7812C19.1668 74.7812 20.047 74.0989 21.0366 74.0885C22.0157 74.0833 22.8907 74.7656 23.1095 75.7396C23.172 75.9948 23.1772 76.2708 23.1876 76.5364C23.2345 77.7292 23.2761 78.9219 23.3126 80.1146C23.547 88.0052 23.7761 95.901 24.0053 103.797C24.0834 106.417 24.1511 109.036 24.2293 111.656C24.2345 111.948 24.2553 112.245 24.2761 112.646Z" fill="#878787"/>
<path d="M101.088 115.984C101.203 115.849 101.286 115.682 101.422 115.599C102.625 114.833 103.833 114.078 105.036 113.318C106.521 112.391 108 111.453 109.484 110.531C110.338 110 111.208 109.479 112.068 108.953C112.318 108.797 112.578 108.651 112.812 108.469C113.344 108.057 113.932 107.844 114.62 107.844C116.703 107.844 118.781 107.823 120.865 107.812C121.187 107.812 121.51 107.839 121.802 107.849C122.036 108.583 122.12 114.542 121.927 116.286C121.672 116.318 121.391 116.385 121.109 116.38C114.802 116.354 108.495 116.318 102.187 116.276C101.828 116.276 101.411 116.411 101.083 115.984H101.088Z" fill="#663B2A"/>
<path d="M148.573 22.9688C147.859 22.6511 147.167 22.3802 146.51 22.0365C145.713 21.625 145.297 20.8125 145.463 19.974C145.625 19.1406 146.193 18.6146 146.989 18.3854C147.349 18.2813 147.76 18.2709 148.13 18.3334C148.687 18.4323 149.229 18.6042 149.76 18.7917C152.448 19.7448 155.13 20.7084 157.812 21.6771C159.292 22.2136 160.76 22.7917 162.234 23.3281C164.641 24.1979 167.047 25.0469 169.448 25.9115C171.406 26.6146 173.359 27.3229 175.302 28.0625C176.016 28.3334 176.463 29.1459 176.437 29.9427C176.411 30.7917 175.922 31.5417 175.135 31.7917C174.667 31.9427 174.156 31.974 173.641 32.0625C173.807 33.5625 174.01 35.0886 174.13 36.6146C174.453 40.8073 174.812 45 174.573 49.2031C174.167 56.5834 171.891 63.3281 167.448 69.2865C165.604 71.7604 163.161 73.2917 160.088 73.7656C158.62 73.9948 157.25 73.6563 155.922 73.0729C152.755 71.6719 150.437 69.3334 148.604 66.4584C146.463 63.1042 145.125 59.4219 144.26 55.5573C143.187 50.7396 142.552 45.875 142.76 40.9271C142.911 37.2917 143.177 33.6667 144.167 30.1354C144.927 27.4115 146.135 24.9636 148.443 23.1927C148.484 23.1563 148.5 23.0938 148.578 22.9636L148.573 22.9688Z" fill="#0D4449"/>
<path d="M6.27083 33.8541C5.74479 33.7708 5.27083 33.7447 4.82292 33.6093C3.9375 33.3437 3.42188 32.5833 3.42188 31.6562C3.42188 30.7708 3.91667 30.1093 4.79688 29.7812C7.44271 28.8072 10.0885 27.8177 12.7396 26.8489C14.8021 26.0885 16.8698 25.3437 18.9375 24.5989C20.724 23.9531 22.5156 23.3177 24.3021 22.6718C26.3385 21.9375 28.375 21.1822 30.4167 20.4583C30.8646 20.2968 31.3333 20.1822 31.7969 20.0989C32.8021 19.927 33.724 20.375 34.224 21.2447C34.6563 21.9895 34.3594 23.2552 33.5938 23.6822C32.8698 24.0781 32.0938 24.401 31.3021 24.7708C31.3542 24.8541 31.3958 24.9687 31.4792 25.026C33.724 26.7708 34.9063 29.1666 35.6719 31.8281C36.3542 34.1875 36.6771 36.6041 36.8854 39.0468C37.1719 42.4375 37.2708 45.8333 36.9063 49.2239C36.3906 54.0937 35.5625 58.901 33.7083 63.4739C32.5313 66.3698 31.0104 69.052 28.8646 71.3489C27.2969 73.0312 25.4375 74.2916 23.2969 75.1302C21.7708 75.7239 20.2292 75.7656 18.651 75.3437C15.9792 74.625 13.8698 73.1041 12.2604 70.8854C8.91146 66.2708 6.78646 61.1614 5.79688 55.5416C5.1875 52.1041 5.14063 48.6614 5.3125 45.2031C5.46875 42.0833 5.73958 38.9635 5.97917 35.8437C6.03125 35.1927 6.16667 34.5468 6.27083 33.8541Z" fill="#0D4449"/>
<mask id="mask0_4865_12587" style="mask-type:luminance" maskUnits="userSpaceOnUse" x="104" y="108" width="22" height="11">
<path d="M104.333 108.667H125.667V118.328H104.333V108.667Z" fill="white"/>
</mask>
<g mask="url(#mask0_4865_12587)">
<path d="M125.443 118.25C118.521 118.172 111.63 118.25 104.745 118.172C104.713 118.083 104.682 117.995 104.651 117.906C104.786 117.75 104.89 117.547 105.062 117.438C107.073 116.177 109.099 114.932 111.109 113.672C112.917 112.542 114.708 111.37 116.531 110.26C116.974 109.995 117.51 109.755 118.005 109.74C120.265 109.672 122.531 109.677 124.792 109.672C125.448 109.672 125.557 109.755 125.562 110.365C125.583 112.865 125.573 115.365 125.562 117.865C125.562 117.948 125.515 118.031 125.443 118.25Z" fill="#865038"/>
</g>
<path d="M91.1303 69.1093C87.698 69.026 85.1615 69.0312 82.6355 68.8853C79.2449 68.6926 75.8647 68.427 72.4844 68.0989C70.2969 67.8853 68.1147 67.5572 65.9428 67.1874C62.2761 66.5624 58.6563 65.7135 55.1094 64.5833C52.9532 63.901 50.8386 63.0885 48.8542 62.0051C47.2865 61.151 45.8022 60.1718 44.6355 58.7708C42.9844 56.7916 42.9324 54.3228 44.5209 52.3072C45.6094 50.927 47.0001 49.9114 48.5053 49.0624C50.7657 47.7916 53.1563 46.8072 55.6251 46.0156C57.8647 45.302 60.1303 44.6822 62.4219 44.1614C65.8751 43.3697 69.3699 42.8281 72.8751 42.3281C76.1251 41.8645 79.3907 41.6874 82.6511 41.401C88.6303 40.8853 94.6147 40.9687 100.599 41.177C104.375 41.3072 108.151 41.6353 111.901 42.0937C115.469 42.526 119.021 43.1718 122.547 43.8749C124.729 44.3124 126.885 44.9479 129 45.6353C131.573 46.4791 134.089 47.4947 136.359 49.0051C137.708 49.8958 138.943 50.9218 139.719 52.3853C140.667 54.1822 140.422 55.901 139.297 57.5156C138.448 58.7239 137.318 59.651 136.078 60.4374C133.396 62.1406 130.474 63.2864 127.458 64.2395C125.271 64.927 123.063 65.5051 120.823 66.0103C117.25 66.8176 113.635 67.3593 110.01 67.8385C106.521 68.3072 103.021 68.5572 99.5157 68.7447C96.4219 68.9114 93.3282 69.0156 91.1355 69.1093H91.1303Z" fill="#3E424B"/>
<mask id="mask1_4865_12587" style="mask-type:luminance" maskUnits="userSpaceOnUse" x="0" y="28" width="49" height="57">
<path d="M0.666748 28.6666H48.3334V84.6666H0.666748V28.6666Z" fill="white"/>
</mask>
<g mask="url(#mask1_4865_12587)">
<path d="M36.8439 84.5676C34.7918 84.5259 32.6147 84.5572 30.4481 84.4114C28.672 84.2864 26.9012 83.9686 25.1356 83.7082C22.5991 83.3384 20.0626 82.9947 17.5939 82.2811C14.4637 81.3749 11.672 79.9322 9.69285 77.2239C8.49493 75.578 7.47931 73.8332 6.68243 71.9582C5.67722 69.5884 5.11472 67.0832 4.36472 64.6353C2.67722 59.1093 1.82827 53.4218 1.2241 47.6978C0.682432 42.5207 1.07827 37.4009 2.41681 32.3593C2.85952 30.6874 3.99493 29.6353 5.86993 29.8228C6.33868 29.8697 6.82306 29.8645 7.29181 29.9582C8.55222 30.2082 9.30222 31.1041 9.38556 32.3905C9.39077 32.4843 9.39597 32.5728 9.39077 32.6614C9.14077 35.7968 9.46368 38.9166 9.7241 42.0311C10.0887 46.3489 10.7918 50.6093 12.2501 54.7134C14.9949 62.4634 19.2866 69.2186 25.3022 74.8489C28.1251 77.4895 31.4376 79.2395 35.2293 80.0468C35.8074 80.1666 36.4064 80.2239 37.0001 80.2343C38.8751 80.2655 40.7501 80.2759 42.6303 80.2707C43.4637 80.2655 44.297 80.2343 45.1251 80.1614C46.2449 80.0624 47.1304 80.6041 47.3751 81.6093C47.6095 82.5832 47.0366 83.5624 45.9533 83.8593C45.271 84.052 44.5522 84.1509 43.8439 84.1978C41.5574 84.3436 39.2658 84.4426 36.8439 84.5728V84.5676Z" fill="#8C9880"/>
</g>
<mask id="mask2_4865_12587" style="mask-type:luminance" maskUnits="userSpaceOnUse" x="131" y="27" width="48" height="57">
<path d="M131 27.3334H178.578V83.3334H131V27.3334Z" fill="white"/>
</mask>
<g mask="url(#mask2_4865_12587)">
<path d="M141.599 82.3282C139.25 82.1823 136.901 82.0521 134.557 81.8802C134.026 81.8438 133.49 81.7136 133 81.5209C132.083 81.1563 131.651 80.2552 131.864 79.3386C132.068 78.474 132.844 77.9115 133.792 77.9219C136.74 77.9479 139.687 78.0157 142.635 77.974C144.38 77.9532 146.021 77.3542 147.62 76.6875C150.354 75.5573 152.74 73.8907 154.818 71.7917C161.417 65.125 166.031 57.3073 168.224 48.1459C169 44.8959 169.479 41.5886 169.615 38.2396C169.693 36.3073 169.828 34.375 169.911 32.4427C169.937 31.849 169.859 31.25 169.833 30.6563C169.766 28.8906 170.667 27.8438 172.417 27.6511C172.802 27.6094 173.187 27.5677 173.573 27.5573C175.161 27.5104 176.266 28.2813 176.708 29.8125C176.995 30.8125 177.203 31.8386 177.422 32.8594C178.594 38.3334 178.354 43.8281 177.542 49.3125C177.109 52.2552 176.677 55.2188 175.984 58.1094C175.057 61.9844 174.068 65.8594 172.599 69.5886C171.885 71.4011 170.885 73.0625 169.786 74.6563C167.724 77.6407 164.76 79.2813 161.338 80.0938C158.797 80.7032 156.193 81.0573 153.62 81.5521C149.646 82.3177 145.63 82.3854 141.599 82.3229V82.3282Z" fill="#8C9880"/>
</g>
<path d="M128.5 78.3385C127.281 78.3385 126.063 78.3281 124.839 78.349C124.094 78.3594 124.042 78.4167 123.979 79.1667C123.672 82.8802 123.365 86.5937 123.078 90.3021C122.865 93.125 122.641 95.9479 122.495 98.776C122.391 100.797 122.417 102.828 122.365 104.854C122.354 105.479 122.307 106.104 122.245 106.724C122.151 107.693 121.974 107.87 120.99 108.031C120.313 108.141 119.635 108.26 118.953 108.328C117.234 108.5 115.516 108.625 113.797 108.807C112.995 108.891 112.474 108.599 112.198 107.849C112.078 107.51 111.932 107.187 111.828 106.844C111.156 104.646 110.776 102.385 110.458 100.109C110.125 97.7812 109.714 95.4583 109.427 93.125C108.896 88.901 108.354 84.6719 107.969 80.4323C107.453 74.7865 109.172 69.9115 113.328 65.9635C114.51 64.8437 115.865 63.974 117.333 63.3021C121.016 61.6094 124.787 60.1354 128.766 59.2865C132.557 58.4792 136.38 57.9115 140.24 57.5521C141.385 57.4427 142.49 57.4844 143.604 57.6875C144.453 57.849 145.177 58.25 145.745 58.8906C147.495 60.8594 148.359 63.1198 148.042 65.7812C147.771 68.0781 147.229 70.2865 146.203 72.375C145.203 74.401 143.662 75.7865 141.594 76.651C139.823 77.3906 137.969 77.7969 136.078 78.0781C133.755 78.4167 130.615 78.6042 128.505 78.3385H128.5Z" fill="#879294"/>
<path d="M148.615 51.9479C148.802 51.8646 148.984 51.7552 149.182 51.7135C152.083 51.0469 154.99 50.4167 157.88 49.7188C160.115 49.1771 162.047 48.0885 163.427 46.2031C163.901 45.5677 164.26 44.8333 164.588 44.1094C164.88 43.474 164.865 42.7865 164.646 42.099C164.443 41.4792 164.292 40.8385 164.146 40.1979C164.099 39.9948 164.141 39.776 164.302 39.5C164.422 39.6354 164.604 39.7552 164.651 39.9115C164.927 40.8229 165.25 41.7292 165.396 42.6667C165.479 43.1979 165.344 43.8021 165.156 44.3229C164.26 46.8125 162.484 48.5208 160.099 49.5729C157.937 50.526 155.615 50.974 153.318 51.4688C152.213 51.7135 151.104 51.9375 149.995 52.1406C149.568 52.2187 149.13 52.224 148.698 52.2604C148.672 52.1563 148.646 52.0469 148.62 51.9427L148.615 51.9479Z" fill="#F26C51"/>
<path d="M145.094 42.7239C147.703 41.7604 150.156 40.9114 152.677 40.1562C152.344 39.1562 151.995 38.2448 151.734 37.302C151.484 36.3802 151.198 35.4427 151.401 34.4739C151.464 34.4479 151.526 34.4218 151.594 34.401C151.693 34.5416 151.865 34.6718 151.88 34.8229C152.073 36.5937 152.583 38.2604 153.313 39.875C153.521 40.3333 153.432 40.4843 152.948 40.6979C152.813 40.7604 152.667 40.802 152.526 40.8437C150.49 41.5104 148.453 42.1718 146.411 42.8333C146.156 42.9114 145.896 42.9843 145.63 43.0052C145.526 43.0156 145.401 42.8906 145.094 42.7239Z" fill="#F26C51"/>
<path d="M137.469 45.1458C137.307 45.3489 137.234 45.5364 137.109 45.5833C135.469 46.125 133.828 46.6562 132.187 47.1771C132.12 47.1979 132.026 47.125 131.865 47.0677C131.969 46.9114 132.026 46.7083 132.141 46.6719C133.74 46.1146 135.349 45.5833 136.963 45.0521C137.078 45.0156 137.229 45.0989 137.469 45.1458Z" fill="#F26C51"/>
<path d="M127.74 80.2708C127.609 81.3906 127.469 82.4167 127.386 83.4479C127.042 87.7865 126.677 92.1198 126.386 96.4583C126.224 98.8958 126.188 101.339 126.099 103.781C126.042 105.333 126.011 106.88 125.938 108.427C125.88 109.521 125.719 109.74 124.651 109.891C122.886 110.141 121.104 110.323 119.333 110.526C118.714 110.594 118.089 110.635 117.469 110.703C116.724 110.792 116.156 110.552 115.917 109.813C115.552 108.682 115.146 107.557 114.901 106.396C114.531 104.651 114.339 102.87 113.979 101.12C113.229 97.4896 113.021 93.7969 112.547 90.1354C112.271 88.0104 111.969 85.8854 111.74 83.75C111.479 81.3125 111.505 78.875 111.979 76.4531C112.245 75.0938 112.703 73.8125 113.37 72.6042C115.396 68.8854 118.333 66.1875 122.266 64.5625C126.74 62.7135 131.287 61.1354 136.094 60.4635C138.984 60.0521 141.875 59.6458 144.776 59.3646C145.724 59.2708 146.724 59.5052 147.688 59.6979C148.599 59.875 149.271 60.5104 149.818 61.2344C151.109 62.9115 151.886 64.7865 151.75 66.9479C151.583 69.6198 150.958 72.1771 149.703 74.5677C148.776 76.3281 147.391 77.5677 145.589 78.3802C143.724 79.224 141.761 79.651 139.75 79.9583C136.339 80.4896 132.917 80.3594 129.495 80.2396C128.938 80.224 128.38 80.2604 127.74 80.276V80.2708Z" fill="#97A2A4"/>
<path d="M150.437 28.9166C150.614 32.2916 150.255 35.6354 149.995 38.9948C149.739 42.1979 149.677 45.4166 149.547 48.6354C149.453 50.8958 149.375 53.1614 148.844 55.375C148.51 56.75 148.005 58.0364 147.094 59.151C146.302 60.1146 145.328 60.7604 144.094 60.9219C141.391 61.2708 138.682 61.3489 136.021 60.6302C135.224 60.4114 134.448 60.0833 133.703 59.7187C132.854 59.3125 132.646 58.8125 132.828 57.8906C133.094 56.5469 133.489 55.2187 133.63 53.8646C133.849 51.7344 133.989 49.5833 134 47.4427C134.031 41.5729 133.989 35.6979 133.948 29.8281C133.937 27.9114 134.088 26.0312 134.698 24.2031C134.75 24.0364 134.838 23.875 134.943 23.7344C136.76 21.2552 139.12 19.7135 142.25 19.4687C143.859 19.3385 145.463 19.2916 147.052 19.6406C147.078 19.651 147.109 19.651 147.141 19.6614C149.406 20.1666 150.354 21.2344 150.427 23.5573C150.489 25.3385 150.437 27.1302 150.437 28.9166Z" fill="#A0C4D2"/>
<path d="M124.703 51.4688C124.214 51.2709 123.755 51.1251 123.344 50.9063C122.974 50.7084 122.63 50.448 122.818 49.9115C122.854 49.8126 122.776 49.6459 122.708 49.5417C122.214 48.8022 122.234 48.724 123.125 48.3282C123.115 48.2344 123.094 48.1251 123.089 48.0157C123.089 47.9063 123.099 47.7865 123.104 47.6719C123.208 47.6199 123.281 47.5417 123.359 47.5469C124.219 47.573 125.078 47.5938 125.938 47.6511C127.115 47.7292 128.297 47.8386 129.531 47.8022C129.375 47.698 129.219 47.5938 129.063 47.4897C128.917 47.3855 128.76 47.2969 128.625 47.1824C128.313 46.9167 128.083 46.5938 128.292 46.1719C128.484 45.7969 128.854 45.7605 129.224 45.8334C129.51 45.8959 129.807 45.974 130.073 46.0938C131.432 46.7136 132.724 47.4324 133.714 48.5938C134.365 49.3647 134.74 50.2813 134.854 51.2657C134.943 52.0365 134.589 52.7188 133.839 52.974C132.917 53.2865 131.964 53.6042 131.005 53.6667C129.276 53.7761 127.573 53.4219 125.911 52.9272C125.74 52.8751 125.573 52.8126 125.411 52.7397C124.719 52.4219 124.656 52.3074 124.708 51.4688H124.703Z" fill="#FD8E60"/>
<path d="M104.5 25.2656C104.448 24.8281 104.354 24.3906 104.359 23.9531C104.359 23.7187 104.479 23.3698 104.651 23.2812C104.995 23.1145 105.188 23.4583 105.318 23.7135C105.49 24.0573 105.625 24.4218 105.729 24.7916C105.865 25.276 105.953 25.776 106.052 26.276C106.292 27.5104 106.662 28.7031 107.38 29.75C107.636 30.125 107.599 30.4323 107.281 30.6875C106.672 31.1666 106.057 31.6354 105.417 32.0625C105 32.3437 104.49 32.3489 104.042 32.1562C103.5 31.927 102.932 31.6718 102.49 31.302C101.271 30.2604 100.109 29.151 98.9272 28.0729C98.797 27.9479 98.6615 27.8333 98.547 27.6979C98.349 27.4531 98.0001 27.2239 98.2084 26.8593C98.4115 26.4948 98.7761 26.651 99.0886 26.7343C99.3751 26.8073 99.6511 26.8906 100.136 27.0312C99.8855 26.7031 99.7397 26.5156 99.599 26.3229C99.1876 25.7812 98.7501 25.25 98.3855 24.677C98.2657 24.4948 98.2761 24.1614 98.3647 23.9583C98.4063 23.8593 98.7761 23.8854 98.9949 23.9062C99.1668 23.9166 99.3334 24.0052 99.6407 24.1093C99.4688 23.8073 99.3543 23.6041 99.2345 23.3958C99.047 23.0625 98.7032 22.6979 99.0418 22.3489C99.4376 21.9427 99.8126 22.3593 100.146 22.5625C100.484 22.7708 100.792 23.0364 101.203 23.1823C101.026 22.8541 100.807 22.5364 100.677 22.1875C100.609 22 100.693 21.7604 100.708 21.5416C100.901 21.5729 101.13 21.5416 101.276 21.6406C101.552 21.8125 101.813 22.026 102.016 22.2812C102.724 23.1562 103.412 24.0573 104.099 24.9479C104.188 25.0625 104.271 25.1823 104.354 25.2968L104.505 25.2708L104.5 25.2656Z" fill="#FD8E60"/>
<path d="M147.047 52.5052C146.318 52.6666 145.745 52.8072 145.167 52.9166C142.391 53.4583 139.615 53.9895 136.839 54.5312C136.401 54.6145 135.964 54.7187 135.526 54.8124C134.62 54.9947 134.302 54.8437 134.047 53.9895C133.422 51.9374 132.807 49.8802 132.245 47.8124C132.13 47.3906 131.958 47.1354 131.578 46.9531C130.906 46.6406 130.25 46.276 129.568 45.9791C129.151 45.7968 128.995 45.5312 129.005 45.0781C129.031 44.0416 129.016 43.0052 129.016 41.7968C128.661 41.9999 128.464 42.0937 128.281 42.2135C126.922 43.1302 125.573 44.052 124.219 44.9687C121.281 46.9583 118.203 46.7812 115.099 45.4999C112.818 44.5624 110.818 43.1614 109.016 41.4791C106.839 39.4427 104.656 37.4114 102.484 35.3749C101.818 34.7499 101.786 34.526 102.448 33.8229C103.776 32.4114 105.13 31.0208 106.479 29.6302C106.995 29.0937 107.526 28.5677 108.047 28.0416C108.62 27.4531 108.797 27.427 109.354 28.0156C110.953 29.7187 112.797 31.1406 114.635 32.5572C115.635 33.3229 116.698 33.9739 117.906 34.3593C119.271 34.7916 119.797 34.6562 120.724 33.5468C121.125 33.0677 121.484 32.552 121.875 32.0624C124.125 29.2499 126.396 26.4427 128.635 23.6197C129.339 22.7343 130.219 22.2239 131.328 22.0104C133.281 21.6302 135.229 21.1927 137.182 20.7864C137.328 20.7552 137.479 20.7343 137.63 20.7291C138.172 20.7083 138.333 20.8385 138.396 21.3593C138.417 21.5052 138.411 21.6562 138.401 21.8072C138.297 23.4427 138.177 25.0781 138.078 26.7135C137.979 28.3177 137.833 29.9218 137.823 31.5312C137.792 35.8593 137.578 40.1718 137.083 44.4687C137.062 44.6666 137.083 44.8697 137.083 45.1927C140.187 44.2812 143.229 43.3854 146.318 42.4791C146.318 41.8697 146.344 41.3697 146.313 40.8697C146.234 39.5937 146.068 38.3124 146.052 37.0364C146.031 35.5468 146.115 34.0572 146.193 32.5729C146.26 31.2916 146.359 30.0156 146.49 28.7395C146.536 28.302 146.651 27.8489 146.849 27.4635C147.828 25.5208 148.849 23.6041 149.849 21.6718C149.958 21.4635 150.073 21.2499 150.172 21.0364C150.385 20.5729 150.75 20.4583 151.208 20.6041C152 20.8645 152.786 21.1406 153.583 21.3906C154.599 21.7135 155.62 22.0572 156.656 22.3177C157.37 22.4999 157.906 22.8541 158.26 23.4895C158.432 23.802 158.609 24.1197 158.74 24.4479C160.656 29.3281 162.573 34.2083 164.464 39.0989C164.969 40.4062 165.339 41.7552 165.349 43.177C165.354 43.9791 165.161 44.6979 164.745 45.3854C163.755 46.9999 162.427 48.2552 160.771 49.1562C160.339 49.3906 160.115 49.6249 160.047 50.1406C159.224 56.0208 157.917 61.8072 156.688 67.6041C156.406 68.9374 155.979 70.2552 155.469 71.5208C154.568 73.7656 152.776 75.1927 150.724 76.3177C149.068 77.2291 147.276 77.7708 145.453 78.2447C141.849 79.1718 138.187 79.5104 134.484 79.5729C134.089 79.5781 133.552 79.7395 133.359 79.2708C133.167 78.7916 133.682 78.5468 133.974 78.2864C135.87 76.5416 137.547 74.6145 138.943 72.4479C139.828 71.0677 140.734 69.6979 141.625 68.3229C142.62 66.7916 143.38 65.151 143.948 63.4114C144.885 60.526 146.016 57.6979 146.599 54.6979C146.729 54.0312 146.87 53.3645 147.042 52.5052H147.047Z" fill="#E9E2EC"/>
<path d="M44.4844 20.3125C43.0729 20.9792 41.6146 20.8542 40.1719 20.8125C39.5209 19.5938 39.724 18.3594 39.8542 17.1458C39.9896 15.9271 40.2552 14.7188 40.349 13.4896C40.4948 11.5104 40.1459 9.64064 38.7136 8.12501C37.4636 6.79688 36.2969 6.51563 34.6354 7.28647C31.8386 8.57813 30.1927 10.7136 30.1719 13.8906C30.1667 15.3386 30.2709 16.7969 30.3802 18.2448C30.4219 18.7917 30.8594 19.1771 31.2761 19.4896C31.7344 19.8386 32.2552 20.1146 32.8177 20.4636C32.6927 20.5261 32.5938 20.6042 32.4896 20.6198C30.6563 20.9636 28.8698 20.6406 27.1042 20.2188C26.1563 19.9896 25.5209 19.2917 25.0104 18.5C24.1146 17.125 23.7188 15.5781 23.6979 13.9688C23.6719 11.2031 24.0782 8.50522 25.2084 5.95313C25.7136 4.81772 26.3542 3.77084 27.2344 2.89584C28.1771 1.95834 29.2865 1.39063 30.6771 1.43751C32.6302 1.4948 34.5886 1.45834 36.5365 1.55209C37.4219 1.59376 38.3125 1.79168 39.1719 2.03126C41.6042 2.71876 43.2917 4.22918 43.9532 6.72397C44.5261 8.8698 44.5261 11.0313 44.0209 13.1927C43.7032 14.5521 43.3073 15.8958 43.2917 17.3125C43.2813 18.3646 43.4844 19.3125 44.349 20.0156C44.4063 20.0625 44.4219 20.1563 44.4896 20.3125H44.4844Z" fill="#FFB777"/>
<path d="M76.1302 113.917C75.8438 113.948 75.5521 114.005 75.2657 114.01C73.7552 114.026 72.25 114.026 70.7448 114.031C66.3334 114.057 61.9271 114.089 57.5157 114.109C57.2188 114.109 56.9219 114.057 56.6407 114.036C56.474 112.813 56.5313 106.823 56.724 106.12C56.9948 106.099 57.2917 106.068 57.5886 106.068C59.573 106.078 61.5573 106.109 63.5365 106.099C64.0625 106.099 64.5261 106.255 64.9479 106.521C68.4844 108.74 72.0157 110.964 75.5521 113.188C75.7709 113.328 75.9792 113.495 76.198 113.651C76.1719 113.74 76.1511 113.828 76.1302 113.922V113.917Z" fill="#F18B86"/>
<path d="M66.7344 117.187C66.3594 117.224 65.9792 117.297 65.6042 117.302C64.1771 117.323 62.7552 117.328 61.3333 117.328C56.9531 117.338 52.5729 117.349 48.1875 117.359C47.8854 117.359 47.5885 117.359 47.2448 117.359C47.2135 117.052 47.1719 116.838 47.1719 116.62C47.1667 114.5 47.1667 112.375 47.1719 110.25C47.1719 109.344 47.2083 109.312 48.1302 109.318C50.0833 109.328 52.0365 109.354 53.9896 109.354C54.6875 109.354 55.2656 109.609 55.8385 110C56.6406 110.547 57.4844 111.042 58.3125 111.552C59.5417 112.312 60.7813 113.062 62.0052 113.828C63.4219 114.719 64.8333 115.615 66.2396 116.51C66.4375 116.641 66.6146 116.797 66.8021 116.937C66.776 117.021 66.7552 117.104 66.7344 117.187Z" fill="#FE9894"/>
<path d="M42.0261 11.349C40.9792 11.1407 40.1407 10.5365 39.3542 9.83337C40.2761 10.2709 41.198 10.7136 42.1199 11.1511C42.0834 11.2188 42.0522 11.2813 42.0261 11.349Z" fill="white"/>
<path d="M66.8228 91.026C66.8801 95.7865 66.4895 100.521 65.9166 105.24C65.8905 105.464 65.8385 105.682 65.7968 105.901C65.7082 106.344 65.4218 106.573 64.9895 106.635C64.6562 106.682 64.3228 106.703 63.9895 106.724C61.3124 106.906 58.6405 107.083 55.9687 107.266C54.0364 107.396 53.6822 107.078 53.3905 105.193C52.8072 101.411 52.2135 97.6302 51.5572 93.8646C51.1562 91.526 50.6718 89.1979 50.1666 86.8802C49.7968 85.1771 49.1145 83.5833 48.2707 82.0573C47.5155 80.6979 46.4478 79.7708 44.9739 79.25C43.4582 78.7187 41.8697 78.5521 40.3124 78.2448C38.5624 77.8958 36.8124 77.5417 35.0884 77.0833C33.1822 76.5833 31.6405 75.4792 30.5572 73.8281C29.7812 72.6406 29.0312 71.4167 28.4009 70.1458C26.8593 67.0417 26.9687 63.8906 28.3384 60.75C28.5312 60.3177 28.7343 59.8906 28.9634 59.4739C29.1666 59.0989 29.2291 58.5989 29.8072 58.5364C29.9009 58.526 29.9687 58.3229 30.0572 58.2187C30.5051 57.6823 30.9322 57.1302 31.4062 56.6198C32.4426 55.5156 33.7707 54.9792 35.2499 54.7552C36.8697 54.5052 38.4843 54.5625 40.0937 54.7864C43.7447 55.2917 47.3749 55.9167 50.927 56.9427C54.9843 58.1094 58.427 60.2083 60.9843 63.6562C62.0937 65.151 62.8749 66.8125 63.5155 68.5521C64.9635 72.4687 66.0572 76.4792 66.4947 80.6406C66.703 82.6094 66.7447 84.5989 66.8072 86.5833C66.8593 88.0625 66.8176 89.5469 66.8176 91.0312L66.8228 91.026Z" fill="#685662"/>
<path d="M58.7917 92.5521C58.651 95.8229 58.5573 99.0885 58.3542 102.354C58.2344 104.302 57.9635 106.245 57.7292 108.187C57.625 109.099 57.4167 109.286 56.5104 109.349C54.1979 109.51 51.8854 109.646 49.5729 109.797C48.7604 109.849 47.9531 109.943 47.1458 109.953C45.9115 109.969 45.5104 109.594 45.3281 108.359C44.9844 105.984 44.6979 103.594 44.276 101.229C43.5313 97.0521 42.9219 92.8437 41.8073 88.7396C41.4219 87.3281 40.8177 86.0156 40.1198 84.7343C39.3958 83.3958 38.3438 82.4739 36.901 81.9583C35.3646 81.4114 33.75 81.2343 32.1615 80.9271C30.4375 80.5885 28.7135 80.2343 27.0208 79.7864C25.0885 79.2812 23.5104 78.1771 22.4115 76.5C21.6354 75.3073 20.8958 74.0833 20.2604 72.8177C18.6927 69.6823 18.8385 66.5052 20.2396 63.3489C20.4792 62.8125 20.7552 62.2968 21.0156 61.7708C21.0781 61.6458 21.1354 61.4479 21.2292 61.4218C21.901 61.2396 22.1042 60.6041 22.4635 60.1406C24.0365 58.1302 26.1615 57.3541 28.625 57.2916C30.7917 57.2291 32.9115 57.5833 35.0313 57.9427C37.8385 58.4218 40.6406 58.9479 43.3646 59.8021C47.7292 61.1771 51.2656 63.6614 53.6979 67.6041C54.6875 69.2135 55.2813 70.9896 55.9063 72.7552C57.2552 76.5677 58.1458 80.4843 58.4948 84.5104C58.6823 86.6823 58.6458 88.8698 58.7031 91.0468C58.7135 91.5521 58.7031 92.0521 58.7031 92.5573C58.7292 92.5573 58.7604 92.5573 58.7865 92.5573L58.7917 92.5521Z" fill="#85737F"/>
<path d="M17.4375 44.849C16.1042 44.7865 14.875 44.7761 13.6511 44.6563C12.9688 44.5938 12.2761 44.4219 11.6354 44.1771C10.9636 43.9219 10.8438 43.6094 10.9636 42.9219C11.5052 39.7709 12.3177 36.6771 13.5469 33.7396C15.6198 28.7865 19.2448 25.3177 24.2292 23.3073C26.3021 22.474 28.3958 21.6302 30.6354 21.4167C32.8333 21.2031 35.0417 21.1771 37.2448 21.0729C40.0417 20.9375 42.5417 21.8073 44.9896 23.125C48.4688 24.9896 50.7552 27.9063 52.6927 31.1979C53.2917 32.2188 53.8073 33.2604 54.0521 34.4271C54.2761 35.4948 54.2552 35.5886 53.2813 36.0365C50.5365 37.3125 47.9948 38.9375 45.4427 40.5469C45.3958 40.5781 45.3698 40.6302 45.2761 40.7396C45.4115 40.9636 45.5573 41.224 45.7136 41.474C47.875 44.9323 49.5625 48.625 50.5313 52.5781C51.1615 55.1459 51.4063 57.8073 51.8281 60.4271C51.8698 60.6771 51.8802 60.9271 51.9219 61.1771C52.0365 61.8854 51.974 62.1198 51.2708 62.2969C49.7552 62.6771 48.2396 63.0938 46.6979 63.2865C42.1719 63.849 37.6146 63.9636 33.0625 63.9427C30.5677 63.9323 28.1042 63.599 25.6406 63.2396C24.375 63.0573 23.099 62.8854 21.8281 62.6823C21.0313 62.5573 20.9427 62.4063 20.8125 61.6094C20.7031 60.9531 20.5521 60.2917 20.3594 59.6563C19.4063 56.5261 18.3854 53.4167 17.9115 50.1719C17.6927 48.7084 17.6198 47.224 17.4792 45.75C17.4531 45.4792 17.4531 45.2031 17.4375 44.849Z" fill="#FAAEA1"/>
<path d="M47.0363 54.6406C48.4738 54.3177 49.9061 53.9531 51.3593 53.677C52.1197 53.5364 52.9113 53.4895 53.6874 53.4999C54.2968 53.5104 54.3749 53.6927 54.3488 54.4218C54.552 54.4583 54.7811 54.4635 54.9686 54.552C55.177 54.6458 55.4686 54.802 55.4999 54.9739C55.5311 55.1562 55.3384 55.4218 55.177 55.5833C54.9895 55.776 54.729 55.901 54.4218 56.1041C54.729 56.3281 55.2707 56.4635 55.0103 56.927C54.828 57.2447 54.4634 57.4531 54.1822 57.7187C54.2863 57.9374 54.5415 58.2083 54.5103 58.4374C54.4634 58.7343 54.2395 59.0624 53.9947 59.2604C53.4582 59.6927 52.9009 60.1406 52.2759 60.4322C50.5259 61.2395 48.7134 61.8854 46.7915 62.1927C45.6145 62.3802 44.4426 62.3593 43.2968 62.0624C42.2499 61.7968 41.2238 61.4374 40.1822 61.1302C39.9165 61.0572 39.6301 61.0312 39.354 61.0052C36.5468 60.7656 33.729 60.5781 30.927 60.2812C27.2915 59.8906 23.6613 59.4635 20.0415 58.9427C18.0884 58.6666 16.3957 57.7604 15.0103 56.3072C14.3176 55.5729 13.7759 54.776 13.5988 53.7864C13.1926 51.5312 12.8176 49.276 12.453 47.0156C12.3436 46.3541 12.302 45.6822 12.2551 45.0104C12.2082 44.2656 12.3384 44.1197 13.0676 44.0833C16.2499 43.9427 19.4322 43.8072 22.6093 43.6718C23.5936 43.6354 23.8228 43.8645 23.8905 44.8593C23.9738 46.0312 24.0884 47.1979 24.1665 48.3697C24.229 49.2656 24.6405 49.9114 25.4738 50.2499C26.3228 50.5989 27.177 50.9531 28.0572 51.2187C32.0676 52.4322 36.1509 53.3697 40.2551 54.1927C40.9113 54.3229 41.5832 54.3958 42.2499 54.4479C42.5676 54.4739 42.9218 54.4427 43.2186 54.3281C44.0728 53.9843 44.9009 53.5677 45.7499 53.2187C46.2915 52.9999 46.854 52.8281 47.4113 52.6666C47.7551 52.5677 48.104 52.6354 48.2811 52.9843C48.4686 53.3437 48.2707 53.6354 47.9895 53.8541C47.6665 54.1145 47.3176 54.3385 46.9843 54.5781C46.9999 54.6041 47.0155 54.6249 47.0363 54.6458V54.6406Z" fill="#FD8E60"/>
<path d="M78.6614 56.573C78.8333 56.8334 79.0312 57.099 79.1874 57.3907C79.4999 57.9636 79.3437 58.1927 78.677 58.1667C78.5989 58.1615 78.5208 58.1667 78.4062 58.1667C78.4166 58.2448 78.4166 58.323 78.4427 58.3907C78.5468 58.698 78.7916 59.0157 78.4531 59.3125C78.1614 59.573 77.8281 59.4584 77.5052 59.3438C77.3749 59.2969 77.2447 59.2605 77.1249 59.224C76.6614 59.7761 76.5885 59.8438 76.0052 59.5417C75.0416 59.0417 74.1145 58.4688 73.177 57.9167C72.8958 57.75 72.6354 57.5469 72.3281 57.3282C72.2291 57.5313 72.1718 57.6823 72.0833 57.8177C71.8437 58.1875 71.5052 58.3646 71.0781 58.1823C70.6197 57.9896 70.1614 57.7813 69.7343 57.5209C69.3802 57.3073 69.0468 57.0365 68.7552 56.7396C67.4791 55.4636 65.9374 54.724 64.2239 54.1771C60.7916 53.0782 57.4062 51.8438 53.9999 50.6719C52.7343 50.2396 51.4635 49.823 50.1927 49.3855C48.8541 48.9167 47.8541 48.0625 47.0781 46.849C45.8437 44.9063 44.8437 42.8542 43.9322 40.7448C43.9166 40.698 43.9322 40.6355 43.9322 40.5261C44.0729 40.4427 44.2239 40.323 44.3958 40.25C46.9427 39.1563 49.3541 37.8073 51.7656 36.4584C52.0572 36.2917 52.3489 36.125 52.6614 36.0105C53.1822 35.8073 53.2968 35.8542 53.5989 36.3646C54.4322 37.7813 55.3229 39.1771 56.0781 40.6355C56.9427 42.3021 58.1979 43.4584 59.8697 44.2761C63.5312 46.0677 67.1614 47.9323 70.5937 50.1511C70.7916 50.2813 71.052 50.3386 71.2916 50.4011C71.9114 50.5625 72.5416 50.6927 73.1562 50.8646C74.1197 51.125 74.9427 51.599 75.6666 52.3021C76.4062 53.0209 77.2552 53.625 78.0468 54.2865C78.4322 54.6094 78.8124 54.9427 79.1614 55.3021C79.4218 55.5625 79.677 55.9167 79.4635 56.2657C79.3489 56.4532 78.9635 56.4688 78.6666 56.5782L78.6614 56.573Z" fill="#FD8E60"/>
<path d="M30.7865 16.7032C31.2292 16.9167 30.9271 17.3646 31.1198 17.724C31.2761 17.5573 31.4219 17.4115 31.5573 17.2553C32.6459 16.0521 33.9376 15.1563 35.4532 14.573C36.2813 14.2553 37.1355 14.1771 38.0053 14.2969C39.3126 14.4792 40.0469 15.2917 40.0938 16.6042C40.1146 17.1928 40.1303 17.7813 40.073 18.3594C39.9167 19.9688 40.1459 21.5313 40.5157 23.0886C40.6511 23.6563 40.7813 24.2396 40.8126 24.8178C40.9063 26.4532 39.7709 27.6511 38.1355 27.7188C36.6928 27.7761 35.3698 27.4115 34.1876 26.5834C32.9167 25.6876 31.8803 24.5678 31.0105 23.2813C30.6563 22.7605 30.4792 22.198 30.4948 21.5521C30.5261 20.1823 30.5157 18.8178 30.5417 17.448C30.5469 17.1928 30.4271 16.8751 30.7917 16.7032H30.7865Z" fill="#F26C51"/>
<path d="M29.0157 14.5834C28.9219 14.1719 28.8542 13.849 28.7813 13.5313C28.4584 12.0365 28.4324 10.5417 28.8074 9.0469C29.0886 7.9219 29.6459 6.95315 30.5574 6.26044C33.099 4.32294 35.8907 3.50002 39.0417 4.55211C40.9636 5.19794 42.0626 6.49482 42.1719 8.55732C42.198 9.11461 42.2136 9.67711 42.2396 10.2344C42.3178 11.7396 42.3542 13.25 42.4844 14.75C42.6251 16.3698 42.2032 17.7813 41.1876 19.0417C40.2917 20.1511 39.2292 21.0261 37.9636 21.6719C37.2292 22.0521 36.4792 22.125 35.6928 21.8594C33.9896 21.2865 32.3803 20.5156 30.9792 19.375C30.6824 19.1302 30.4011 18.9896 30.0105 18.9636C28.7761 18.8698 27.6771 18.4271 26.7969 17.5261C26.2865 17.0052 25.9792 16.3959 26.0105 15.6511C26.0574 14.4532 26.948 13.8229 28.0782 14.1927C28.3646 14.2813 28.6303 14.4219 29.0105 14.5834H29.0157Z" fill="#FD8E60"/>
<path d="M43.0521 10.7448C43.7448 10.9739 43.3802 11.7343 43.8438 12.1041C43.8177 12.151 43.7813 12.1979 43.7552 12.2395C43.4636 12.2395 43.1563 12.3073 42.8906 12.2291C42.0938 12 41.2708 11.7864 40.5261 11.4323C39.724 11.0468 39 10.9375 38.25 11.4843C38.1302 11.5729 37.9636 11.5885 37.7917 11.6458C37.8281 11.2552 38.2031 10.8854 38.9167 10.5312C38.4219 10.0364 37.9063 9.5833 37.4792 9.05726C37.0365 8.5208 36.6511 7.93226 36.3073 7.32809C35.9636 6.72913 35.7083 6.0833 35.3594 5.3333C34.6927 5.98434 34.0417 6.54684 33.4844 7.18746C32.3021 8.54684 31.4219 10.0885 30.7396 11.7656C30.3646 12.6927 29.8698 13.5677 29.4167 14.4635C29.3594 14.5833 29.25 14.6718 29.1146 14.8281C28.599 14.4635 28.1094 14.1145 27.6511 13.7812C27.6198 13.4323 27.5833 13.1354 27.5677 12.8385C27.4115 9.7708 28.0104 6.94267 30.5833 4.97392C32.875 3.22392 35.4792 2.47913 38.3854 3.21871C41.4063 3.98955 42.8646 6.09371 43.2188 9.31246C43.2708 9.74476 43.1198 10.1927 43.0521 10.75V10.7448ZM42.0261 11.3489C42.0573 11.2864 42.0886 11.2187 42.1198 11.1562C41.1979 10.7135 40.2761 10.276 39.3542 9.8333C40.1406 10.5416 40.9792 11.1458 42.0261 11.3489Z" fill="#FFB777"/>
<path d="M32.2396 12.4428C32.3542 11.6824 32.849 11.2865 33.7188 11.1667C34.3646 11.073 34.8385 11.2969 35.0729 11.8438C34.5677 11.8021 34.0677 11.6667 33.6198 11.7605C33.1615 11.8594 32.7448 12.1771 32.2344 12.4376L32.2396 12.4428Z" fill="#FFB777"/>
<path d="M36.052 17.9791C36.2655 17.5416 36.5676 17.8229 36.8124 17.7968C37.0885 17.7708 37.3645 17.7604 37.6405 17.7239C37.8905 17.6875 38.1093 17.375 38.3958 17.6302C38.0416 18.4166 36.9895 18.5781 36.052 17.9791Z" fill="#3D1621"/>
<path d="M37.3906 16.0938C36.7395 15.625 36.6458 14.9687 37.1718 14.4375C37.2968 15 37.5416 15.4948 37.3906 16.0938Z" fill="#F26C51"/>
<path d="M40.1824 13.1667C39.948 13.3229 39.8126 13.4792 39.6616 13.4896C39.4064 13.5104 39.2345 13.3229 39.3074 13.0781C39.3439 12.9479 39.5678 12.7917 39.7032 12.7969C39.8386 12.7969 39.9689 12.9896 40.1772 13.1615L40.1824 13.1667Z" fill="#3D1621"/>
<path d="M34.6719 13.5573C34.5052 13.7135 34.3542 13.9219 34.2917 13.8958C34.1458 13.8437 34.0417 13.6771 33.9219 13.5573C34.0313 13.4583 34.1406 13.2864 34.2552 13.2812C34.3698 13.2708 34.4948 13.4323 34.6719 13.5625V13.5573Z" fill="#3D1621"/>
<path d="M142.802 24.5313C142.042 25.2865 141.26 26.0573 140.484 26.8333C140.318 27 140.167 27.1979 139.979 27.3386C139.641 27.5938 139.375 27.5 139.234 27.0886C139.208 27.0052 139.203 26.9115 139.193 26.8229C138.906 25.1198 138.615 23.4167 138.339 21.7188C138.146 20.5261 139.073 18.8802 140.172 18.474C140.359 18.4063 140.562 18.4115 140.771 18.3802C140.766 20.1302 141.505 21.5833 142.297 23.0052C142.708 23.7604 142.937 23.7865 143.615 23.2448C144.75 22.3281 145.854 21.375 146.995 20.4636C147.516 20.0521 147.635 19.4844 147.729 18.8958C147.823 18.2813 147.906 17.6667 147.99 17.0729C148.797 17.0313 149.562 17.5156 149.766 18.1667C149.964 18.8229 150.141 19.4844 150.359 20.1302C150.495 20.5261 150.464 20.8698 150.281 21.2448C149.422 22.9792 148.588 24.724 147.74 26.4583C147.12 27.7344 146.891 27.7917 145.766 26.9271C144.781 26.1615 143.823 25.3594 142.807 24.5365L142.802 24.5313Z" fill="#638998"/>
<path d="M140.505 14.6406C141.052 14.9896 140.688 15.625 141.042 16.0781C141.193 15.9271 141.344 15.776 141.495 15.6198C142.88 14.2291 144.583 13.5208 146.511 13.3802C147.74 13.2864 148.302 13.8229 148.271 15.0625C148.229 16.3437 148.099 17.6198 147.938 18.8854C147.833 19.7343 147.438 20.4687 146.771 21.0312C145.651 21.9687 144.552 22.9271 143.422 23.8489C142.896 24.2812 142.609 24.2239 142.271 23.6406C141.802 22.8125 141.328 21.9791 140.943 21.1146C140.745 20.6666 140.677 20.1458 140.625 19.651C140.495 18.2864 140.396 16.9218 140.297 15.5573C140.276 15.25 140.182 14.9114 140.505 14.6406Z" fill="#F26C51"/>
<path d="M149.011 11.0365C149.24 11 149.474 10.9375 149.703 10.9323C150.63 10.9062 151.214 11.5156 151.177 12.4427C151.156 13.0417 150.886 13.5312 150.479 13.9427C149.922 14.4948 149.276 14.9479 148.505 15.1094C147.948 15.2292 147.547 15.5365 147.115 15.8542C146.172 16.526 145.214 17.1771 144.245 17.8021C143.896 18.026 143.49 18.1667 143.099 18.2917C142.198 18.5781 141.359 18.5104 140.578 17.8854C138.453 16.1719 137.386 13.9323 137.25 11.2396C137.188 9.99479 137.214 8.73958 137.234 7.48958C137.271 5.79166 138.016 4.40104 139.208 3.23437C139.787 2.67187 140.531 2.43749 141.302 2.32291C142.589 2.1302 143.849 2.23958 145.078 2.69791C147.307 3.53125 148.547 5.15104 148.818 7.48437C148.953 8.6302 148.948 9.79166 149.011 11.0365Z" fill="#FD8E60"/>
<path d="M138.979 8.41141C139.479 8.72391 139.719 9.04682 139.703 9.38016C139.339 9.2812 138.948 9.04682 138.635 9.13016C138.307 9.22391 138.083 9.64578 137.766 9.85932C137.323 10.1562 136.854 10.427 136.37 10.6458C136.026 10.7968 135.74 10.526 135.891 10.177C136.568 8.5937 136.51 6.8437 137.031 5.22911C137.24 4.57807 137.417 3.89578 137.755 3.31766C138.146 2.66661 138.641 2.03641 139.214 1.54161C140.208 0.687448 141.375 0.468696 142.635 0.989531C144.146 1.60411 145.672 2.19786 147.182 2.82807C149.068 3.61974 150.031 5.09891 150.24 7.0937C150.344 8.07287 150.365 9.05724 150.453 10.0364C150.5 10.5677 150.302 10.8906 149.813 11.0624C149.589 11.1406 149.37 11.2395 149.146 11.3229C148.849 11.4427 148.599 11.3437 148.474 11.0677C148.01 10.052 147.156 9.38536 146.354 8.68224C145.12 7.60411 143.839 6.58849 143.052 5.08849C142.776 4.57287 141.542 4.37495 141.037 4.7812C140.615 5.12495 140.224 5.57287 139.964 6.05203C139.578 6.7812 139.318 7.57807 138.979 8.41141Z" fill="#663B2A"/>
<path d="M142.578 14.6719C142.604 15.3177 142.26 15.75 141.88 16.2188C141.271 16.0104 140.901 15.5938 140.615 14.9896C141.24 14.6146 141.87 14.5365 142.573 14.6771L142.578 14.6719Z" fill="#ED7663"/>
<path d="M145.354 9.09896C144.453 8.54167 143.641 8.5573 142.729 9.45834C142.75 9.0573 142.693 8.84375 142.776 8.7448C143.24 8.1823 143.88 8.08334 144.547 8.19792C144.979 8.27084 145.354 8.47396 145.354 9.09896Z" fill="#663B2A"/>
<path d="M141.26 12.2656C141.771 12.9896 141.677 13.2917 140.911 13.6302C141.031 13.1771 141.12 12.8177 141.26 12.2656Z" fill="#F26C51"/>
<path d="M144.479 11.1301C144.208 11.2551 144.021 11.4218 143.886 11.3906C143.74 11.3541 143.552 11.1301 143.547 10.9843C143.542 10.7135 143.771 10.5468 144.031 10.6406C144.182 10.6979 144.281 10.901 144.479 11.1301Z" fill="black"/>
<path d="M139.693 11.0364C139.438 11.2343 139.286 11.4374 139.146 11.427C139 11.4166 138.865 11.2083 138.719 11.0833C138.849 10.9479 138.964 10.7239 139.109 10.7031C139.245 10.677 139.417 10.8697 139.693 11.0364Z" fill="black"/>
</svg>
